<?xml version="1.0" encoding="UTF-8"?>
<svg id="Layer_2" data-name="Layer 2" xmlns="http://www.w3.org/2000/svg" xmlns:xlink="http://www.w3.org/1999/xlink" viewBox="0 0 701 164">
  <defs>
    <style>
      .cls-1 {
        fill: #d1d0d0;
      }

      .cls-1, .cls-2, .cls-3, .cls-4, .cls-5, .cls-6, .cls-7, .cls-8, .cls-9, .cls-10, .cls-11, .cls-12, .cls-13, .cls-14, .cls-15, .cls-16, .cls-17, .cls-18, .cls-19, .cls-20, .cls-21, .cls-22, .cls-23, .cls-24, .cls-25, .cls-26, .cls-27, .cls-28, .cls-29, .cls-30, .cls-31, .cls-32, .cls-33, .cls-34, .cls-35, .cls-36, .cls-37, .cls-38, .cls-39, .cls-40, .cls-41, .cls-42, .cls-43, .cls-44, .cls-45, .cls-46, .cls-47, .cls-48, .cls-49, .cls-50, .cls-51, .cls-52, .cls-53, .cls-54, .cls-55, .cls-56, .cls-57, .cls-58, .cls-59, .cls-60, .cls-61, .cls-62, .cls-63, .cls-64, .cls-65, .cls-66, .cls-67, .cls-68, .cls-69, .cls-70, .cls-71, .cls-72, .cls-73, .cls-74, .cls-75, .cls-76, .cls-77, .cls-78, .cls-79, .cls-80, .cls-81, .cls-82, .cls-83, .cls-84, .cls-85, .cls-86, .cls-87, .cls-88, .cls-89, .cls-90, .cls-91, .cls-92, .cls-93, .cls-94, .cls-95, .cls-96, .cls-97, .cls-98, .cls-99, .cls-100, .cls-101, .cls-102, .cls-103, .cls-104, .cls-105, .cls-106, .cls-107, .cls-108, .cls-109, .cls-110, .cls-111, .cls-112, .cls-113, .cls-114, .cls-115, .cls-116, .cls-117, .cls-118, .cls-119, .cls-120, .cls-121, .cls-122, .cls-123, .cls-124, .cls-125, .cls-126, .cls-127, .cls-128, .cls-129, .cls-130, .cls-131, .cls-132, .cls-133, .cls-134, .cls-135, .cls-136, .cls-137, .cls-138, .cls-139, .cls-140, .cls-141, .cls-142, .cls-143, .cls-144, .cls-145, .cls-146, .cls-147, .cls-148, .cls-149, .cls-150, .cls-151, .cls-152, .cls-153, .cls-154, .cls-155, .cls-156, .cls-157, .cls-158, .cls-159, .cls-160, .cls-161, .cls-162, .cls-163, .cls-164, .cls-165, .cls-166, .cls-167, .cls-168, .cls-169, .cls-170, .cls-171, .cls-172, .cls-173, .cls-174, .cls-175, .cls-176, .cls-177, .cls-178, .cls-179, .cls-180, .cls-181, .cls-182, .cls-183, .cls-184, .cls-185, .cls-186, .cls-187, .cls-188, .cls-189, .cls-190, .cls-191, .cls-192, .cls-193, .cls-194, .cls-195, .cls-196, .cls-197, .cls-198, .cls-199, .cls-200, .cls-201, .cls-202, .cls-203, .cls-204, .cls-205, .cls-206, .cls-207, .cls-208, .cls-209, .cls-210, .cls-211, .cls-212, .cls-213, .cls-214, .cls-215, .cls-216, .cls-217, .cls-218, .cls-219 {
        stroke-width: 0px;
      }

      .cls-2 {
        fill: #2b2727;
      }

      .cls-3 {
        fill: #999;
      }

      .cls-4 {
        fill: #f0efef;
      }

      .cls-5 {
        fill: #e4e4e4;
      }

      .cls-6 {
        fill: #b9b8b8;
      }

      .cls-7 {
        fill: #b6b6b6;
      }

      .cls-8 {
        fill: #484647;
      }

      .cls-9 {
        fill: #bdbcbc;
      }

      .cls-10 {
        fill: #8a8788;
      }

      .cls-11 {
        fill: #595656;
      }

      .cls-12 {
        fill: #d5d4d3;
      }

      .cls-13 {
        fill: #979696;
      }

      .cls-14 {
        fill: #6b6969;
      }

      .cls-15 {
        fill: #dad9d8;
      }

      .cls-16 {
        fill: #605d5e;
      }

      .cls-17 {
        fill: #d5d5d4;
      }

      .cls-18 {
        fill: #252122;
      }

      .cls-19 {
        fill: #8f8c8d;
      }

      .cls-20 {
        fill: #716e6f;
      }

      .cls-21 {
        fill: #a09e9f;
      }

      .cls-22 {
        fill: #686566;
      }

      .cls-23 {
        fill: #4d4a4b;
      }

      .cls-24 {
        fill: #f3f3f3;
      }

      .cls-25 {
        fill: #a1a0a0;
      }

      .cls-26 {
        fill: #4a4849;
      }

      .cls-27 {
        fill: #cbcaca;
      }

      .cls-28 {
        fill: #efeeee;
      }

      .cls-29 {
        fill: #3f3b3c;
      }

      .cls-30 {
        fill: #787577;
      }

      .cls-31 {
        fill: #3c3839;
      }

      .cls-32 {
        fill: #4c4849;
      }

      .cls-33 {
        fill: #5d5a5b;
      }

      .cls-34 {
        fill: #595758;
      }

      .cls-35 {
        fill: #636062;
      }

      .cls-36 {
        fill: #565353;
      }

      .cls-37 {
        fill: #b8b7b7;
      }

      .cls-38 {
        fill: #444141;
      }

      .cls-39 {
        fill: #4f4c4d;
      }

      .cls-40 {
        fill: #929191;
      }

      .cls-41 {
        fill: #656262;
      }

      .cls-42 {
        fill: #fcfdff;
      }

      .cls-43 {
        fill: #5b595a;
      }

      .cls-44 {
        fill: #5d595a;
      }

      .cls-45 {
        fill: #282425;
      }

      .cls-46 {
        fill: #bab9b9;
      }

      .cls-47 {
        fill: #e1e1e1;
      }

      .cls-48 {
        fill: #383435;
      }

      .cls-49 {
        fill: #acabab;
      }

      .cls-50 {
        fill: #a9a7a7;
      }

      .cls-51 {
        fill: #9c9b9b;
      }

      .cls-52 {
        fill: #3d393a;
      }

      .cls-220 {
        letter-spacing: 0em;
      }

      .cls-53 {
        fill: #ececec;
      }

      .cls-54 {
        fill: #413d3e;
      }

      .cls-221 {
        letter-spacing: 0em;
      }

      .cls-55 {
        fill: #908d8e;
      }

      .cls-56 {
        fill: #4a4647;
      }

      .cls-57 {
        fill: #e3e3e3;
      }

      .cls-58 {
        fill: #838081;
      }

      .cls-59 {
        fill: #686465;
      }

      .cls-60 {
        fill: #e0e0e0;
      }

      .cls-61 {
        fill: #dededd;
      }

      .cls-62 {
        fill: #cfcfce;
      }

      .cls-63 {
        fill: #5f5c5e;
      }

      .cls-64 {
        fill: #626061;
      }

      .cls-65 {
        fill: #2e2a2b;
      }

      .cls-66 {
        fill: #f4f5f5;
      }

      .cls-67 {
        fill: #2a2626;
      }

      .cls-68 {
        fill: #454143;
      }

      .cls-69 {
        fill: #e6e6e5;
      }

      .cls-70 {
        fill: #c3c2c2;
      }

      .cls-71 {
        fill: #d2d1d1;
      }

      .cls-72 {
        fill: #f5f5f5;
      }

      .cls-73 {
        fill: #9b9a9a;
      }

      .cls-74 {
        fill: none;
      }

      .cls-75 {
        fill: #dfdfdf;
      }

      .cls-76 {
        fill: #2f2b2c;
      }

      .cls-77 {
        fill: #737070;
      }

      .cls-78 {
        fill: #817f7f;
      }

      .cls-79 {
        fill: #393536;
      }

      .cls-80 {
        fill: #aaa8a9;
      }

      .cls-81 {
        fill: #e9e9e9;
      }

      .cls-82 {
        fill: #b3b2b2;
      }

      .cls-83 {
        fill: #bbbaba;
      }

      .cls-84 {
        fill: #6d6a6c;
      }

      .cls-85 {
        fill: #9d9c9d;
      }

      .cls-86 {
        fill: #c9c8c8;
      }

      .cls-87 {
        fill: #d7d6d6;
      }

      .cls-88 {
        fill: #b3b3b3;
      }

      .cls-89 {
        fill: #c0bebe;
      }

      .cls-90 {
        fill: #b9b9b9;
      }

      .cls-91 {
        fill: #656364;
      }

      .cls-92 {
        fill: #322e2f;
      }

      .cls-93 {
        fill: #4e4a4b;
      }

      .cls-94 {
        fill: #433f40;
      }

      .cls-95 {
        fill: #878485;
      }

      .cls-96 {
        fill: #e7e7e7;
      }

      .cls-97 {
        fill: #8e8b8c;
      }

      .cls-98 {
        fill: #dfdfde;
      }

      .cls-99 {
        fill: #cdcccc;
      }

      .cls-100 {
        fill: #7f7d7e;
      }

      .cls-101 {
        fill: #afaeae;
      }

      .cls-102 {
        fill: #adabac;
      }

      .cls-103 {
        fill: #363233;
      }

      .cls-104 {
        fill: #969595;
      }

      .cls-105 {
        fill: #a5a4a4;
      }

      .cls-106 {
        fill: #747273;
      }

      .cls-107 {
        fill: #828080;
      }

      .cls-108 {
        fill: #fff;
      }

      .cls-109 {
        fill: #7d797b;
      }

      .cls-110 {
        fill: #767273;
      }

      .cls-111 {
        fill: #91908f;
      }

      .cls-112 {
        fill: #a4a3a3;
      }

      .cls-113 {
        fill: #dcdbdb;
      }

      .cls-114 {
        fill: #8d8a8b;
      }

      .cls-115 {
        fill: #7e7b7c;
      }

      .cls-116 {
        fill: #d6d6d5;
      }

      .cls-117 {
        fill: #bcbbbb;
      }

      .cls-118 {
        fill: #262223;
      }

      .cls-119 {
        fill: #b0b0b0;
      }

      .cls-120 {
        fill: #5a5758;
      }

      .cls-121 {
        fill: #c7c6c6;
      }

      .cls-122 {
        fill: #939292;
      }

      .cls-123 {
        fill: #312d2e;
      }

      .cls-124 {
        fill: #e2e2e2;
      }

      .cls-125 {
        fill: #625f5f;
      }

      .cls-126 {
        fill: #221f1f;
      }

      .cls-127 {
        fill: #c4c2c2;
      }

      .cls-128 {
        fill: #262324;
      }

      .cls-129 {
        fill: #8c888a;
      }

      .cls-130 {
        fill: #c6c4c3;
      }

      .cls-131 {
        fill: #827f80;
      }

      .cls-132 {
        fill: #c8c7c7;
      }

      .cls-133 {
        fill: #6c696a;
      }

      .cls-134 {
        fill: #848182;
      }

      .cls-135 {
        fill: #a2a1a1;
      }

      .cls-136 {
        fill: #dddddc;
      }

      .cls-137 {
        fill: #cdcbcb;
      }

      .cls-138 {
        fill: #7a7778;
      }

      .cls-222 {
        clip-path: url(#clippath);
      }

      .cls-139 {
        fill: #b5b5b5;
      }

      .cls-223 {
        filter: url(#outer-glow-2);
        font-size: 84.76px;
      }

      .cls-223, .cls-204, .cls-224 {
        fill: #f2f2f2;
      }

      .cls-223, .cls-224 {
        font-family: Acens, Acens;
      }

      .cls-140 {
        fill: #a19f9f;
      }

      .cls-141 {
        fill: #6e6b6c;
      }

      .cls-142 {
        fill: #373334;
      }

      .cls-143 {
        fill: #5e5b5d;
      }

      .cls-144 {
        fill: #353132;
      }

      .cls-145 {
        fill: #3a3637;
      }

      .cls-146 {
        fill: #afadad;
      }

      .cls-147 {
        fill: #949393;
      }

      .cls-148 {
        fill: #e5e5e4;
      }

      .cls-149 {
        fill: #aeacad;
      }

      .cls-150 {
        fill: #908f8f;
      }

      .cls-151 {
        fill: #f6f7f7;
      }

      .cls-152 {
        fill: #c2c1c1;
      }

      .cls-153 {
        fill: #535151;
      }

      .cls-154 {
        fill: #332f30;
      }

      .cls-155 {
        fill: #9a9a9a;
      }

      .cls-156 {
        fill: #898687;
      }

      .cls-157 {
        fill: #949394;
      }

      .cls-158 {
        fill: #464343;
      }

      .cls-159 {
        fill: #f1f1f1;
      }

      .cls-160 {
        fill: #ebebeb;
      }

      .cls-161 {
        fill: #514e4f;
      }

      .cls-162 {
        fill: #7d7a7c;
      }

      .cls-163 {
        fill: #3b3738;
      }

      .cls-164 {
        fill: #3e3a3b;
      }

      .cls-165 {
        fill: #f9f9f9;
      }

      .cls-166 {
        fill: #bfbdbd;
      }

      .cls-167 {
        fill: #343031;
      }

      .cls-168 {
        fill: #787576;
      }

      .cls-169 {
        fill: #999898;
      }

      .cls-170 {
        fill: #6b6868;
      }

      .cls-171 {
        fill: #232020;
      }

      .cls-172 {
        fill: #7c787a;
      }

      .cls-173 {
        fill: #706d6e;
      }

      .cls-174 {
        fill: #e8e8e8;
      }

      .cls-175 {
        fill: #eeeded;
      }

      .cls-176 {
        fill: #9e9d9e;
      }

      .cls-177 {
        fill: #504e4e;
      }

      .cls-178 {
        fill: #c7c5c4;
      }

      .cls-179 {
        fill: #a7a6a6;
      }

      .cls-180 {
        fill: #2c2829;
      }

      .cls-181 {
        fill: #a6a5a5;
      }

      .cls-182 {
        fill: #292526;
      }

      .cls-183 {
        fill: #d8d7d7;
      }

      .cls-184 {
        fill: #f7f8f9;
      }

      .cls-185 {
        fill: #d9d8d8;
      }

      .cls-186 {
        fill: #565454;
      }

      .cls-187 {
        fill: #7b7778;
      }

      .cls-188 {
        fill: #888586;
      }

      .cls-189 {
        fill: #b4b4b4;
      }

      .cls-190 {
        fill: #474344;
      }

      .cls-191 {
        fill: #d3d2d2;
      }

      .cls-192 {
        fill: #fafbfb;
      }

      .cls-193 {
        fill: #575455;
      }

      .cls-194 {
        fill: #807e7f;
      }

      .cls-225 {
        letter-spacing: -.03em;
      }

      .cls-195 {
        fill: #868384;
      }

      .cls-196 {
        fill: #eaeaea;
      }

      .cls-197 {
        fill: #d2d0d0;
      }

      .cls-198 {
        fill: #777374;
      }

      .cls-199 {
        fill: #484445;
      }

      .cls-200 {
        fill: #666465;
      }

      .cls-201 {
        fill: #403c3d;
      }

      .cls-202 {
        fill: #696667;
      }

      .cls-203 {
        fill: #2d292a;
      }

      .cls-205 {
        fill: #aaa;
      }

      .cls-206 {
        fill: #c1c0c0;
      }

      .cls-207 {
        fill: #433f41;
      }

      .cls-208 {
        fill: #8b8889;
      }

      .cls-209 {
        fill: #555252;
      }

      .cls-210 {
        fill: #cececd;
      }

      .cls-211 {
        fill: #737072;
      }

      .cls-224 {
        filter: url(#outer-glow-1);
        font-size: 37.4px;
      }

      .cls-212 {
        fill: #cac9c9;
      }

      .cls-213 {
        fill: #535050;
      }

      .cls-214 {
        fill: #302c2d;
      }

      .cls-215 {
        fill: #969695;
      }

      .cls-216 {
        fill: #c0bfbf;
      }

      .cls-217 {
        fill: #858283;
      }

      .cls-218 {
        fill: #dbdada;
      }

      .cls-219 {
        fill: #b2b1b1;
      }
    </style>
    <filter id="outer-glow-1" filterUnits="userSpaceOnUse">
      <feOffset dx="0" dy="0"/>
      <feGaussianBlur result="blur" stdDeviation="5"/>
      <feFlood flood-color="#fff" flood-opacity=".75"/>
      <feComposite in2="blur" operator="in"/>
      <feComposite in="SourceGraphic"/>
    </filter>
    <filter id="outer-glow-2" filterUnits="userSpaceOnUse">
      <feOffset dx="0" dy="0"/>
      <feGaussianBlur result="blur-2" stdDeviation="5"/>
      <feFlood flood-color="#fff" flood-opacity=".75"/>
      <feComposite in2="blur-2" operator="in"/>
      <feComposite in="SourceGraphic"/>
    </filter>
    <clipPath id="clippath">
      <rect class="cls-74" x="71.46" y="58.22" width="508.82" height="3.94"/>
    </clipPath>
  </defs>
  <g id="Layer_1-2" data-name="Layer 1">
    <g id="Title08">
      <text class="cls-224" transform="translate(15.83 47.24)"><tspan x="0" y="0">EM</tspan><tspan class="cls-225" x="48.47" y="0">U</tspan><tspan x="71.66" y="0">.JS</tspan></text>
      <text class="cls-223" transform="translate(72.09 127.74)"><tspan x="0" y="0">Online Emul</tspan><tspan class="cls-221" x="431.86" y="0">a</tspan><tspan class="cls-220" x="472.38" y="0">tion</tspan></text>
      <g class="cls-222">
        <rect class="cls-126" x="71.54" y="57.27" width="510" height="6"/>
        <path class="cls-126" d="m144.89,60.19c0-6.68.66-13.2,3.66-19.49v15.56h354v-15.56c3,6.29,3.67,12.81,3.67,19.49s-.67,13.2-3.67,19.49v-13.41H148.54v13.41c-3-6.29-3.66-12.81-3.66-19.49Z"/>
        <path class="cls-171" d="m147.9,60.19c0-6.64.65-13.13,3.65-19.39v15.47h348v-15.47c3,6.26,3.64,12.75,3.64,19.39s-.64,13.13-3.64,19.39v-13.32H151.54v13.32c-3-6.26-3.65-12.75-3.65-19.39Z"/>
        <path class="cls-18" d="m147.93,60.19c0-6.62.62-13.07,3.62-19.31v15.39h348v-15.39c3,6.24,3.63,12.69,3.63,19.31s-.63,13.07-3.63,19.31v-13.23H151.54v13.23c-3-6.24-3.62-12.69-3.62-19.31Z"/>
        <path class="cls-118" d="m147.94,60.19c0-6.59.61-13.01,3.61-19.22v15.3h348v-15.3c3,6.21,3.61,12.63,3.61,19.22s-.61,13.01-3.61,19.22v-13.14H151.54v13.14c-3-6.21-3.61-12.63-3.61-19.22Z"/>
        <path class="cls-128" d="m150.96,60.19c0-6.56.59-12.95,3.59-19.14v15.21h345v-15.21c0,6.19,3.59,12.58,3.59,19.14s-3.59,12.95-3.59,19.14v-13.06H154.54v13.06c-3-6.19-3.59-12.58-3.59-19.14Z"/>
        <path class="cls-45" d="m150.97,60.19c0-6.53.58-12.9,3.58-19.06v15.13h342v-15.13c3,6.16,3.58,12.53,3.58,19.06s-.58,12.9-3.58,19.06v-12.98H154.54v12.98c-3-6.16-3.58-12.53-3.58-19.06Z"/>
        <path class="cls-182" d="m150.98,60.19c0-6.5.57-12.84,3.57-18.96v15.04h342v-15.04c3,6.13,3.55,12.47,3.55,18.96s-.55,12.84-3.55,18.97v-12.89H154.54v12.89c-3-6.13-3.57-12.47-3.57-18.97Z"/>
        <path class="cls-67" d="m151.01,60.19c0-6.46,3.53-12.78,3.53-18.87v14.95h342v-14.95c3,6.1,3.54,12.41,3.54,18.87s-.54,12.78-3.54,18.87v-12.79H154.54v12.79c0-6.09-3.53-12.41-3.53-18.87Z"/>
        <path class="cls-2" d="m154.02,60.19c0-6.43.52-12.72,3.52-18.79v14.87h338v-14.87c1,6.07,3.52,12.36,3.52,18.79s-2.52,12.72-3.52,18.79v-12.71H157.54v12.71c-3-6.07-3.52-12.36-3.52-18.79Z"/>
        <path class="cls-180" d="m154.04,60.19c0-6.4.5-12.66,3.5-18.7v14.78h338v-14.78c1,6.03,3.5,12.29,3.5,18.7s-2.5,12.66-3.5,18.7v-12.62H157.54v12.62c-3-6.03-3.5-12.29-3.5-18.7Z"/>
        <path class="cls-203" d="m154.05,60.19c0-6.37.49-12.6,3.49-18.62v14.69h338v-14.69c1,6.01,3.5,12.24,3.5,18.62s-2.5,12.6-3.5,18.62v-12.54H157.54v12.54c-3-6.02-3.49-12.24-3.49-18.62Z"/>
        <path class="cls-65" d="m154.06,60.19c0-6.35,3.48-12.54,3.48-18.52v14.6h335v-14.6c3,5.98,3.47,12.17,3.47,18.52s-.47,12.54-3.47,18.52v-12.45H157.54v12.45c0-5.98-3.48-12.17-3.48-18.52Z"/>
        <path class="cls-76" d="m154.09,60.19c0-6.31,3.45-12.48,3.45-18.44v14.52h335v-14.52c3,5.96,3.46,12.13,3.46,18.44s-.46,12.48-3.46,18.44v-12.36H157.54v12.36c0-5.96-3.45-12.13-3.45-18.44Z"/>
        <path class="cls-214" d="m154.1,60.19c0-6.29,3.44-12.43,3.44-18.35v14.43h335v-14.43c3,5.92,3.44,12.06,3.44,18.35s-.44,12.43-3.44,18.35v-12.27H157.54v12.27c0-5.92-3.44-12.06-3.44-18.35Z"/>
        <path class="cls-123" d="m157.12,60.19c0-6.26.42-12.37,3.42-18.27v14.35h332v-14.35c0,5.9,3.42,12.01,3.42,18.27s-3.42,12.37-3.42,18.27v-12.19H160.54v12.19c-3-5.9-3.42-12.01-3.42-18.27Z"/>
        <path class="cls-92" d="m157.13,60.19c0-6.23.41-12.3,3.41-18.17v14.25h329v-14.25c3,5.87,3.41,11.95,3.41,18.17s-.41,12.3-3.41,18.18v-12.1H160.54v12.1c-3-5.87-3.41-11.95-3.41-18.18Z"/>
        <path class="cls-154" d="m157.14,60.19c0-6.2.4-12.25,3.4-18.09v14.17h329v-14.17c3,5.84,3.39,11.89,3.39,18.09s-.39,12.25-3.39,18.09v-12.02H160.54v12.02c-3-5.84-3.4-11.9-3.4-18.09Z"/>
        <path class="cls-167" d="m157.17,60.19c0-6.17,3.37-12.19,3.37-18.01v14.09h329v-14.09c3,5.82,3.38,11.85,3.38,18.01s-.38,12.19-3.38,18.01v-11.93H160.54v11.93c0-5.82-3.37-11.84-3.37-18.01Z"/>
        <path class="cls-144" d="m160.18,60.19c0-6.14.36-12.13,3.36-17.92v14h323v-14c3,5.79,3.36,11.78,3.36,17.92s-.36,12.13-3.36,17.92v-11.84H163.54v11.84c-3-5.79-3.36-11.78-3.36-17.92Z"/>
        <path class="cls-103" d="m160.2,60.19c0-6.11.34-12.07,3.34-17.83v13.91h323v-13.91c3,5.76,3.34,11.72,3.34,17.83s-.34,12.07-3.34,17.83v-11.75H163.54v11.75c-3-5.76-3.34-11.72-3.34-17.83Z"/>
        <path class="cls-142" d="m160.21,60.19c0-6.08,3.33-12.01,3.33-17.74v13.82h323v-13.82c3,5.74,3.34,11.67,3.34,17.74s-.34,12.01-3.34,17.75v-11.67H163.54v11.67c0-5.74-3.33-11.67-3.33-17.75Z"/>
        <path class="cls-48" d="m163.23,60.19c0-6.04.32-11.96,3.32-17.66v13.74h319v-13.74c1,5.7,3.31,11.62,3.31,17.66s-2.31,11.96-3.31,17.66v-11.58H166.54v11.58c-3-5.71-3.32-11.62-3.32-17.66Z"/>
        <path class="cls-79" d="m163.26,60.19c0-6.02.29-11.89,3.29-17.57v13.65h319v-13.65c1,5.68,3.3,11.55,3.3,17.57s-2.3,11.9-3.3,17.57v-11.49H166.54v11.49c-3-5.68-3.29-11.55-3.29-17.57Z"/>
        <path class="cls-145" d="m163.27,60.19c0-5.98.28-11.83,3.28-17.48v13.56h319v-13.56c1,5.65,3.28,11.49,3.28,17.48s-2.28,11.83-3.28,17.48v-11.4H166.54v11.4c-3-5.64-3.28-11.5-3.28-17.48Z"/>
        <path class="cls-163" d="m166.28,60.19c0-5.96.26-11.78,3.26-17.4v13.47h316v-13.47c0,5.61,3.26,11.43,3.26,17.4s-3.26,11.78-3.26,17.4v-11.32H169.54v11.32c-3-5.61-3.26-11.43-3.26-17.4Z"/>
        <path class="cls-31" d="m166.29,60.19c0-5.93.25-11.72,3.25-17.31v13.39h313v-13.39c3,5.59,3.26,11.38,3.26,17.31s-.26,11.72-3.26,17.31v-11.24H169.54v11.24c-3-5.59-3.25-11.38-3.25-17.31Z"/>
        <path class="cls-52" d="m166.31,60.19c0-5.9.24-11.66,3.24-17.22v13.3h313v-13.3c3,5.56,3.23,11.32,3.23,17.22s-.23,11.66-3.23,17.22v-11.15H169.54v11.15c-3-5.56-3.24-11.32-3.24-17.22Z"/>
        <path class="cls-164" d="m166.34,60.19c0-5.87,3.21-11.6,3.21-17.14v13.22h313v-13.22c0,5.54,3.22,11.27,3.22,17.14s-3.22,11.6-3.22,17.14v-11.06H169.54v11.06c0-5.54-3.21-11.27-3.21-17.14Z"/>
        <path class="cls-29" d="m169.35,60.19c0-5.84.2-11.54,3.2-17.05v13.13h307v-13.13c3,5.51,3.2,11.21,3.2,17.05s-.2,11.54-3.2,17.05v-10.97H172.54v10.97c-3-5.51-3.2-11.21-3.2-17.05Z"/>
        <path class="cls-201" d="m169.37,60.19c0-5.81.18-11.48,3.18-16.97v13.04h307v-13.04c3,5.48,3.18,11.16,3.18,16.97s-.18,11.48-3.18,16.97v-10.89H172.54v10.89c-3-5.48-3.18-11.16-3.18-16.97Z"/>
        <path class="cls-54" d="m169.38,60.19c0-5.78,3.17-11.42,3.17-16.87v12.95h307v-12.95c3,5.45,3.18,11.1,3.18,16.87s-.18,11.42-3.18,16.88v-10.8H172.54v10.8c0-5.45-3.17-11.1-3.17-16.88Z"/>
        <path class="cls-94" d="m172.39,60.19c0-5.75.16-11.36,3.16-16.79v12.87h301v-12.87c3,5.43,3.14,11.04,3.14,16.79s-.14,11.36-3.14,16.79v-10.71H175.54v10.71c-3-5.43-3.16-11.05-3.16-16.79Z"/>
        <path class="cls-207" d="m172.42,60.19c0-5.72.12-11.31,3.12-16.7v12.78h301v-12.78c3,5.39,3.13,10.98,3.13,16.7s-.13,11.31-3.13,16.7v-10.62H175.54v10.62c-3-5.39-3.12-10.98-3.12-16.7Z"/>
        <path class="cls-38" d="m172.43,60.19c0-5.7.11-11.25,3.11-16.62v12.7h301v-12.7c3,5.37,3.11,10.92,3.11,16.62s-.11,11.25-3.11,16.62v-10.54H175.54v10.54c-3-5.37-3.11-10.92-3.11-16.62Z"/>
        <path class="cls-68" d="m175.45,60.19c0-5.66.09-11.19,3.09-16.53v12.6h298v-12.6c0,5.34,3.09,10.87,3.09,16.53s-3.09,11.19-3.09,16.53v-10.45H178.54v10.45c-3-5.34-3.09-10.87-3.09-16.53Z"/>
        <path class="cls-158" d="m175.46,60.19c0-5.63.08-11.13,3.08-16.44v12.52h296v-12.52c2,5.32,3.09,10.81,3.09,16.44s-1.09,11.13-3.09,16.44v-10.37H178.54v10.37c-3-5.32-3.08-10.81-3.08-16.44Z"/>
        <path class="cls-190" d="m175.47,60.19c0-5.6.07-11.06,3.07-16.35v12.43h296v-12.43c2,5.29,3.06,10.75,3.06,16.35s-1.06,11.06-3.06,16.35v-10.27H178.54v10.27c-3-5.29-3.07-10.75-3.07-16.35Z"/>
        <path class="cls-199" d="m175.5,60.19c0-5.57,3.04-11.01,3.04-16.27v12.35h296v-12.35c0,5.26,3.05,10.7,3.05,16.27s-3.05,11.01-3.05,16.27v-10.19H178.54v10.19c0-5.26-3.04-10.7-3.04-16.27Z"/>
        <path class="cls-8" d="m176.51,60.19c0-5.54,2.03-10.95,3.03-16.18v12.25h292v-12.25c3,5.22,3.03,10.64,3.03,16.18s-.03,10.95-3.03,16.18v-10.1H179.54v10.1c-1-5.23-3.03-10.64-3.03-16.18Z"/>
        <path class="cls-56" d="m176.53,60.19c0-5.51,2.01-10.89,3.01-16.09v12.17h292v-12.17c3,5.21,3.01,10.58,3.01,16.09s-.01,10.89-3.01,16.09v-10.02H179.54v10.02c-1-5.2-3.01-10.58-3.01-16.09Z"/>
        <path class="cls-26" d="m176.54,60.19c0-5.48,3-10.84,3-16v12.08h292v-12.08c3,5.16,3,10.52,3,16s0,10.84-3,16v-9.93H179.54v9.93c0-5.17-3-10.52-3-16Z"/>
        <path class="cls-32" d="m179.55,60.19c0-5.45,0-10.78,2.99-15.92v12h286v-12c3,5.14,2.98,10.47,2.98,15.92s.02,10.78-2.98,15.92v-9.84H182.54v9.84c-3-5.14-2.99-10.47-2.99-15.92Z"/>
        <path class="cls-23" d="m179.58,60.19c0-5.42-.04-10.72,2.96-15.83v11.91h286v-11.91c3,5.11,2.97,10.41,2.97,15.83s.03,10.72-2.97,15.83v-9.75H182.54v9.75c-3-5.11-2.96-10.41-2.96-15.83Z"/>
        <path class="cls-93" d="m179.59,60.19c0-5.39,2.95-10.65,2.95-15.75v11.83h286v-11.83c3,5.09,2.95,10.36,2.95,15.75s.05,10.66-2.95,15.75v-9.67H182.54v9.67c0-5.09-2.95-10.36-2.95-15.75Z"/>
        <path class="cls-39" d="m182.6,60.19c0-5.37-.06-10.6,2.94-15.65v11.73h283v-11.73c0,5.05,2.94,10.29,2.94,15.65s-2.94,10.6-2.94,15.66v-9.58H185.54v9.58c-3-5.05-2.94-10.29-2.94-15.66Z"/>
        <path class="cls-39" d="m182.62,60.19c0-5.34-.08-10.54,2.92-15.57v11.65h280v-11.65c3,5.03,2.93,10.23,2.93,15.57s.07,10.54-2.93,15.57v-9.5H185.54v9.5c-3-5.03-2.92-10.24-2.92-15.57Z"/>
        <path class="cls-177" d="m182.63,60.19c0-5.31-.09-10.48,2.91-15.48v11.56h280v-11.56c3,5,2.9,10.17,2.9,15.48s.1,10.48-2.9,15.48v-9.4H185.54v9.4c-3-5-2.91-10.17-2.91-15.48Z"/>
        <path class="cls-161" d="m182.66,60.19c0-5.28,2.88-10.42,2.88-15.4v11.48h280v-11.48c0,4.98,2.89,10.12,2.89,15.4s-2.89,10.42-2.89,15.4v-9.32H185.54v9.32c0-4.98-2.88-10.12-2.88-15.4Z"/>
        <path class="cls-213" d="m185.67,60.19c0-5.25-.13-10.37,2.87-15.31v11.38h274v-11.38c3,4.94,2.87,10.06,2.87,15.31s.13,10.37-2.87,15.31v-9.23H188.54v9.23c-3-4.94-2.87-10.06-2.87-15.31Z"/>
        <path class="cls-153" d="m185.69,60.19c0-5.22-.14-10.31,2.86-15.22v11.3h274v-11.3c3,4.92,2.86,10.01,2.86,15.22s.14,10.31-2.86,15.22v-9.15H188.54v9.15c-3-4.92-2.86-10.01-2.86-15.22Z"/>
        <path class="cls-209" d="m185.71,60.19c0-5.19,2.84-10.25,2.84-15.13v11.21h274v-11.21c0,4.89,2.84,9.95,2.84,15.13s-2.84,10.25-2.84,15.13v-9.05H188.54v9.05c0-4.89-2.84-9.95-2.84-15.13Z"/>
        <path class="cls-36" d="m187.71,60.19c0-5.15.83-10.18,2.83-15.05v11.13h271v-11.13c1,4.87,2.82,9.9,2.82,15.05s-1.82,10.19-2.82,15.05v-8.97H190.54v8.97c-2-4.86-2.83-9.9-2.83-15.05Z"/>
        <path class="cls-186" d="m187.74,60.19c0-5.12.81-10.13,2.81-14.96v11.04h271v-11.04c1,4.83,2.81,9.84,2.81,14.96s-1.81,10.13-2.81,14.96v-8.88H190.54v8.88c-2-4.83-2.81-9.84-2.81-14.96Z"/>
        <path class="cls-193" d="m187.76,60.19c0-5.09,2.79-10.07,2.79-14.88v10.95h271v-10.95c1,4.81,2.79,9.78,2.79,14.88s-1.79,10.07-2.79,14.88v-8.8H190.54v8.8c0-4.8-2.79-9.78-2.79-14.88Z"/>
        <path class="cls-11" d="m190.77,60.19c0-5.06-.22-10.01,2.78-14.79v10.87h268v-10.87c0,4.78,2.78,9.73,2.78,14.79s-2.78,10.01-2.78,14.79v-8.72H193.54v8.72c-3-4.79-2.78-9.73-2.78-14.79Z"/>
        <path class="cls-34" d="m190.79,60.19c0-5.04-.25-9.95,2.75-14.7v10.78h265v-10.78c3,4.75,2.77,9.66,2.77,14.7s.23,9.95-2.77,14.7v-8.62H193.54v8.62c-3-4.75-2.75-9.66-2.75-14.7Z"/>
        <path class="cls-120" d="m190.8,60.19c0-5.01-.25-9.9,2.75-14.61v10.69h265v-10.69c3,4.71,2.73,9.6,2.73,14.61s.27,9.9-2.73,14.61v-8.53H193.54v8.53c-3-4.71-2.75-9.6-2.75-14.61Z"/>
        <path class="cls-43" d="m190.82,60.19c0-4.98,2.72-9.84,2.72-14.53v10.61h265v-10.61c0,4.69,2.72,9.55,2.72,14.53s-2.72,9.84-2.72,14.53v-8.45H193.54v8.45c0-4.69-2.72-9.55-2.72-14.53Z"/>
        <path class="cls-44" d="m193.84,60.19c0-4.95-.3-9.77,2.7-14.44v10.51h259v-10.51c3,4.66,2.71,9.49,2.71,14.44s.29,9.77-2.71,14.44v-8.36H196.54v8.36c-3-4.66-2.7-9.49-2.7-14.44Z"/>
        <path class="cls-33" d="m193.85,60.19c0-4.92-.31-9.71,2.69-14.35v10.43h259v-10.43c3,4.64,2.68,9.44,2.68,14.35s.32,9.71-2.68,14.35v-8.28H196.54v8.28c-3-4.64-2.69-9.44-2.69-14.35Z"/>
        <path class="cls-143" d="m193.87,60.19c0-4.89,2.67-9.66,2.67-14.26v10.34h259v-10.34c0,4.6,2.67,9.37,2.67,14.26s-2.67,9.66-2.67,14.26v-8.18H196.54v8.18c0-4.6-2.67-9.38-2.67-14.26Z"/>
        <path class="cls-63" d="m196.88,60.19c0-4.86-.34-9.6,2.66-14.18v10.26h253v-10.26c3,4.58,2.65,9.32,2.65,14.18s.35,9.6-2.65,14.18v-8.1h-253v8.1c-3-4.58-2.66-9.32-2.66-14.18Z"/>
        <path class="cls-16" d="m196.9,60.19c0-4.83-.36-9.54,2.64-14.1v10.18h253v-10.18c3,4.56,2.64,9.27,2.64,14.1s.36,9.54-2.64,14.1v-8.02h-253v8.02c-3-4.56-2.64-9.27-2.64-14.1Z"/>
        <path class="cls-125" d="m196.92,60.19c0-4.79,2.62-9.48,2.62-14v10.08h253v-10.08c3,4.53,2.62,9.21,2.62,14s.38,9.48-2.62,14v-7.93h-253v7.93c0-4.53-2.62-9.21-2.62-14Z"/>
        <path class="cls-64" d="m199.93,60.19c0-4.76-.39-9.43,2.61-13.91v9.99h250v-9.99c0,4.49,2.6,9.15,2.6,13.91s-2.6,9.43-2.6,13.91v-7.84h-250v7.84c-3-4.49-2.61-9.15-2.61-13.91Z"/>
        <path class="cls-35" d="m199.95,60.19c0-4.73-.41-9.36,2.59-13.83v9.91h248v-9.91c2,4.47,2.6,9.1,2.6,13.83s-.6,9.36-2.6,13.83v-7.75h-248v7.75c-3-4.47-2.59-9.1-2.59-13.83Z"/>
        <path class="cls-41" d="m199.96,60.19c0-4.71,2.58-9.3,2.58-13.75v9.83h248v-9.83c2,4.45,2.57,9.04,2.57,13.75s-.57,9.3-2.57,13.75v-7.67h-248v7.67c0-4.45-2.58-9.04-2.58-13.75Z"/>
        <path class="cls-91" d="m199.98,60.19c0-4.68,2.56-9.24,2.56-13.66v9.73h248v-9.73c0,4.42,2.56,8.97,2.56,13.66s-2.56,9.24-2.56,13.66v-7.58h-248v7.58c0-4.42-2.56-8.98-2.56-13.66Z"/>
        <path class="cls-200" d="m200.99,60.19c0-4.65,1.55-9.19,2.55-13.56v9.64h244v-9.64c3,4.37,2.54,8.91,2.54,13.56s.46,9.19-2.54,13.57v-7.49h-244v7.49c-1-4.37-2.55-8.91-2.55-13.57Z"/>
        <path class="cls-59" d="m201.01,60.19c0-4.62,1.53-9.13,2.53-13.48v9.56h244v-9.56c3,4.35,2.53,8.86,2.53,13.48s.47,9.13-2.53,13.48v-7.41h-244v7.41c-1-4.36-2.53-8.86-2.53-13.48Z"/>
        <path class="cls-22" d="m201.03,60.19c0-4.59,2.51-9.07,2.51-13.4v9.48h244v-9.48c0,4.33,2.52,8.81,2.52,13.4s-2.52,9.07-2.52,13.4v-7.32h-244v7.32c0-4.33-2.51-8.81-2.51-13.4Z"/>
        <path class="cls-202" d="m204.04,60.19c0-4.56-.5-9.02,2.5-13.31v9.39h239v-9.39c2,4.29,2.49,8.75,2.49,13.31s-.49,9.02-2.49,13.31v-7.23h-239v7.23c-3-4.29-2.5-8.75-2.5-13.31Z"/>
        <path class="cls-170" d="m204.05,60.19c0-4.53-.51-8.95,2.49-13.22v9.29h239v-9.29c2,4.26,2.48,8.69,2.48,13.22s-.48,8.96-2.48,13.22v-7.14h-239v7.14c-3-4.26-2.49-8.69-2.49-13.22Z"/>
        <path class="cls-14" d="m204.07,60.19c0-4.5,2.47-8.89,2.47-13.13v9.21h239v-9.21c0,4.24,2.46,8.64,2.46,13.13s-2.46,8.89-2.46,13.13v-7.06h-239v7.06c0-4.24-2.47-8.64-2.47-13.13Z"/>
        <path class="cls-133" d="m207.09,60.19c0-4.47-.55-8.83,2.45-13.05v9.13h236v-9.13c0,4.22,2.45,8.58,2.45,13.05s-2.45,8.83-2.45,13.05v-6.97h-236v6.97c-3-4.22-2.45-8.59-2.45-13.05Z"/>
        <path class="cls-84" d="m207.11,60.19c0-4.44-.57-8.77,2.43-12.96v9.04h233v-9.04c3,4.19,2.44,8.52,2.44,12.96s.56,8.77-2.44,12.96v-6.88h-233v6.88c-3-4.19-2.43-8.52-2.43-12.96Z"/>
        <path class="cls-141" d="m207.13,60.19c0-4.41,2.42-8.72,2.42-12.88v8.96h233v-8.96c3,4.16,2.42,8.47,2.42,12.88s.58,8.72-2.42,12.88v-6.8h-233v6.8c0-4.16-2.42-8.47-2.42-12.88Z"/>
        <path class="cls-173" d="m207.14,60.19c0-4.38,2.41-8.66,2.41-12.79v8.86h233v-8.86c0,4.13,2.4,8.4,2.4,12.79s-2.4,8.66-2.4,12.79v-6.71h-233v6.71c0-4.13-2.41-8.4-2.41-12.79Z"/>
        <path class="cls-173" d="m210.16,60.19c0-4.35-.61-8.6,2.39-12.7v8.78h228v-8.78c2,4.11,2.38,8.35,2.38,12.7s-.38,8.6-2.38,12.7v-6.63h-228v6.63c-3-4.11-2.39-8.35-2.39-12.7Z"/>
        <path class="cls-20" d="m210.18,60.19c0-4.32-.63-8.54,2.37-12.61v8.69h228v-8.69c2,4.07,2.37,8.29,2.37,12.61s-.37,8.54-2.37,12.61v-6.53h-228v6.53c-3-4.07-2.37-8.29-2.37-12.61Z"/>
        <path class="cls-77" d="m210.2,60.19c0-4.29,2.35-8.48,2.35-12.52v8.6h228v-8.6c0,4.03,2.36,8.23,2.36,12.52s-2.36,8.48-2.36,12.52v-6.44h-228v6.44c0-4.04-2.35-8.23-2.35-12.52Z"/>
        <path class="cls-211" d="m211.21,60.19c0-4.26,1.34-8.42,2.34-12.44v8.52h224v-8.52c3,4.02,2.34,8.18,2.34,12.44s.66,8.42-2.34,12.44v-6.36h-224v6.36c-1-4.02-2.34-8.17-2.34-12.44Z"/>
        <path class="cls-106" d="m211.22,60.19c0-4.23,1.33-8.36,2.33-12.36v8.43h224v-8.43c3,4,2.32,8.12,2.32,12.36s.68,8.36-2.32,12.36v-6.28h-224v6.28c-1-4-2.33-8.12-2.33-12.36Z"/>
        <path class="cls-110" d="m211.24,60.19c0-4.2,2.3-8.3,2.3-12.26v8.34h224v-8.34c0,3.96,2.29,8.06,2.29,12.26s-2.29,8.3-2.29,12.26v-6.19h-224v6.19c0-3.96-2.3-8.06-2.3-12.26Z"/>
        <path class="cls-198" d="m214.26,60.19c0-4.17-.71-8.25,2.29-12.18v8.26h221v-8.26c0,3.93,2.29,8.01,2.29,12.18s-2.29,8.25-2.29,12.18v-6.1h-221v6.1c-3-3.93-2.29-8.01-2.29-12.18Z"/>
        <path class="cls-168" d="m214.28,60.19c0-4.14-.74-8.19,2.26-12.09v8.17h218v-8.17c3,3.9,2.28,7.95,2.28,12.09s.72,8.19-2.28,12.09v-6.01h-218v6.01c-3-3.9-2.26-7.95-2.26-12.09Z"/>
        <path class="cls-30" d="m214.29,60.19c0-4.11,2.25-8.12,2.25-12.01v8.08h218v-8.08c3,3.88,2.25,7.9,2.25,12.01s.75,8.12-2.25,12.01v-5.93h-218v5.93c0-3.88-2.25-7.9-2.25-12.01Z"/>
        <path class="cls-138" d="m214.3,60.19c0-4.08,2.24-8.07,2.24-11.91v7.99h218v-7.99c0,3.84,2.23,7.84,2.23,11.91s-2.23,8.07-2.23,11.92v-5.84h-218v5.84c0-3.84-2.24-7.84-2.24-11.92Z"/>
        <path class="cls-187" d="m215.96,60.19c0-8.1,2.59-15.83,8.59-22.85v18.92h201v-18.92c6,7.02,8.58,14.74,8.58,22.85s-2.58,15.83-8.58,22.85v-16.77h-201v16.77c-6-7.02-8.59-14.74-8.59-22.85Z"/>
        <path class="cls-172" d="m216.02,60.19c0-8.04,2.52-15.71,8.52-22.68v18.76h201v-18.76c6,6.98,8.52,14.64,8.52,22.68s-2.52,15.71-8.52,22.68v-16.61h-201v16.61c-6-6.98-8.52-14.64-8.52-22.68Z"/>
        <path class="cls-109" d="m219.09,60.19c0-7.99,2.45-15.59,8.45-22.51v18.59h197v-18.59c4,6.92,8.46,14.52,8.46,22.51s-4.46,15.59-8.46,22.51v-16.43h-197v16.43c-6-6.92-8.45-14.52-8.45-22.51Z"/>
        <path class="cls-162" d="m219.15,60.19c0-7.93,2.39-15.48,8.39-22.34v18.42h197v-18.42c4,6.86,8.4,14.42,8.4,22.34s-4.4,15.48-8.4,22.35v-16.27h-197v16.27c-6-6.86-8.39-14.42-8.39-22.35Z"/>
        <path class="cls-115" d="m219.2,60.19c0-7.87,2.34-15.36,8.34-22.17v18.25h197v-18.25c4,6.81,8.33,14.3,8.33,22.17s-4.33,15.36-8.33,22.17v-16.09h-197v16.09c-6-6.81-8.34-14.3-8.34-22.17Z"/>
        <path class="cls-100" d="m222.28,60.19c0-7.81,2.27-15.24,8.27-22.01v18.08h194v-18.08c4,6.76,8.27,14.2,8.27,22.01s-4.27,15.25-8.27,22.01v-15.93h-194v15.93c-6-6.76-8.27-14.2-8.27-22.01Z"/>
        <path class="cls-194" d="m222.34,60.19c0-7.75,2.21-15.12,8.21-21.84v17.92h191v-17.92c4,6.72,8.21,14.1,8.21,21.84s-4.21,15.12-8.21,21.84v-15.76h-191v15.76c-6-6.72-8.21-14.09-8.21-21.84Z"/>
        <path class="cls-78" d="m222.41,60.19c0-7.68,2.14-15.01,8.14-21.67v17.75h191v-17.75c4,6.66,8.14,13.98,8.14,21.67s-4.14,15.01-8.14,21.67v-15.59h-191v15.59c-6-6.66-8.14-13.98-8.14-21.67Z"/>
        <path class="cls-131" d="m222.46,60.19c0-7.62,2.08-14.9,8.08-21.5v17.58h191v-17.58c4,6.61,8.08,13.88,8.08,21.5s-4.08,14.9-8.08,21.5v-15.43h-191v15.43c-6-6.61-8.08-13.88-8.08-21.5Z"/>
        <path class="cls-107" d="m225.52,60.19c0-7.57,2.02-14.77,8.02-21.34v17.42h185v-17.42c6,6.57,8.01,13.77,8.01,21.34s-2.01,14.78-8.01,21.34v-15.26h-185v15.26c-6-6.57-8.02-13.77-8.02-21.34Z"/>
        <path class="cls-58" d="m225.59,60.19c0-7.51,1.95-14.66,7.95-21.17v17.24h185v-17.24c6,6.51,7.96,13.66,7.96,21.17s-1.96,14.66-7.96,21.17v-15.09h-185v15.09c-6-6.51-7.95-13.66-7.95-21.17Z"/>
        <path class="cls-134" d="m225.66,60.19c0-7.45,1.89-14.55,7.89-21v17.08h185v-17.08c6,6.46,7.89,13.55,7.89,21s-1.89,14.55-7.89,21v-14.92h-185v14.92c-6-6.45-7.89-13.56-7.89-21Z"/>
        <path class="cls-217" d="m228.72,60.19c0-7.39,1.83-14.43,7.83-20.83v16.91h182v-16.91c3,6.4,7.83,13.44,7.83,20.83s-4.83,14.43-7.83,20.83v-14.75h-182v14.75c-6-6.4-7.83-13.44-7.83-20.83Z"/>
        <path class="cls-195" d="m228.78,60.19c0-7.33,1.77-14.31,7.77-20.67v16.74h180v-16.74c5,6.35,7.77,13.33,7.77,20.67s-2.77,14.31-7.77,20.67v-14.59h-180v14.59c-6-6.35-7.77-13.33-7.77-20.67Z"/>
        <path class="cls-95" d="m228.84,60.19c0-7.27,1.7-14.2,7.7-20.5v16.58h180v-16.58c5,6.3,7.7,13.23,7.7,20.5s-2.7,14.2-7.7,20.5v-14.42h-180v14.42c-6-6.3-7.7-13.23-7.7-20.5Z"/>
        <path class="cls-188" d="m228.91,60.19c0-7.21,4.63-14.08,7.63-20.33v16.4h180v-16.4c5,6.25,7.64,13.11,7.64,20.33s-2.64,14.08-7.64,20.33v-14.25h-180v14.25c-3-6.25-7.63-13.11-7.63-20.33Z"/>
        <path class="cls-156" d="m229.97,60.19c0-7.15,3.57-13.96,7.57-20.16v16.24h176v-16.24c5,6.2,7.57,13.01,7.57,20.16s-2.57,13.96-7.57,20.16v-14.09h-176v14.09c-4-6.2-7.57-13.01-7.57-20.16Z"/>
        <path class="cls-10" d="m230.03,60.19c0-7.09,3.51-13.85,7.51-20v16.08h176v-16.08c5,6.15,7.51,12.91,7.51,20s-2.51,13.85-7.51,20v-13.92h-176v13.92c-4-6.15-7.51-12.91-7.51-20Z"/>
        <path class="cls-208" d="m230.09,60.19c0-7.03,3.45-13.73,7.45-19.82v15.9h176v-15.9c5,6.1,7.46,12.8,7.46,19.82s-2.46,13.73-7.46,19.83v-13.75h-176v13.75c-4-6.1-7.45-12.8-7.45-19.83Z"/>
        <path class="cls-129" d="m233.16,60.19c0-6.97,3.39-13.62,7.39-19.65v15.73h173v-15.73c3,6.04,7.39,12.68,7.39,19.65s-4.39,13.62-7.39,19.65v-13.57h-173v13.57c-4-6.04-7.39-12.68-7.39-19.65Z"/>
        <path class="cls-114" d="m233.22,60.19c0-6.92,3.33-13.5,7.33-19.49v15.56h170v-15.56c6,5.98,7.33,12.57,7.33,19.49s-1.33,13.5-7.33,19.49v-13.41h-170v13.41c-4-5.98-7.33-12.57-7.33-19.49Z"/>
        <path class="cls-97" d="m233.28,60.19c0-6.85,3.26-13.38,7.26-19.32v15.4h170v-15.4c6,5.94,7.25,12.47,7.25,19.32s-1.25,13.38-7.25,19.32v-13.25h-170v13.25c-4-5.94-7.26-12.47-7.26-19.32Z"/>
        <path class="cls-19" d="m233.35,60.19c0-6.79,4.19-13.27,7.19-19.15v15.23h170v-15.23c3,5.88,7.19,12.36,7.19,19.15s-4.19,13.27-7.19,19.15v-13.07h-170v13.07c-3-5.88-7.19-12.36-7.19-19.15Z"/>
        <path class="cls-55" d="m236.41,60.19c0-6.73,1.13-13.14,7.13-18.99v15.06h164v-15.06c6,5.84,7.14,12.25,7.14,18.99s-1.14,13.15-7.14,18.99v-12.91h-164v12.91c-6-5.84-7.13-12.25-7.13-18.99Z"/>
        <path class="cls-150" d="m236.48,60.19c0-6.68,1.07-13.03,7.07-18.82v14.9h164v-14.9c6,5.79,7.07,12.14,7.07,18.82s-1.07,13.03-7.07,18.82v-12.74h-164v12.74c-6-5.79-7.07-12.14-7.07-18.82Z"/>
        <path class="cls-111" d="m236.54,60.19c0-6.62,4.01-12.92,7.01-18.65v14.72h164v-14.72c6,5.73,7.01,12.03,7.01,18.65s-1.01,12.92-7.01,18.65v-12.57h-164v12.57c-3-5.73-7.01-12.03-7.01-18.65Z"/>
        <path class="cls-40" d="m239.6,60.19c0-6.56.95-12.81,6.95-18.48v14.56h161v-14.56c3,5.67,6.94,11.92,6.94,18.48s-3.94,12.81-6.94,18.48v-12.4h-161v12.4c-6-5.68-6.95-11.92-6.95-18.48Z"/>
        <path class="cls-122" d="m239.67,60.19c0-6.5.88-12.68,6.88-18.31v14.39h160v-14.39c4,5.62,6.88,11.81,6.88,18.31s-2.88,12.68-6.88,18.31v-12.23h-160v12.23c-6-5.62-6.88-11.81-6.88-18.31Z"/>
        <path class="cls-147" d="m239.73,60.19c0-6.43.81-12.57,6.81-18.14v14.22h160v-14.22c4,5.57,6.82,11.71,6.82,18.14s-2.82,12.57-6.82,18.14v-12.07h-160v12.07c-6-5.57-6.81-11.71-6.81-18.14Z"/>
        <path class="cls-157" d="m239.78,60.19c0-6.37,3.76-12.45,6.76-17.98v14.06h160v-14.06c1,5.53,6.75,11.61,6.75,17.98s-5.75,12.45-6.75,17.98v-11.9h-160v11.9c-3-5.53-6.76-11.61-6.76-17.98Z"/>
        <path class="cls-104" d="m240.85,60.19c0-6.31,2.69-12.33,6.69-17.81v13.88h156v-13.88c4,5.47,6.69,11.5,6.69,17.81s-2.69,12.33-6.69,17.81v-11.73h-156v11.73c-4-5.47-6.69-11.5-6.69-17.81Z"/>
        <path class="cls-215" d="m240.91,60.19c0-6.26,2.63-12.22,6.63-17.64v13.72h156v-13.72c4,5.42,6.62,11.38,6.62,17.64s-2.62,12.22-6.62,17.64v-11.56h-156v11.56c-4-5.42-6.63-11.38-6.63-17.64Z"/>
        <path class="cls-13" d="m240.99,60.19c0-6.2,5.56-12.1,6.56-17.48v13.56h156v-13.56c4,5.38,6.57,11.28,6.57,17.48s-2.57,12.1-6.57,17.48v-11.4h-156v11.4c-1-5.38-6.56-11.28-6.56-17.48Z"/>
        <path class="cls-169" d="m241.05,60.19c0-6.14,5.5-11.99,6.5-17.3v13.38h156v-13.38c3,5.32,6.51,11.17,6.51,17.3s-3.51,11.99-6.51,17.3v-11.23h-156v11.23c-1-5.32-6.5-11.17-6.5-17.3Z"/>
        <path class="cls-3" d="m244.1,60.19c0-6.08,2.44-11.86,6.44-17.14v13.22h150v-13.22c6,5.28,6.43,11.07,6.43,17.14s-.43,11.86-6.43,17.14v-11.06h-150v11.06c-4-5.28-6.44-11.07-6.44-17.14Z"/>
        <path class="cls-155" d="m244.17,60.19c0-6.02,2.37-11.75,6.37-16.97v13.04h150v-13.04c6,5.21,6.38,10.94,6.38,16.97s-.38,11.75-6.38,16.97v-10.89h-150v10.89c-4-5.21-6.37-10.94-6.37-16.97Z"/>
        <path class="cls-73" d="m244.23,60.19c0-5.96,3.31-11.64,6.31-16.8v12.88h150v-12.88c3,5.16,6.31,10.84,6.31,16.8s-3.31,11.64-6.31,16.8v-10.72h-150v10.72c-3-5.16-6.31-10.84-6.31-16.8Z"/>
        <path class="cls-51" d="m247.29,60.19c0-5.9.25-11.52,6.25-16.64v12.71h144v-12.71c6,5.12,6.25,10.74,6.25,16.64s-.25,11.52-6.25,16.64v-10.56h-144v10.56c-6-5.12-6.25-10.74-6.25-16.64Z"/>
        <path class="cls-85" d="m247.36,60.19c0-5.84.19-11.4,6.19-16.46v12.54h144v-12.54c6,5.06,6.19,10.62,6.19,16.46s-.19,11.4-6.19,16.46v-10.39h-144v10.39c-6-5.06-6.19-10.62-6.19-16.46Z"/>
        <path class="cls-176" d="m247.42,60.19c0-5.78,3.13-11.29,6.13-16.3v12.38h144v-12.38c3,5.01,6.12,10.52,6.12,16.3s-3.12,11.29-6.12,16.3v-10.22h-144v10.22c-3-5.01-6.13-10.52-6.13-16.3Z"/>
        <path class="cls-21" d="m247.49,60.19c0-5.72,3.06-11.17,6.06-16.12v12.2h144v-12.2c3,4.96,6.06,10.41,6.06,16.12s-3.06,11.17-6.06,16.13v-10.05h-144v10.05c-3-4.96-6.06-10.41-6.06-16.13Z"/>
        <path class="cls-140" d="m250.55,60.19c0-5.67,0-11.05,5.99-15.96v12.04h138v-12.04c6,4.91,6,10.3,6,15.96s0,11.05-6,15.96v-9.88h-138v9.88c-6-4.91-5.99-10.3-5.99-15.96Z"/>
        <path class="cls-25" d="m250.61,60.19c0-5.6,2.93-10.94,5.93-15.79v11.87h138v-11.87c6,4.85,5.93,10.18,5.93,15.79s.07,10.94-5.93,15.79v-9.71h-138v9.71c-3-4.85-5.93-10.18-5.93-15.79Z"/>
        <path class="cls-135" d="m250.67,60.19c0-5.54,2.87-10.82,5.87-15.62v11.7h138v-11.7c3,4.8,5.88,10.08,5.88,15.62s-2.88,10.82-5.88,15.62v-9.55h-138v9.55c-3-4.8-5.87-10.08-5.87-15.62Z"/>
        <path class="cls-112" d="m253.73,60.19c0-5.48-.19-10.71,5.81-15.46v11.54h135v-11.54c3,4.75,5.81,9.98,5.81,15.46s-2.81,10.71-5.81,15.46v-9.38h-135v9.38c-6-4.75-5.81-9.98-5.81-15.46Z"/>
        <path class="cls-105" d="m253.81,60.19c0-5.42-.26-10.59,5.74-15.29v11.37h134v-11.37c4,4.69,5.75,9.87,5.75,15.29s-1.75,10.59-5.75,15.29v-9.21h-134v9.21c-6-4.69-5.74-9.87-5.74-15.29Z"/>
        <path class="cls-181" d="m253.86,60.19c0-5.37,2.69-10.47,5.69-15.12v11.2h134v-11.2c1,4.65,5.68,9.75,5.68,15.12s-4.68,10.47-5.68,15.12v-9.04h-134v9.04c-3-4.65-5.69-9.75-5.69-15.12Z"/>
        <path class="cls-179" d="m253.93,60.19c0-5.31,2.62-10.36,5.62-14.96v11.04h134v-11.04c1,4.6,5.61,9.65,5.61,14.96s-4.61,10.36-5.61,14.96v-8.88h-134v8.88c-3-4.6-5.62-9.65-5.62-14.96Z"/>
        <path class="cls-50" d="m255.99,60.19c0-5.25.55-10.25,5.55-14.78v10.86h129v-10.86c4,4.54,5.55,9.54,5.55,14.78s-1.55,10.25-5.55,14.79v-8.71h-129v8.71c-5-4.54-5.55-9.54-5.55-14.79Z"/>
        <path class="cls-80" d="m256.05,60.19c0-5.19,3.49-10.12,5.49-14.62v10.7h129v-10.7c3,4.5,5.49,9.43,5.49,14.62s-2.49,10.12-5.49,14.62v-8.54h-129v8.54c-2-4.5-5.49-9.44-5.49-14.62Z"/>
        <path class="cls-205" d="m256.12,60.19c0-5.12,3.42-10.01,5.42-14.45v10.52h129v-10.52c3,4.44,5.43,9.33,5.43,14.45s-2.43,10.01-5.43,14.45v-8.37h-129v8.37c-2-4.44-5.42-9.32-5.42-14.45Z"/>
        <path class="cls-49" d="m259.17,60.19c0-5.06.37-9.89,5.37-14.28v10.36h126v-10.36c3,4.39,5.36,9.22,5.36,14.28s-2.36,9.89-5.36,14.28v-8.2h-126v8.2c-5-4.39-5.37-9.22-5.37-14.28Z"/>
        <path class="cls-102" d="m259.25,60.19c0-5.01,2.3-9.77,5.3-14.11v10.19h123v-10.19c6,4.33,5.31,9.1,5.31,14.11s.69,9.77-5.31,14.11v-8.03h-123v8.03c-3-4.33-5.3-9.1-5.3-14.11Z"/>
        <path class="cls-149" d="m259.31,60.19c0-4.95,2.24-9.66,5.24-13.94v10.02h123v-10.02c3,4.28,5.25,9,5.25,13.94s-2.25,9.66-5.25,13.94v-7.87h-123v7.87c-3-4.28-5.24-9-5.24-13.94Z"/>
        <path class="cls-146" d="m259.36,60.19c0-4.89,2.19-9.54,5.19-13.78v9.86h123v-9.86c3,4.24,5.17,8.89,5.17,13.78s-2.17,9.54-5.17,13.78v-7.7h-123v7.7c-3-4.24-5.19-8.9-5.19-13.78Z"/>
        <path class="cls-101" d="m262.43,60.19c0-4.83-.89-9.43,5.11-13.61v9.68h117v-9.68c6,4.18,5.11,8.78,5.11,13.61s.89,9.43-5.11,13.61v-7.53h-117v7.53c-6-4.18-5.11-8.78-5.11-13.61Z"/>
        <path class="cls-119" d="m262.49,60.19c0-4.76,2.05-9.31,5.05-13.44v9.52h117v-9.52c3,4.13,5.04,8.68,5.04,13.44s-2.04,9.31-5.04,13.44v-7.36h-117v7.36c-3-4.13-5.05-8.68-5.05-13.44Z"/>
        <path class="cls-219" d="m262.57,60.19c0-4.71,1.98-9.19,4.98-13.27v9.34h117v-9.34c3,4.08,4.99,8.55,4.99,13.27s-1.99,9.19-4.99,13.27v-7.19h-117v7.19c-3-4.08-4.98-8.56-4.98-13.27Z"/>
        <path class="cls-82" d="m265.62,60.19c0-4.65-1.08-9.08,4.92-13.1v9.18h114v-9.18c3,4.03,4.93,8.45,4.93,13.1s-1.93,9.08-4.93,13.1v-7.03h-114v7.03c-6-4.03-4.92-8.45-4.92-13.1Z"/>
        <path class="cls-88" d="m265.69,60.19c0-4.59,1.86-8.95,4.86-12.94v9.02h112v-9.02c2,3.99,4.86,8.35,4.86,12.94s-2.86,8.96-4.86,12.94v-6.86h-112v6.86c-3-3.99-4.86-8.35-4.86-12.94Z"/>
        <path class="cls-189" d="m265.75,60.19c0-4.53,1.8-8.84,4.8-12.76v8.84h112v-8.84c2,3.92,4.8,8.24,4.8,12.76s-2.8,8.84-4.8,12.76v-6.69h-112v6.69c-3-3.92-4.8-8.24-4.8-12.76Z"/>
        <path class="cls-139" d="m264.9,60.19c0-8.93,6.64-17.03,17.64-22.89v18.97h85v-18.97c12,5.86,17.64,13.96,17.64,22.89s-5.64,17.03-17.64,22.89v-16.81h-85v16.81c-11-5.86-17.64-13.95-17.64-22.89Z"/>
        <path class="cls-7" d="m267.14,60.19c0-8.82,4.41-16.8,17.41-22.58v18.66h83v-18.66c12,5.78,17.41,13.76,17.41,22.58s-5.41,16.8-17.41,22.58v-16.5h-83v16.5c-13-5.78-17.41-13.76-17.41-22.58Z"/>
        <path class="cls-37" d="m267.37,60.19c0-8.7,7.17-16.58,17.17-22.28v18.36h82v-18.36c10,5.71,17.18,13.59,17.18,22.28s-7.18,16.58-17.18,22.28v-16.21h-82v16.21c-10-5.71-17.17-13.59-17.17-22.28Z"/>
        <path class="cls-6" d="m267.6,60.19c0-8.59,6.95-16.35,16.95-21.97v18.05h82v-18.05c10,5.62,16.94,13.39,16.94,21.97s-6.94,16.35-16.94,21.98v-15.9h-82v15.9c-10-5.62-16.95-13.39-16.95-21.98Z"/>
        <path class="cls-90" d="m267.84,60.19c0-8.46,6.7-16.12,16.7-21.67v17.75h82v-17.75c10,5.54,16.71,13.21,16.71,21.67s-6.71,16.13-16.71,21.67v-15.59h-82v15.59c-10-5.54-16.7-13.2-16.7-21.67Z"/>
        <path class="cls-46" d="m268.08,60.19c0-8.34,9.46-15.9,16.46-21.36v17.44h82v-17.44c10,5.46,16.47,13.02,16.47,21.36s-6.47,15.9-16.47,21.36v-15.28h-82v15.28c-7-5.46-16.46-13.02-16.46-21.36Z"/>
        <path class="cls-83" d="m271.31,60.19c0-8.23,6.24-15.68,16.24-21.06v17.14h79v-17.14c7,5.39,16.23,12.84,16.23,21.06s-9.23,15.67-16.23,21.07v-14.99h-79v14.99c-10-5.39-16.24-12.84-16.24-21.07Z"/>
        <path class="cls-117" d="m271.55,60.19c0-8.1,5.99-15.44,15.99-20.76v16.83h76v-16.83c10,5.32,16,12.65,16,20.76s-6,15.44-16,20.76v-14.68h-76v14.68c-10-5.32-15.99-12.65-15.99-20.76Z"/>
        <path class="cls-9" d="m271.78,60.19c0-7.99,5.77-15.21,15.77-20.45v16.53h76v-16.53c10,5.23,15.76,12.46,15.76,20.45s-5.76,15.21-15.76,20.45v-14.37h-76v14.37c-10-5.24-15.77-12.46-15.77-20.45Z"/>
        <path class="cls-166" d="m272.02,60.19c0-7.87,7.52-14.99,15.52-20.14v16.22h76v-16.22c10,5.15,15.53,12.27,15.53,20.14s-5.53,14.99-15.53,20.14v-14.07h-76v14.07c-8-5.15-15.52-12.28-15.52-20.14Z"/>
        <path class="cls-89" d="m272.25,60.19c0-7.75,7.3-14.76,15.3-19.83v15.91h76v-15.91c7,5.07,15.29,12.09,15.29,19.83s-8.29,14.76-15.29,19.84v-13.76h-76v13.76c-8-5.07-15.3-12.09-15.3-19.84Z"/>
        <path class="cls-216" d="m275.48,60.19c0-7.62,4.06-14.54,15.06-19.53v15.61h70v-15.61c10,4.99,15.06,11.91,15.06,19.53s-5.06,14.54-15.06,19.53v-13.45h-70v13.45c-11-4.99-15.06-11.9-15.06-19.53Z"/>
        <path class="cls-206" d="m275.73,60.19c0-7.51,3.81-14.3,14.81-19.23v15.31h70v-15.31c10,4.93,14.83,11.72,14.83,19.23s-4.83,14.3-14.83,19.23v-13.15h-70v13.15c-11-4.93-14.81-11.72-14.81-19.23Z"/>
        <path class="cls-152" d="m275.95,60.19c0-7.39,6.59-14.08,14.59-18.92v15h70v-15c7,4.85,14.58,11.54,14.58,18.92s-7.58,14.08-14.58,18.92v-12.85h-70v12.85c-8-4.85-14.59-11.54-14.59-18.92Z"/>
        <path class="cls-70" d="m276.2,60.19c0-7.27,6.34-13.85,14.34-18.62v14.69h70v-14.69c7,4.76,14.35,11.34,14.35,18.62s-7.35,13.85-14.35,18.62v-12.54h-70v12.54c-8-4.77-14.34-11.34-14.34-18.62Z"/>
        <path class="cls-127" d="m279.43,60.19c0-7.15,3.12-13.62,14.12-18.31v14.39h67v-14.39c7,4.68,14.11,11.16,14.11,18.31s-7.11,13.63-14.11,18.31v-12.23h-67v12.23c-11-4.68-14.12-11.16-14.12-18.31Z"/>
        <path class="cls-130" d="m279.66,60.19c0-7.03,4.88-13.4,13.88-18.01v14.09h66v-14.09c8,4.61,13.87,10.98,13.87,18.01s-5.87,13.4-13.87,18.01v-11.93h-66v11.93c-9-4.61-13.88-10.98-13.88-18.01Z"/>
        <path class="cls-178" d="m279.9,60.19c0-6.92,4.65-13.18,13.65-17.71v13.78h66v-13.78c7,4.53,13.65,10.79,13.65,17.71s-6.65,13.18-13.65,17.71v-11.63h-66v11.63c-9-4.53-13.65-10.79-13.65-17.71Z"/>
        <path class="cls-121" d="m280.13,60.19c0-6.79,4.41-12.95,13.41-17.4v13.47h66v-13.47c7,4.45,13.41,10.6,13.41,17.4s-6.41,12.95-13.41,17.4v-11.32h-66v11.32c-9-4.45-13.41-10.6-13.41-17.4Z"/>
        <path class="cls-132" d="m280.37,60.19c0-6.68,4.17-12.71,13.17-17.09v13.17h66v-13.17c7,4.37,13.18,10.41,13.18,17.09s-6.18,12.71-13.18,17.09v-11.01h-66v11.01c-9-4.37-13.17-10.41-13.17-17.09Z"/>
        <path class="cls-86" d="m282.6,60.19c0-6.56,4.94-12.49,12.94-16.78v12.86h61v-12.86c10,4.29,12.93,10.22,12.93,16.78s-2.93,12.49-12.93,16.78v-10.7h-61v10.7c-8-4.29-12.94-10.22-12.94-16.78Z"/>
        <path class="cls-212" d="m282.84,60.19c0-6.43,4.7-12.26,12.7-16.48v12.56h61v-12.56c7,4.22,12.7,10.05,12.7,16.48s-5.7,12.26-12.7,16.49v-10.41h-61v10.41c-8-4.22-12.7-10.05-12.7-16.49Z"/>
        <ellipse class="cls-27" cx="325.87" cy="60.19" rx="42.57" ry="22.88"/>
        <path class="cls-137" d="m284.1,60.19c0-12.4,18.7-22.45,41.77-22.45s41.76,10.05,41.76,22.45-18.7,22.45-41.76,22.45-41.77-10.05-41.77-22.45Z"/>
        <path class="cls-99" d="m284.9,60.19c0-12.16,18.35-22.01,40.97-22.01s40.96,9.85,40.96,22.01-18.34,22.01-40.96,22.01-40.97-9.84-40.97-22.01Z"/>
        <path class="cls-210" d="m285.71,60.19c0-11.91,17.98-21.58,40.16-21.58s40.15,9.66,40.15,21.58-17.97,21.58-40.15,21.58-40.16-9.66-40.16-21.58Z"/>
        <path class="cls-62" d="m286.51,60.19c0-11.68,17.62-21.15,39.36-21.15s39.35,9.47,39.35,21.15-17.62,21.15-39.35,21.15-39.36-9.47-39.36-21.15Z"/>
        <path class="cls-1" d="m287.32,60.19c0-11.45,17.25-20.72,38.55-20.72s38.55,9.27,38.55,20.72-17.26,20.72-38.55,20.72-38.55-9.27-38.55-20.72Z"/>
        <path class="cls-197" d="m288.12,60.19c0-11.21,16.9-20.29,37.75-20.29s37.74,9.08,37.74,20.29-16.9,20.29-37.74,20.29-37.75-9.08-37.75-20.29Z"/>
        <path class="cls-71" d="m288.92,60.19c0-10.96,16.54-19.85,36.95-19.85s36.95,8.89,36.95,19.85-16.55,19.86-36.95,19.86-36.95-8.89-36.95-19.86Z"/>
        <path class="cls-191" d="m289.73,60.19c0-10.73,16.18-19.42,36.15-19.42s36.14,8.7,36.14,19.42-16.19,19.43-36.14,19.43-36.15-8.7-36.15-19.43Z"/>
        <path class="cls-12" d="m290.52,60.19c0-10.49,15.83-19,35.35-19s35.34,8.5,35.34,19-15.82,18.99-35.34,18.99-35.35-8.5-35.35-18.99Z"/>
        <ellipse class="cls-17" cx="325.87" cy="60.19" rx="34.54" ry="18.56"/>
        <path class="cls-116" d="m292.14,60.19c0-10.01,15.1-18.12,33.74-18.12s33.73,8.11,33.73,18.12-15.1,18.12-33.73,18.12-33.74-8.12-33.74-18.12Z"/>
        <path class="cls-87" d="m292.93,60.19c0-9.77,14.75-17.69,32.94-17.69s32.93,7.92,32.93,17.69-14.74,17.7-32.93,17.7-32.94-7.92-32.94-17.7Z"/>
        <path class="cls-183" d="m293.74,60.19c0-9.54,14.38-17.26,32.13-17.26s32.13,7.73,32.13,17.26-14.38,17.26-32.13,17.26-32.13-7.72-32.13-17.26Z"/>
        <path class="cls-185" d="m294.54,60.19c0-9.29,14.03-16.83,31.33-16.83s31.32,7.54,31.32,16.83-14.03,16.83-31.32,16.83-31.33-7.54-31.33-16.83Z"/>
        <ellipse class="cls-15" cx="325.87" cy="60.19" rx="30.52" ry="16.4"/>
        <path class="cls-218" d="m296.15,60.19c0-8.82,13.31-15.97,29.72-15.97s29.71,7.15,29.71,15.97-13.3,15.97-29.71,15.97-29.72-7.15-29.72-15.97Z"/>
        <path class="cls-113" d="m296.95,60.19c0-8.59,12.95-15.54,28.92-15.54s28.91,6.95,28.91,15.54-12.94,15.54-28.91,15.54-28.92-6.96-28.92-15.54Z"/>
        <path class="cls-136" d="m297.76,60.19c0-8.34,12.58-15.1,28.11-15.1s28.11,6.76,28.11,15.1-12.59,15.1-28.11,15.1-28.11-6.76-28.11-15.1Z"/>
        <path class="cls-61" d="m298.56,60.19c0-8.1,12.23-14.67,27.31-14.67s27.3,6.57,27.3,14.67-12.22,14.67-27.3,14.67-27.31-6.57-27.31-14.67Z"/>
        <path class="cls-98" d="m299.37,60.19c0-7.87,11.86-14.24,26.5-14.24s26.5,6.37,26.5,14.24-11.86,14.24-26.5,14.24-26.5-6.37-26.5-14.24Z"/>
        <path class="cls-75" d="m300.17,60.19c0-7.62,11.51-13.81,25.71-13.81s25.69,6.19,25.69,13.81-11.5,13.81-25.69,13.81-25.71-6.19-25.71-13.81Z"/>
        <path class="cls-60" d="m300.96,60.19c0-7.39,11.15-13.38,24.91-13.38s24.9,6,24.9,13.38-11.15,13.38-24.9,13.38-24.91-6-24.91-13.38Z"/>
        <path class="cls-47" d="m301.78,60.19c0-7.15,10.79-12.95,24.1-12.95s24.1,5.8,24.1,12.95-10.79,12.95-24.1,12.95-24.1-5.8-24.1-12.95Z"/>
        <path class="cls-124" d="m302.57,60.19c0-6.92,10.43-12.52,23.3-12.52s23.29,5.6,23.29,12.52-10.43,12.52-23.29,12.52-23.3-5.6-23.3-12.52Z"/>
        <path class="cls-57" d="m303.38,60.19c0-6.68,10.06-12.09,22.49-12.09s22.49,5.41,22.49,12.09-10.07,12.09-22.49,12.09-22.49-5.41-22.49-12.09Z"/>
        <path class="cls-5" d="m304.18,60.19c0-6.43,9.71-11.66,21.69-11.66s21.69,5.23,21.69,11.66-9.71,11.66-21.69,11.66-21.69-5.22-21.69-11.66Z"/>
        <path class="cls-148" d="m304.98,60.19c0-6.2,9.35-11.22,20.89-11.22s20.88,5.02,20.88,11.22-9.36,11.22-20.88,11.22-20.89-5.02-20.89-11.22Z"/>
        <path class="cls-69" d="m305.79,60.19c0-5.96,8.99-10.79,20.08-10.79s20.08,4.83,20.08,10.79-9,10.79-20.08,10.79-20.08-4.83-20.08-10.79Z"/>
        <path class="cls-96" d="m306.59,60.19c0-5.72,8.64-10.36,19.28-10.36s19.27,4.64,19.27,10.36-8.63,10.36-19.27,10.36-19.28-4.64-19.28-10.36Z"/>
        <path class="cls-174" d="m307.4,60.19c0-5.48,8.27-9.93,18.47-9.93s18.47,4.45,18.47,9.93-8.27,9.93-18.47,9.93-18.47-4.45-18.47-9.93Z"/>
        <path class="cls-81" d="m308.2,60.19c0-5.25,7.91-9.5,17.67-9.5s17.67,4.25,17.67,9.5-7.92,9.5-17.67,9.5-17.67-4.25-17.67-9.5Z"/>
        <path class="cls-196" d="m309,60.19c0-5.01,7.56-9.07,16.87-9.07s16.86,4.06,16.86,9.07-7.55,9.07-16.86,9.07-16.87-4.06-16.87-9.07Z"/>
        <path class="cls-160" d="m309.81,60.19c0-4.76,7.19-8.63,16.06-8.63s16.06,3.86,16.06,8.63-7.19,8.63-16.06,8.63-16.06-3.86-16.06-8.63Z"/>
        <path class="cls-53" d="m310.61,60.19c0-4.53,6.83-8.2,15.27-8.2s15.26,3.67,15.26,8.2-6.83,8.2-15.26,8.2-15.27-3.67-15.27-8.2Z"/>
        <path class="cls-175" d="m311.42,60.19c0-4.29,6.46-7.77,14.46-7.77s14.46,3.47,14.46,7.77-6.48,7.77-14.46,7.77-14.46-3.47-14.46-7.77Z"/>
        <path class="cls-28" d="m312.22,60.19c0-4.06,6.11-7.33,13.66-7.33s13.66,3.28,13.66,7.33-6.12,7.34-13.66,7.34-13.66-3.28-13.66-7.34Z"/>
        <path class="cls-4" d="m313.01,60.19c0-3.81,5.76-6.91,12.86-6.91s12.85,3.09,12.85,6.91-5.75,6.91-12.85,6.91-12.86-3.09-12.86-6.91Z"/>
        <path class="cls-159" d="m313.82,60.19c0-3.57,5.39-6.47,12.05-6.47s12.05,2.9,12.05,6.47-5.4,6.48-12.05,6.48-12.05-2.9-12.05-6.48Z"/>
        <path class="cls-204" d="m314.62,60.19c0-3.34,5.04-6.04,11.25-6.04s11.24,2.71,11.24,6.04-5.03,6.04-11.24,6.04-11.25-2.7-11.25-6.04Z"/>
        <path class="cls-204" d="m315.43,60.19c0-3.09,4.67-5.62,10.44-5.62s10.44,2.52,10.44,5.62-4.67,5.62-10.44,5.62-10.44-2.52-10.44-5.62Z"/>
        <path class="cls-24" d="m316.23,60.19c0-2.86,4.31-5.19,9.64-5.19s9.64,2.33,9.64,5.19-4.32,5.18-9.64,5.18-9.64-2.33-9.64-5.18Z"/>
        <path class="cls-66" d="m317.03,60.19c0-2.62,3.95-4.74,8.84-4.74s8.83,2.12,8.83,4.74-3.95,4.74-8.83,4.74-8.84-2.12-8.84-4.74Z"/>
        <path class="cls-72" d="m317.84,60.19c0-2.39,3.6-4.31,8.03-4.31s8.03,1.93,8.03,4.31-3.59,4.31-8.03,4.31-8.03-1.93-8.03-4.31Z"/>
        <path class="cls-151" d="m318.64,60.19c0-2.14,3.24-3.88,7.23-3.88s7.22,1.74,7.22,3.88-3.24,3.88-7.22,3.88-7.23-1.74-7.23-3.88Z"/>
        <path class="cls-151" d="m319.45,60.19c0-1.91,2.87-3.45,6.42-3.45s6.42,1.54,6.42,3.45-2.88,3.45-6.42,3.45-6.42-1.55-6.42-3.45Z"/>
        <path class="cls-184" d="m320.25,60.19c0-1.67,2.52-3.02,5.63-3.02s5.62,1.35,5.62,3.02-2.52,3.02-5.62,3.02-5.63-1.35-5.63-3.02Z"/>
        <path class="cls-165" d="m321.05,60.19c0-1.43,2.16-2.59,4.83-2.59s4.81,1.16,4.81,2.59-2.16,2.59-4.81,2.59-4.83-1.16-4.83-2.59Z"/>
        <path class="cls-192" d="m321.86,60.19c0-1.19,1.79-2.16,4.02-2.16s4.02.97,4.02,2.16-1.8,2.16-4.02,2.16-4.02-.97-4.02-2.16Z"/>
        <path class="cls-42" d="m322.65,60.19c0-.95,1.44-1.72,3.22-1.72s3.21.77,3.21,1.72-1.43,1.72-3.21,1.72-3.22-.77-3.22-1.72Z"/>
        <path class="cls-108" d="m323.46,60.19c0-.72,1.08-1.29,2.41-1.29s2.41.57,2.41,1.29-1.08,1.29-2.41,1.29-2.41-.57-2.41-1.29Z"/>
        <path class="cls-108" d="m324.26,60.19c0-.47.72-.86,1.61-.86s1.61.39,1.61.86-.73.86-1.61.86-1.61-.39-1.61-.86Z"/>
        <path class="cls-108" d="m325.06,60.19c0-.24.37-.43.81-.43s.8.19.8.43-.36.43-.8.43-.81-.2-.81-.43Z"/>
      </g>
      <polygon class="cls-204" points="56.54 142.27 56.54 125.27 59.54 125.27 59.54 139.27 71.54 139.27 71.54 142.27 56.54 142.27"/>
      <polygon class="cls-204" points="649.54 56.27 649.54 71.27 646.54 71.27 646.54 57.27 633.54 57.27 633.54 56.27 649.54 56.27"/>
    </g>
  </g>
</svg>