<?xml version="1.0" encoding="UTF-8"?><svg id="b" xmlns="http://www.w3.org/2000/svg" xmlns:xlink="http://www.w3.org/1999/xlink" viewBox="0 0 758 165"><defs><filter id="e" filterUnits="userSpaceOnUse"><feOffset dx="0" dy="0"/><feGaussianBlur result="f" stdDeviation="5"/><feFlood flood-color="#fff" flood-opacity=".75"/><feComposite in2="f" operator="in"/><feComposite in="SourceGraphic"/></filter></defs><g id="c"><g id="d"><g style="opacity:.2;"><polygon points="689 35.41 689 165 57 165 57 0 626.29 0 689 35.41" style="fill:#2e368e; stroke-width:0px;"/></g><g style="opacity:.4;"><rect y="41" width="758" height="84" style="fill:#2e368e; stroke-width:0px;"/></g><g style="opacity:.1;"><rect x="405" width="2" height="161" style="fill:#f2f2f2; stroke-width:0px;"/></g><g style="opacity:.1;"><rect x="83" y="147" width="675" height="3" style="fill:#f2f2f2; stroke-width:0px;"/></g><rect x="97" y="5" width="79" height="2" style="fill:#f2f2f2; stroke-width:0px;"/><rect x="166" y="161" width="353" height="1" style="fill:#f2f2f2; stroke-width:0px;"/><rect x="210" y="5" width="47" height="2" style="fill:#f2f2f2; stroke-width:0px;"/><g style="opacity:.1;"><rect x="25" y="5" width="716" height="2" style="fill:#f2f2f2; stroke-width:0px;"/></g><rect x="537" y="5" width="45" height="2" style="fill:#f2f2f2; stroke-width:0px;"/><g style="opacity:.2;"><path d="m483,27h-11v-14h11v14Zm-10-2h9v-9h-9v9Z" style="fill:#29a9e1; stroke-width:0px;"/></g><g style="opacity:.2;"><path d="m181,46h-12v-11h12v11Zm-9-1h7v-9h-7v9Z" style="fill:#29a9e1; stroke-width:0px;"/></g><g style="opacity:.2;"><path d="m515,27h-12v-14h12v14Zm-10-2h8v-9h-8v9Z" style="fill:#29a9e1; stroke-width:0px;"/></g><g style="opacity:.2;"><path d="m302,135h-12v-11h12v11Zm-9-2h7v-8h-7v8Z" style="fill:#29a9e1; stroke-width:0px;"/></g><g style="opacity:.2;"><path d="m499,27h-12v-14h12v14Zm-8-2h7v-9h-7v9Z" style="fill:#29a9e1; stroke-width:0px;"/></g><text transform="translate(333.18 121.88)" style="fill:#6fcbdc; font-family:OpenSans, &apos;Open Sans&apos;; font-size:6.18px; opacity:.3;"><tspan x="0" y="0">Lorem Ipsum is simply </tspan><tspan x="0" y="7.42">dummy text </tspan></text><text transform="translate(639.34 117.93)" style="fill:#29a9e1; font-family:OpenSans, &apos;Open Sans&apos;; font-size:6.18px; opacity:.2;"><tspan x="0" y="0">Lorem Ipsum is simply </tspan><tspan x="0" y="7.42">dummy text of the printing</tspan><tspan x="0" y="14.84">industry. Lorem Ipsum </tspan><tspan x="0" y="22.26">has been </tspan></text><text transform="translate(63.89 102.99)" style="fill:#6fcbdc; filter:url(#e); font-family:Standard0757, &apos;standard 07_57&apos;; font-size:36px;"><tspan x="0" y="0">EMU.JS - Emulation</tspan></text></g></g></svg>