<?xml version="1.0" encoding="UTF-8"?><svg id="b" xmlns="http://www.w3.org/2000/svg" xmlns:xlink="http://www.w3.org/1999/xlink" viewBox="0 0 624 158.09"><defs><linearGradient id="e" x1="36.31" y1="100.75" x2="589.98" y2="100.75" gradientUnits="userSpaceOnUse"><stop offset="0" stop-color="#cadef1" stop-opacity="0"/><stop offset=".06" stop-color="#c2daef" stop-opacity=".04"/><stop offset=".15" stop-color="#add2ec" stop-opacity=".16"/><stop offset=".26" stop-color="#8bc5e6" stop-opacity=".36"/><stop offset=".4" stop-color="#5db2df" stop-opacity=".63"/><stop offset=".55" stop-color="#229bd5" stop-opacity=".97"/><stop offset=".57" stop-color="#1d99d5"/><stop offset=".87" stop-color="#0a75ba"/><stop offset=".99" stop-color="#005b95"/></linearGradient><linearGradient id="f" x1="0" y1="126.72" x2="491.86" y2="126.72" gradientUnits="userSpaceOnUse"><stop offset="0" stop-color="#cadef1" stop-opacity="0"/><stop offset=".06" stop-color="#c2daef" stop-opacity=".04"/><stop offset=".15" stop-color="#add2ec" stop-opacity=".16"/><stop offset=".27" stop-color="#8bc5e6" stop-opacity=".36"/><stop offset=".41" stop-color="#5db2df" stop-opacity=".63"/><stop offset=".57" stop-color="#229bd5" stop-opacity=".97"/><stop offset=".58" stop-color="#1d99d5"/><stop offset=".87" stop-color="#0a75ba"/><stop offset=".99" stop-color="#005b95"/></linearGradient><linearGradient id="g" x1="452.58" y1="23.31" x2="504.58" y2="23.31" xlink:href="#e"/><linearGradient id="h" x1="589.59" y1="103.82" x2="594.21" y2="103.82" xlink:href="#e"/></defs><g id="c"><path d="m177.12,86.5c-3.32,0-6.03-2.75-6.03-6.14v-4.56h-2.36v4.56c0,3.38-2.7,6.14-6.03,6.14s-6.03-2.75-6.03-6.14v-4.56h-4.17c-3.32,0-6.03-2.75-6.03-6.14s2.7-6.14,6.03-6.14h4.17v-2.4h-4.17c-3.32,0-6.03-2.75-6.03-6.14s2.7-6.14,6.03-6.14h4.17v-4.56c0-3.38,2.7-6.14,6.03-6.14s6.03,2.75,6.03,6.14v4.56h2.36v-4.56c0-3.38,2.7-6.14,6.03-6.14s6.03,2.75,6.03,6.14v4.56h4.78c3.32,0,6.03,2.75,6.03,6.14s-2.7,6.14-6.03,6.14h-4.78v2.4h4.78c3.32,0,6.03,2.75,6.03,6.14s-2.7,6.14-6.03,6.14h-4.78v4.56c0,3.38-2.7,6.14-6.03,6.14Zm-10.55-12.9h6.68v6.59c0,2.05,1.47,3.89,3.48,4.09,2.3.23,4.25-1.62,4.25-3.92v-6.76h6.77c2.02,0,3.82-1.5,4.02-3.54.22-2.35-1.59-4.33-3.85-4.33h-6.95v-6.8h6.77c2.02,0,3.82-1.5,4.02-3.54.22-2.35-1.59-4.33-3.85-4.33h-6.95v-6.59c0-2.05-1.47-3.89-3.48-4.09-2.3-.23-4.25,1.62-4.25,3.92v6.76h-6.68v-6.59c0-2.05-1.47-3.89-3.48-4.09-2.3-.23-4.25,1.62-4.25,3.92v6.76h-8.17c-3.92,3.45-1.54,7.87,1.84,7.87h6.33v6.8h-6.16c-2.02,0-3.82,1.5-4.02,3.54-.22,2.35,1.59,4.33,3.85,4.33h6.33v6.59c0,2.05,1.47,3.89,3.48,4.09,2.3.23,4.25-1.62,4.25-3.92v-6.76Zm6.68-7.87h-6.68v-6.8h6.68v6.8Zm-4.52-2.2h2.36v-2.4h-2.36v2.4Z" fill="aqua" stroke-width="0"/><g id="d"><path d="m624,21.15c0,1.21-.78,2.19-1.75,2.19s-1.76-.98-1.76-2.19.79-2.19,1.76-2.19,1.75.98,1.75,2.19Z" fill="#f2f2f2" stroke-width="0"/><g opacity=".7"><path d="m438.87,132.12h-99.55c-.43,0-.78-.4-.78-.9v-11.99c0-.5-.35-.9-.78-.9h-65.66c-.43,0-.78-.4-.78-.9v-11.98c0-.5-.35-.9-.78-.9h-10.03c-.43,0-.78-.4-.78-.9v-31.57c0-.5-.35-.9-.78-.9h-8.59c-.43,0-.78.4-.78.9v28.67c0,.5-.35.9-.78.9h-80.73c-.43,0-.78.4-.78.9v15.61c0,.5-.35.9-.78.9h-51.64c-.43,0-.78.4-.78.9v11.26c0,.5-.35.9-2.51-8.22H45.26c1.3,9.12.95,8.72.95,8.22v-7.87c0-.5-.35-.9-.78-.9h-8.35c-.43,0-.78-.4-.78-.9h0c0-.5.35-.9.78-.9h9.78c.43,0,.78.4.78.9v7.87c0,.5.35.9.78.9h63.45c.43,0,.78-.4.78-.9v-11.26c0-.5.35-.9.78-.9h51.64c.43,0,.78-.4.78-.9v-15.61c0-.5.35-.9.78-.9h80.73c.43,0,.78-.4.78-.9v-28.67c0-.5.35-.9.78-.9h11.47c.43,0,.78.4.78.9v31.58c0,.5.35.9.78.9h10.03c.43,0,.78.4.78.9v11.98c0,.5.35.9.78.9h65.66c.43,0,.78.4.78.9v11.98c0,.5.35.9.78.9h96.67c.43,0,.78-.4.78-.9v-25.76c0-.5.35-.9.78-.9h150.21c.43,0,.78.4.78.9h0c0,.5-.35.9-.78.9h-148.77c-.43,0-.78.4-.78.9v25.77c0,.5-.35.9-.78.9Z" fill="url(#e)" stroke-width="0"/></g><g opacity=".2"><path d="m402.56,95.36h-99.55c-.43,0-.78.4-.78.9v11.99c0,.5-.35.9-.78.9h-65.66c-.43,0-.78.4-.78.9v11.98c0,.5-.35.9-.78.9h-10.03c-.43,0-.78.4-.78.9v31.57c0,.5-.35.9-.78.9h-8.59c-.43,0-.78-.4-.78-.9v-28.67c0-.5-.35-.9-.78-.9h-80.73c-.43,0-.78-.4-.78-.9v-15.61c0-.5-.35-.9-.78-.9h-51.64c-.43,0-.78-.4-.78-.9v-11.26c0-.5-.35-.9-.78-.9H10.69c-.43,0-.78.4-.78.9v7.87c0,.5-.35.9-.78.9H.78c-.43,0-.78.4-.78.9h0c0,.5.35.9.78.9h9.78c.43,0,.78-.4.78-.9v-7.88c0-.5.35-.9.78-.9h63.45c.43,0,.78.4.78.9v11.26c0,.5.35.9.78.9h51.63c.43,0,.78.4.78.9v15.61c0,.5.35.9.78.9h80.73c.43,0,.78.4.78.9v28.67c0,.5.35.9.78.9h11.47c.43,0,.78-.4.78-.9v-31.57c0-.5.35-.9.78-.9h10.03c.43,0,.78-.4.78-.9v-11.98c0-.5.35-.9.78-.9h65.66c.43,0,.78-.4.78-.9v-11.99c0-.5.35-.9.78-.9h96.67c.43,0,.78.4.78.9v25.77c0,.5.35.9.78.9h88.4c.43,0,.78-.4.78-.9h0c0-.5-.35-.9-.78-.9h-86.96c-.43,0-.78-.4-.78-.9v-25.77c0-.5-.35-.9-.78-.9Z" fill="url(#f)" stroke-width="0"/></g><text transform="translate(195.5 85.02) scale(.8 1)" fill="#f2f2f2" font-family="ArtpastRegular, Artpast" font-size="57.61" opacity=".9"><tspan x="0" y="0">Emu Station</tspan></text><text transform="translate(444.37 11.53) rotate(-.4) scale(.8 1) skewX(-.18)" fill="#fff" font-family="OratorStd-Slanted, &apos;Orator Std&apos;" font-size="13.78" font-style="oblique"><tspan x="0" y="0"> </tspan></text><path d="m503.8,26.57h-50.43c-.43,0-.78-.4-.78-.9v-4.71c0-.5.35-.9.78-.9h50.43c.43,0,.78.4.78.9v4.71c0,.5-.35.9-.78.9Z" fill="url(#g)" stroke-width="0"/><text transform="translate(229.17 146.42) scale(.8 1)" fill="#fff" font-family="OratorStd, &apos;Orator Std&apos;" font-size="9" opacity=".1"><tspan x="0" y="0">EMU.JS Browser Emulation</tspan></text><path d="m594.21,103.82c0,1.6-1.03,2.89-2.31,2.89s-2.31-1.29-2.31-2.89,1.04-2.89,2.31-2.89,2.31,1.3,2.31,2.89Z" fill="url(#h)" opacity=".2" stroke-width="0"/></g></g></svg>