<?xml version="1.0" encoding="UTF-8"?><svg id="b" xmlns="http://www.w3.org/2000/svg" xmlns:xlink="http://www.w3.org/1999/xlink" viewBox="0 0 1087.1 241.68"><defs><linearGradient id="e" x1="0" y1="141.29" x2="1041.65" y2="141.29" gradientUnits="userSpaceOnUse"><stop offset=".21" stop-color="#a9acf1" stop-opacity="0"/><stop offset=".26" stop-color="#9ea3ef" stop-opacity=".04"/><stop offset=".36" stop-color="#828aea" stop-opacity=".15"/><stop offset=".46" stop-color="#5d6be4" stop-opacity=".3"/><stop offset=".48" stop-color="#4c5ce1" stop-opacity=".42"/><stop offset=".53" stop-color="#2238da" stop-opacity=".74"/><stop offset=".57" stop-color="#001ad5"/><stop offset=".87" stop-color="#3742ba"/><stop offset=".99" stop-color="#131e95"/></linearGradient><linearGradient id="f" x1="583.45" y1="34.85" x2="683.06" y2="34.85" gradientUnits="userSpaceOnUse"><stop offset="0" stop-color="#a9acf1" stop-opacity="0"/><stop offset=".06" stop-color="#a1a5ef" stop-opacity=".04"/><stop offset=".15" stop-color="#8d94ec" stop-opacity=".16"/><stop offset=".26" stop-color="#6c77e6" stop-opacity=".36"/><stop offset=".4" stop-color="#3e50df" stop-opacity=".63"/><stop offset=".55" stop-color="#041ed5" stop-opacity=".97"/><stop offset=".57" stop-color="#001ad5"/><stop offset=".87" stop-color="#3742ba"/><stop offset=".99" stop-color="#131e95"/></linearGradient><linearGradient id="h" x1="845.91" y1="151.75" x2="854.76" y2="151.75" xlink:href="#f"/></defs><g id="c"><rect x="7.1" width="1080" height="238" rx="15" ry="15" fill="#141c23" stroke-width="0"/><g id="d"><path d="m911.83,31.7c0,1.76-1.5,3.19-3.35,3.19s-3.37-1.43-3.37-3.19,1.51-3.18,3.37-3.18,3.35,1.42,3.35,3.18Z" fill="#f2d9d1" stroke-width="0"/><g opacity=".7"><polyline points="0 186.84 130.04 186.84 130.04 167.88 231.95 167.88 231.95 142.6 389.58 142.6 389.58 98.36 409.02 98.36 409.02 146.81 431.23 146.81 431.23 166.82 560 166.82 560 186.84 753.68 186.84 753.68 146.81 1041.65 146.81 1041.65 144.2 750.92 144.2 750.92 184.22 562.75 184.22 562.75 164.21 433.98 164.21 433.98 144.2 411.78 144.2 411.78 95.74 386.83 95.74 386.83 139.98 229.19 139.98 229.19 165.26 193.28 165.26" fill="url(#e)" stroke-width="0"/></g><path d="m301.82,118.63h-66.11v-58.55h66.11v15.72h-49.54v5.69h33.06v15.72h-33.06v5.69h49.54v15.72Z" fill="#eaf1f9" stroke-width="0"/><path d="m352.51,60.08h20.01v15.72h-16.48v42.82h-16.57v-42.82h-7.93c-2.35,0-4.36.79-6.04,2.38-1.67,1.59-2.51,3.5-2.51,5.73v34.71h-16.57v-34.71c0-6.58,2.45-12.2,7.36-16.85,4.91-4.66,10.83-6.98,17.76-6.98h11.46l.53.92,4.23,6.94,4.23-6.94.53-.92Zm36.58,58.55h-16.57v-42.82h16.57v42.82Z" fill="#eaf1f9" stroke-width="0"/><path d="m443.39,60.08h16.48v27.18c0,5.63-1.47,10.86-4.41,15.68-2.94,4.82-6.95,8.64-12.03,11.46-5.08,2.82-10.61,4.22-16.57,4.22s-11.49-1.41-16.57-4.22c-5.08-2.81-9.11-6.63-12.08-11.46-2.97-4.82-4.45-10.05-4.45-15.68v-27.18h16.57v27.18c0,4.29,1.62,7.97,4.85,11.04,3.23,3.07,7.11,4.6,11.64,4.6s8.42-1.53,11.68-4.6c3.26-3.07,4.89-6.75,4.89-11.04v-27.18Z" fill="#eaf1f9" stroke-width="0"/><path d="m464.19,96.05v-7.86h27.42v7.86h-27.42Z" fill="#eaf1f9" stroke-width="0"/><path d="m562.13,60.08v15.72h-46.54c-.82,0-1.53.28-2.12.84-.59.56-.88,1.23-.88,2.01s.29,1.45.88,2.01c.59.56,1.29.84,2.12.84h26.97c5.41,0,10.02,1.83,13.84,5.48,3.82,3.65,5.73,8.03,5.73,13.13s-1.91,9.47-5.73,13.09c-3.82,3.62-8.43,5.44-13.84,5.44h-46.54v-15.72h46.54c.88,0,1.62-.28,2.2-.84.59-.56.88-1.23.88-2.01s-.29-1.45-.88-2.01c-.59-.56-1.32-.84-2.2-.84h-26.97c-5.41,0-10.02-1.83-13.84-5.48-3.82-3.65-5.73-8.03-5.73-13.13s1.91-9.46,5.73-13.09c3.82-3.62,8.43-5.44,13.84-5.44h46.54Z" fill="#eaf1f9" stroke-width="0"/><path d="m566.18,60.08h66.11v15.72h-24.77v42.82h-16.57v-42.82h-24.77v-15.72Z" fill="#eaf1f9" stroke-width="0"/><path d="m653.45,99.81l24.77-16.23v19.32l-24.77,15.72h-16.57v-34.71c0-6.58,2.45-12.2,7.36-16.85,4.91-4.66,10.83-6.98,17.76-6.98h24.5v15.72h-24.5c-2.35,0-4.36.79-6.04,2.38-1.67,1.59-2.51,3.5-2.51,5.73v15.89Zm33.06-24.01h16.48v42.82h-24.77v-15.72h8.29v-27.1Z" fill="#eaf1f9" stroke-width="0"/><path d="m707.48,60.08h66.11v15.72h-24.77v42.82h-16.57v-42.82h-24.77v-15.72Z" fill="#eaf1f9" stroke-width="0"/><path d="m807.09,75.81h-6.43v27.1h6.43v15.72h-29.44v-15.72h6.44v-27.1h-6.44v-15.72h29.44v15.72Z" fill="#eaf1f9" stroke-width="0"/><path d="m836,75.81c-2.35,0-4.36.79-6.04,2.38-1.67,1.59-2.51,3.5-2.51,5.73v18.99h-16.57v-18.99c0-6.58,2.45-12.2,7.36-16.85,4.91-4.66,10.83-6.98,17.76-6.98h24.51v15.72h-24.51Zm24.51,0h16.48v18.99c0,6.58-2.45,12.2-7.36,16.85-4.91,4.66-10.83,6.98-17.76,6.98h-24.42v-15.72h24.42c2.35,0,4.38-.79,6.08-2.38,1.7-1.59,2.56-3.5,2.56-5.73v-18.99Z" fill="#eaf1f9" stroke-width="0"/><path d="m906.52,60.08h24.5v15.72h-24.5c-2.35,0-4.36.79-6.04,2.38-1.67,1.59-2.51,3.5-2.51,5.73v34.71h-16.57v-34.71c0-6.58,2.45-12.2,7.36-16.85,4.91-4.66,10.83-6.98,17.76-6.98Zm40.99,58.55h-16.48v-42.82h16.48v42.82Z" fill="#eaf1f9" stroke-width="0"/><rect x="583.45" y="30.12" width="99.6" height="9.45" fill="url(#f)" stroke-width="0"/><g id="g" opacity=".1"><path d="m165.12,207.29c0,1.59.06,6.47-3.68,6.47s-3.68-4.85-3.68-6.47c0-2.08.14-6.46,3.68-6.46,3.74,0,3.68,4.79,3.68,6.46Zm-5.97,0c0,3.4.42,5.29,2.29,5.29,2.31,0,2.29-3.1,2.29-5.29,0-2.38.06-5.27-2.29-5.27s-2.29,3.42-2.29,5.27Z" fill="#fff" stroke-width="0"/><path d="m169.91,203.76h1.65l4.02,8.29.04-.04-.12-2.55v-5.7h1.33v9.83h-1.65l-4.02-8.29-.04.04.12,2.57v5.68h-1.33v-9.83Z" fill="#fff" stroke-width="0"/><path d="m182.73,203.76h1.33v8.7h5.43v1.13h-6.77v-9.83Z" fill="#fff" stroke-width="0"/><path d="m195.12,212.46h1.45v-7.57h-1.45v-1.13h4.26v1.13h-1.47v7.57h1.47v1.13h-4.26v-1.13Z" fill="#fff" stroke-width="0"/><path d="m205.73,203.76h1.65l4.02,8.29.04-.04-.12-2.55v-5.7h1.33v9.83h-1.65l-4.02-8.29-.04.04.12,2.57v5.68h-1.33v-9.83Z" fill="#fff" stroke-width="0"/><path d="m218.28,203.76h6.47v1.13h-5.13v2.94h4.24v1.13h-4.24v3.49h5.13v1.13h-6.47v-9.83Z" fill="#fff" stroke-width="0"/><path d="m242.16,201h6.47v1.13h-5.13v4.15h4.24v1.13h-4.24v5.04h5.13v1.13h-6.47v-12.59Z" fill="#fff" stroke-width="0"/><path d="m254.61,205.63h-.04l-.26,7.96h-1.41l.42-9.83h1.75l1.87,4.27,1.87-4.27h1.75l.42,9.83h-1.41l-.26-7.96h-.04l-2.33,5.19-2.33-5.19Z" fill="#fff" stroke-width="0"/><path d="m266.97,203.76v6.7c0,1.43.44,2.11,1.81,2.11,1.67,0,2.03-.7,2.03-2.11v-6.7h1.33v7.3c0,1.3-.98,2.7-3.26,2.7s-3.24-1.34-3.24-2.77v-7.23h1.33Z" fill="#fff" stroke-width="0"/><path d="m278.23,203.76h1.33v8.7h5.43v1.13h-6.77v-9.83Z" fill="#fff" stroke-width="0"/><path d="m290.92,210.91l-.98,2.93-1.31-.45,3.26-9.63h1.71l3.26,9.63-1.31.45-.96-2.93h-3.68Zm1.83-5.68l-1.47,4.55h2.94l-1.47-4.55Z" fill="#fff" stroke-width="0"/><path d="m304.05,204.89h-2.87v-1.13h7v1.13h-2.81v8.7h-1.33v-8.7Z" fill="#fff" stroke-width="0"/><path d="m314.5,212.46h1.45v-7.57h-1.45v-1.13h4.26v1.13h-1.47v7.57h1.47v1.13h-4.26v-1.13Z" fill="#fff" stroke-width="0"/><path d="m332.25,208.69c0,.79-.06,5.08-3.68,5.08-1.67,0-3.68-1.13-3.68-5.08s1.97-5.1,3.68-5.1,3.68,1.13,3.68,5.1Zm-5.97,0c0,1.43.28,3.89,2.29,3.89s2.29-2.45,2.29-3.89-.28-3.91-2.29-3.91-2.29,2.45-2.29,3.91Z" fill="#fff" stroke-width="0"/><path d="m337.04,203.76h1.65l4.02,8.29.04-.04-.12-2.55v-5.7h1.33v9.83h-1.65l-4.02-8.29-.04.04.12,2.57v5.68h-1.33v-9.83Z" fill="#fff" stroke-width="0"/><path d="m360.84,213.59v-1.13h1.07v-7.57h-1.07v-1.13h3.26c2.63,0,3.76.94,3.76,2.62,0,.85-.38,1.6-1.17,2.02,1.13.34,1.77,1.26,1.77,2.38,0,1.77-1.23,2.81-3.4,2.81h-4.22Zm3.9-5.62c1.15,0,1.73-.7,1.73-1.58,0-1.17-.88-1.49-1.81-1.49h-1.41v3.08h1.49Zm.06,4.49c1.17,0,2.27-.25,2.27-1.58,0-.98-.68-1.77-1.95-1.77h-1.87v3.36h1.55Z" fill="#fff" stroke-width="0"/><path d="m379.08,203.51l1.25.62-3.36,5.66v3.79h-1.33v-3.79l-3.34-5.66,1.25-.62,2.77,5.06,2.77-5.06Z" fill="#fff" stroke-width="0"/><path d="m397.35,201h6.47v1.13h-5.13v4.15h4.24v1.13h-4.24v5.04h5.13v1.13h-6.47v-12.59Z" fill="#fff" stroke-width="0"/><path d="m409.8,205.63h-.04l-.26,7.96h-1.41l.42-9.83h1.75l1.87,4.27,1.87-4.27h1.75l.42,9.83h-1.41l-.26-7.96h-.04l-2.33,5.19-2.33-5.19Z" fill="#fff" stroke-width="0"/><path d="m422.16,203.76v6.7c0,1.43.44,2.11,1.81,2.11,1.67,0,2.03-.7,2.03-2.11v-6.7h1.33v7.3c0,1.3-.97,2.7-3.26,2.7s-3.24-1.34-3.24-2.77v-7.23h1.33Z" fill="#fff" stroke-width="0"/><path d="m433.42,203.76h1.33v8.7h5.43v1.13h-6.76v-9.83Z" fill="#fff" stroke-width="0"/><path d="m446.11,210.91l-.97,2.93-1.31-.45,3.26-9.63h1.71l3.26,9.63-1.31.45-.96-2.93h-3.68Zm1.83-5.68l-1.47,4.55h2.94l-1.47-4.55Z" fill="#fff" stroke-width="0"/><path d="m459.24,204.89h-2.87v-1.13h7v1.13h-2.81v8.7h-1.33v-8.7Z" fill="#fff" stroke-width="0"/><path d="m475.5,208.69c0,.79-.06,5.08-3.68,5.08-1.67,0-3.68-1.13-3.68-5.08s1.97-5.1,3.68-5.1,3.68,1.13,3.68,5.1Zm-5.97,0c0,1.43.28,3.89,2.29,3.89s2.29-2.45,2.29-3.89-.28-3.91-2.29-3.91-2.29,2.45-2.29,3.91Z" fill="#fff" stroke-width="0"/><path d="m480.75,203.76h3.52c1.73,0,3.1.77,3.1,2.68,0,1.21-.86,2.4-2.11,2.76l2.55,3.98-1.15.66-2.65-4.45h-1.93v4.21h-1.33v-9.83Zm3.08,4.49c1.29,0,2.15-.7,2.15-1.81,0-.89-.56-1.55-1.75-1.55h-2.15v3.36h1.75Z" fill="#fff" stroke-width="0"/><path d="m494.78,210.8h1.83v2.79h-1.83v-2.79Z" fill="#fff" stroke-width="0"/><path d="m505.16,209.03v1.26c0,1,.46,2.28,1.97,2.28,1.19,0,1.91-1.02,1.91-2.45v-9.12h1.33v9.25c0,2.4-1.63,3.51-3.34,3.51s-3.2-1.09-3.2-3.57v-1.17h1.33Z" fill="#fff" stroke-width="0"/><path d="m517.4,210.48c.26,1.21.88,2.09,2.27,2.09,1.09,0,1.95-.57,1.95-1.66,0-1.21-1.07-1.51-2.09-1.91-1.51-.6-2.95-.98-2.95-2.83,0-1.66,1.41-2.59,3.04-2.59,1.73,0,2.75.94,3.16,2.47l-1.27.36c-.24-.96-.78-1.64-1.91-1.64-.86,0-1.69.42-1.69,1.3s.6,1.19,1.39,1.53l2.21.92c.94.49,1.43,1.28,1.43,2.3,0,1.87-1.37,2.93-3.28,2.93s-3.14-1.17-3.46-2.93l1.19-.36Z" fill="#fff" stroke-width="0"/></g><path d="m854.76,151.74c0,2.33-1.98,4.2-4.42,4.2s-4.42-1.88-4.42-4.2,1.98-4.19,4.42-4.19,4.42,1.88,4.42,4.19Z" fill="url(#h)" opacity=".2" stroke-width="0"/></g><path d="m181.44,119c-5.46,0-9.9-4.05-9.9-9.02v-6.7h-3.87v6.7c0,4.97-4.44,9.02-9.9,9.02s-9.9-4.05-9.9-9.02v-6.7h-6.85c-5.46,0-9.9-4.05-9.9-9.02s4.44-9.02,9.9-9.02h6.85v-3.53h-6.85c-5.46,0-9.9-4.05-9.9-9.02s4.44-9.02,9.9-9.02h6.85v-6.7c0-4.97,4.44-9.02,9.9-9.02s9.9,4.05,9.9,9.02v6.7h3.87v-6.7c0-4.97,4.44-9.02,9.9-9.02s9.9,4.05,9.9,9.02v6.7h7.86c5.46,0,9.9,4.05,9.9,9.02s-4.44,9.02-9.9,9.02h-7.86v3.53h7.86c5.46,0,9.9,4.05,9.9,9.02s-4.44,9.02-9.9,9.02h-7.86v6.7c0,4.97-4.44,9.02-9.9,9.02Zm-17.33-18.95h10.98v9.68c0,3.02,2.42,5.72,5.72,6.01,3.79.34,6.98-2.38,6.98-5.75v-9.93h11.13c3.31,0,6.28-2.2,6.6-5.21.37-3.45-2.61-6.36-6.32-6.36h-11.41v-10h11.13c3.31,0,6.28-2.2,6.6-5.21.37-3.45-2.61-6.36-6.32-6.36h-11.41v-9.68c0-3.02-2.42-5.72-5.72-6.01-3.78-.34-6.98,2.38-6.98,5.75v9.93h-10.98v-9.68c0-3.02-2.42-5.72-5.72-6.01-3.78-.34-6.98,2.38-6.98,5.75v9.93h-13.42c-6.43,5.07-2.53,11.57,3.02,11.57h10.41v10h-10.12c-3.31,0-6.28,2.2-6.6,5.21-.37,3.45,2.61,6.36,6.32,6.36h10.41v9.68c0,3.02,2.42,5.72,5.72,6.01,3.78.34,6.98-2.38,6.98-5.75v-9.93Zm10.98-11.57h-10.98v-10h10.98v10Zm-7.42-3.24h3.87v-3.53h-3.87v3.53Z" fill="aqua" stroke-width="0"/></g></svg>