<?xml version="1.0" encoding="UTF-8"?><svg id="b" xmlns="http://www.w3.org/2000/svg" xmlns:xlink="http://www.w3.org/1999/xlink" viewBox="0 0 1087.1 241.68"><defs><linearGradient id="e" x1="0" y1="141.29" x2="1041.65" y2="141.29" gradientUnits="userSpaceOnUse"><stop offset=".21" stop-color="#a9acf1" stop-opacity="0"/><stop offset=".26" stop-color="#9ea3ef" stop-opacity=".04"/><stop offset=".36" stop-color="#828aea" stop-opacity=".15"/><stop offset=".46" stop-color="#5d6be4" stop-opacity=".3"/><stop offset=".48" stop-color="#4c5ce1" stop-opacity=".42"/><stop offset=".53" stop-color="#2238da" stop-opacity=".74"/><stop offset=".57" stop-color="#001ad5"/><stop offset=".87" stop-color="#3742ba"/><stop offset=".99" stop-color="#131e95"/></linearGradient><linearGradient id="f" x1="583.45" y1="34.85" x2="683.06" y2="34.85" gradientUnits="userSpaceOnUse"><stop offset="0" stop-color="#a9acf1" stop-opacity="0"/><stop offset=".06" stop-color="#a1a5ef" stop-opacity=".04"/><stop offset=".15" stop-color="#8d94ec" stop-opacity=".16"/><stop offset=".26" stop-color="#6c77e6" stop-opacity=".36"/><stop offset=".4" stop-color="#3e50df" stop-opacity=".63"/><stop offset=".55" stop-color="#041ed5" stop-opacity=".97"/><stop offset=".57" stop-color="#001ad5"/><stop offset=".87" stop-color="#3742ba"/><stop offset=".99" stop-color="#131e95"/></linearGradient><linearGradient id="h" x1="845.91" y1="151.75" x2="854.76" y2="151.75" xlink:href="#f"/></defs><g id="c"><rect x="7.1" width="1080" height="238" rx="15" ry="15" fill="#141c23" stroke-width="0"/><g id="d"><path d="m911.83,31.7c0,1.76-1.5,3.19-3.35,3.19s-3.37-1.43-3.37-3.19,1.51-3.18,3.37-3.18,3.35,1.42,3.35,3.18Z" fill="#f2d9d1" stroke-width="0"/><g opacity=".7"><path d="m0,186.84h130.04v-18.96h101.91v-25.28h157.63v-44.24h19.44v48.46h22.2v20.01h128.77v20.02h193.68v-40.02h287.97v-2.61h-290.73v40.02h-188.17v-20.01h-128.78v-20.01h-22.2v-48.46h-24.95v44.24h-157.63v25.28h-35.92" fill="url(#e)" stroke-width="0"/></g><text transform="translate(232.18 118.63) scale(1.05 1)" font-size="83.64"><tspan x="0" y="0" fill="#eaf1f9" font-family="ArtpastRegular, Artpast">Emu-Station</tspan><tspan x="681.26" y="0" fill="#2f7ded" font-family="OratorStd, &apos;Orator Std&apos;" letter-spacing="0em"> </tspan></text><rect x="583.45" y="30.12" width="99.6" height="9.45" fill="url(#f)" stroke-width="0"/><text id="g" transform="translate(155.47 213.59) scale(1.05 1)" fill="#fff" font-family="OratorStd, &apos;Orator Std&apos;" font-size="18.88" opacity=".1"><tspan x="0" y="0">Online Emulation </tspan></text><path d="m854.76,151.74c0,2.33-1.98,4.2-4.42,4.2s-4.42-1.88-4.42-4.2,1.98-4.19,4.42-4.19,4.42,1.88,4.42,4.19Z" fill="url(#h)" opacity=".2" stroke-width="0"/></g><path d="m176.44,141c-5.46,0-9.9-4.05-9.9-9.02v-6.7h-3.87v6.7c0,4.97-4.44,9.02-9.9,9.02s-9.9-4.05-9.9-9.02v-6.7h-6.85c-5.46,0-9.9-4.05-9.9-9.02s4.44-9.02,9.9-9.02h6.85v-3.53h-6.85c-5.46,0-9.9-4.05-9.9-9.02s4.44-9.02,9.9-9.02h6.85v-6.7c0-4.97,4.44-9.02,9.9-9.02s9.9,4.05,9.9,9.02v6.7h3.87v-6.7c0-4.97,4.44-9.02,9.9-9.02s9.9,4.05,9.9,9.02v6.7h7.86c5.46,0,9.9,4.05,9.9,9.02s-4.44,9.02-9.9,9.02h-7.86v3.53h7.86c5.46,0,9.9,4.05,9.9,9.02s-4.44,9.02-9.9,9.02h-7.86v6.7c0,4.97-4.44,9.02-9.9,9.02Zm-17.33-18.95h10.98v9.68c0,3.02,2.42,5.72,5.72,6.01,3.79.34,6.98-2.38,6.98-5.75v-9.93h11.13c3.31,0,6.28-2.2,6.6-5.21.37-3.45-2.61-6.36-6.32-6.36h-11.41v-10h11.13c3.31,0,6.28-2.2,6.6-5.21.37-3.45-2.61-6.36-6.32-6.36h-11.41v-9.68c0-3.02-2.42-5.72-5.72-6.01-3.78-.34-6.98,2.38-6.98,5.75v9.93h-10.98v-9.68c0-3.02-2.42-5.72-5.72-6.01-3.78-.34-6.98,2.38-6.98,5.75v9.93h-13.42c-6.43,5.07-2.53,11.57,3.02,11.57h10.41v10h-10.12c-3.31,0-6.28,2.2-6.6,5.21-.37,3.45,2.61,6.36,6.32,6.36h10.41v9.68c0,3.02,2.42,5.72,5.72,6.01,3.78.34,6.98-2.38,6.98-5.75v-9.93Zm10.98-11.57h-10.98v-10h10.98v10Zm-7.42-3.24h3.87v-3.53h-3.87v3.53Z" fill="aqua" stroke-width="0"/></g></svg>