<?xml version="1.0" encoding="UTF-8"?><svg id="b" xmlns="http://www.w3.org/2000/svg" xmlns:xlink="http://www.w3.org/1999/xlink" viewBox="0 0 1286.58 178.27"><defs><linearGradient id="e" x1="69.55" y1="108.35" x2="1130.18" y2="108.35" gradientUnits="userSpaceOnUse"><stop offset="0" stop-color="#a9acf1" stop-opacity="0"/><stop offset=".06" stop-color="#a1a5ef" stop-opacity=".04"/><stop offset=".15" stop-color="#8d94ec" stop-opacity=".16"/><stop offset=".26" stop-color="#6c77e6" stop-opacity=".36"/><stop offset=".4" stop-color="#3e50df" stop-opacity=".63"/><stop offset=".55" stop-color="#041ed5" stop-opacity=".97"/><stop offset=".57" stop-color="#001ad5"/><stop offset=".87" stop-color="#3742ba"/><stop offset=".99" stop-color="#131e95"/></linearGradient><linearGradient id="f" x1="866.98" y1="25.07" x2="966.58" y2="25.07" xlink:href="#e"/><linearGradient id="h" x1="1129.43" y1="111.66" x2="1138.28" y2="111.66" xlink:href="#e"/></defs><g id="c"><g id="d"><path d="m1195.36,22.74c0,1.3-1.5,2.36-3.35,2.36s-3.37-1.06-3.37-2.36,1.51-2.35,3.37-2.35,3.35,1.05,3.35,2.35Z" fill="#f2d9d1" stroke-width="0"/><g opacity=".7"><polygon points="842.2 142.09 648.52 142.09 648.52 127.26 519.75 127.26 519.75 112.44 497.55 112.44 497.55 76.55 478.11 76.55 478.11 109.32 320.48 109.32 320.48 128.04 218.57 128.04 218.57 142.09 88.53 142.09 88.53 131.69 69.55 131.69 69.55 129.75 91.28 129.75 91.28 140.15 215.82 140.15 215.82 126.11 317.72 126.11 317.72 107.39 475.35 107.39 475.35 74.62 500.31 74.62 500.31 110.51 522.5 110.51 522.5 125.33 651.28 125.33 651.28 140.15 839.45 140.15 839.45 110.51 1130.18 110.51 1130.18 112.44 842.2 112.44 842.2 142.09" fill="url(#e)" stroke-width="0"/></g><g opacity=".2"><text/></g><text transform="translate(515.71 87.13) scale(1.42 1)" font-size="61.95" opacity=".9"><tspan x="0" y="0" fill="#eaf1f9" font-family="ArtpastRegular, Artpast">Emu-Station</tspan><tspan x="504.59" y="0" fill="#2f7ded" font-family="OratorStd, &apos;Orator Std&apos;"> </tspan></text><text transform="translate(851.25 12.4) rotate(-.22) scale(1.42 1) skewX(.16)" fill="#fff" font-family="OratorStd-Slanted, &apos;Orator Std&apos;" font-size="14.82" font-style="oblique"><tspan x="0" y="0"> </tspan></text><rect x="866.98" y="21.57" width="99.6" height="7" fill="url(#f)" stroke-width="0"/><text id="g" transform="translate(439 157.46) scale(1.42 1)" fill="#fff" font-family="OratorStd, &apos;Orator Std&apos;" font-size="13.98" opacity=".1"><tspan x="0" y="0">Online Emulation </tspan></text><path d="m1138.28,111.65c0,1.72-1.98,3.11-4.42,3.11s-4.42-1.39-4.42-3.11,1.98-3.11,4.42-3.11,4.42,1.39,4.42,3.11Z" fill="url(#h)" opacity=".2" stroke-width="0"/></g><path d="m430.96,104.58c-5.46,0-9.9-4.05-9.9-9.02v-6.7h-3.87v6.7c0,4.97-4.44,9.02-9.9,9.02s-9.9-4.05-9.9-9.02v-6.7h-6.85c-5.46,0-9.9-4.05-9.9-9.02s4.44-9.02,9.9-9.02h6.85v-3.53h-6.85c-5.46,0-9.9-4.05-9.9-9.02s4.44-9.02,9.9-9.02h6.85v-6.7c0-4.97,4.44-9.02,9.9-9.02s9.9,4.05,9.9,9.02v6.7h3.87v-6.7c0-4.97,4.44-9.02,9.9-9.02s9.9,4.05,9.9,9.02v6.7h7.86c5.46,0,9.9,4.05,9.9,9.02s-4.44,9.02-9.9,9.02h-7.86v3.53h7.86c5.46,0,9.9,4.05,9.9,9.02s-4.44,9.02-9.9,9.02h-7.86v6.7c0,4.97-4.44,9.02-9.9,9.02Zm-17.33-18.95h10.98v9.68c0,3.02,2.42,5.72,5.72,6.01,3.79.34,6.98-2.38,6.98-5.75v-9.93h11.13c3.31,0,6.28-2.2,6.6-5.21.37-3.45-2.61-6.36-6.32-6.36h-11.41v-10h11.13c3.31,0,6.28-2.2,6.6-5.21.37-3.45-2.61-6.36-6.32-6.36h-11.41v-9.68c0-3.02-2.42-5.72-5.72-6.01-3.78-.34-6.98,2.38-6.98,5.75v9.93h-10.98v-9.68c0-3.02-2.42-5.72-5.72-6.01-3.78-.34-6.98,2.38-6.98,5.75v9.93h-13.42c-6.43,5.07-2.53,11.57,3.02,11.57h10.41v10h-10.12c-3.31,0-6.28,2.2-6.6,5.21-.37,3.45,2.61,6.36,6.32,6.36h10.41v9.68c0,3.02,2.42,5.72,5.72,6.01,3.78.34,6.98-2.38,6.98-5.75v-9.93Zm10.98-11.57h-10.98v-10h10.98v10Zm-7.42-3.24h3.87v-3.53h-3.87v3.53Z" fill="aqua" stroke-width="0"/></g></svg>