<?xml version="1.0" encoding="UTF-8"?><svg id="b" xmlns="http://www.w3.org/2000/svg" xmlns:xlink="http://www.w3.org/1999/xlink" viewBox="0 0 843.48 171.86"><defs><linearGradient id="e" x1="48.88" y1="108.35" x2="794.28" y2="108.35" gradientUnits="userSpaceOnUse"><stop offset="0" stop-color="#cadef1" stop-opacity="0"/><stop offset=".06" stop-color="#c2daef" stop-opacity=".04"/><stop offset=".15" stop-color="#add2ec" stop-opacity=".16"/><stop offset=".26" stop-color="#8bc5e6" stop-opacity=".36"/><stop offset=".4" stop-color="#5db2df" stop-opacity=".63"/><stop offset=".55" stop-color="#229bd5" stop-opacity=".97"/><stop offset=".57" stop-color="#1d99d5"/><stop offset=".87" stop-color="#0a75ba"/><stop offset=".99" stop-color="#005b95"/></linearGradient><linearGradient id="f" x1="0" y1="677.36" x2="662.19" y2="677.36" gradientTransform="translate(0 813.64) scale(1 -1)" xlink:href="#e"/><linearGradient id="g" x1="609.3" y1="25.07" x2="679.3" y2="25.07" xlink:href="#e"/><linearGradient id="h" x1="793.75" y1="111.66" x2="799.97" y2="111.66" xlink:href="#e"/></defs><g id="c"><path d="m312.2,93.02c-3.64,0-6.6-2.96-6.6-6.6v-4.9h-2.58v4.9c0,3.64-2.96,6.6-6.6,6.6s-6.6-2.96-6.6-6.6v-4.9h-4.57c-3.64,0-6.6-2.96-6.6-6.6s2.96-6.6,6.6-6.6h4.57v-2.58h-4.57c-3.64,0-6.6-2.96-6.6-6.6s2.96-6.6,6.6-6.6h4.57v-4.9c0-3.64,2.96-6.6,6.6-6.6s6.6,2.96,6.6,6.6v4.9h2.58v-4.9c0-3.64,2.96-6.6,6.6-6.6s6.6,2.96,6.6,6.6v4.9h5.24c3.64,0,6.6,2.96,6.6,6.6s-2.96,6.6-6.6,6.6h-5.24v2.58h5.24c3.64,0,6.6,2.96,6.6,6.6s-2.96,6.6-6.6,6.6h-5.24v4.9c0,3.64-2.96,6.6-6.6,6.6Zm-11.55-13.87h7.32v7.08c0,2.21,1.61,4.19,3.81,4.4,2.52.25,4.66-1.74,4.66-4.21v-7.27h7.42c2.21,0,4.19-1.61,4.4-3.81.25-2.52-1.74-4.66-4.21-4.66h-7.61v-7.32h7.42c2.21,0,4.19-1.61,4.4-3.81.25-2.52-1.74-4.66-4.21-4.66h-7.61v-7.08c0-2.21-1.61-4.19-3.81-4.4-2.52-.25-4.66,1.74-4.66,4.21v7.27h-7.32v-7.08c0-2.21-1.61-4.19-3.81-4.4-2.52-.25-4.66,1.74-4.66,4.21v7.27h-8.95c-4.29,3.71-1.68,8.46,2.01,8.46h6.94v7.32h-6.75c-2.21,0-4.19,1.61-4.4,3.81-.25,2.52,1.74,4.66,4.21,4.66h6.94v7.08c0,2.21,1.61,4.19,3.81,4.4,2.52.25,4.66-1.74,4.66-4.21v-7.27Zm7.32-8.46h-7.32v-7.32h7.32v7.32Zm-4.95-2.37h2.58v-2.58h-2.58v2.58Z" fill="aqua" stroke-width="0"/><g id="d"><path d="m840.08,22.74c0,1.3-1.05,2.36-2.35,2.36s-2.37-1.06-2.37-2.36,1.06-2.35,2.37-2.35,2.35,1.05,2.35,2.35Z" fill="#f2f2f2" stroke-width="0"/><g opacity=".7"><polygon points="591.89 142.09 455.78 142.09 455.78 127.26 365.28 127.26 365.28 112.44 349.67 112.44 349.67 76.55 336.01 76.55 336.01 109.32 225.23 109.32 225.23 128.04 153.61 128.04 153.61 142.09 62.22 142.09 62.22 131.69 48.88 131.69 48.88 129.75 64.15 129.75 64.15 140.15 151.67 140.15 151.67 126.11 223.29 126.11 223.29 107.39 334.07 107.39 334.07 74.62 351.61 74.62 351.61 110.51 367.21 110.51 367.21 125.33 457.71 125.33 457.71 140.15 589.96 140.15 589.96 110.51 794.28 110.51 794.28 112.44 591.89 112.44 591.89 142.09" fill="url(#e)" stroke-width="0"/></g><g opacity=".2"><polygon points="543.01 102.55 406.9 102.55 406.9 117.37 316.4 117.37 316.4 132.19 300.79 132.19 300.79 168.08 287.13 168.08 287.13 135.31 176.35 135.31 176.35 116.59 104.73 116.59 104.73 102.55 13.34 102.55 13.34 112.95 0 112.95 0 114.89 15.27 114.89 15.27 104.48 102.79 104.48 102.79 118.52 174.41 118.52 174.41 137.25 285.19 137.25 285.19 170.02 302.73 170.02 302.73 134.13 318.33 134.13 318.33 119.31 408.83 119.31 408.83 104.48 541.08 104.48 541.08 134.13 662.19 134.13 662.19 132.19 543.01 132.19 543.01 102.55" fill="url(#f)" stroke-width="0"/></g><text transform="translate(362.43 87.13)" fill="#f2f2f2" font-family="ArtpastRegular, Artpast" font-size="61.95" opacity=".9"><tspan x="0" y="0">Pixel Vau</tspan><tspan x="388.62" y="0" letter-spacing="-.11em">l</tspan><tspan x="431.92" y="0">t</tspan></text><text transform="translate(598.25 12.4) rotate(-.32)" fill="#fff" font-family="OratorStd-Slanted, &apos;Orator Std&apos;" font-size="14.82" font-style="oblique"><tspan x="0" y="0"> </tspan></text><rect x="609.3" y="21.57" width="70" height="7" fill="url(#g)" stroke-width="0"/><text transform="translate(308.52 157.46)" fill="#fff" font-family="OratorStd, &apos;Orator Std&apos;" font-size="9.68" opacity=".1"><tspan x="0" y="0">Gaming Collections powered </tspan><tspan x="0" y="11.61">by RAWG API</tspan></text><path d="m799.97,111.65c0,1.72-1.39,3.11-3.11,3.11s-3.11-1.39-3.11-3.11,1.39-3.11,3.11-3.11,3.11,1.39,3.11,3.11Z" fill="url(#h)" opacity=".2" stroke-width="0"/></g></g></svg>