<?xml version="1.0" encoding="UTF-8"?><svg id="b" xmlns="http://www.w3.org/2000/svg" xmlns:xlink="http://www.w3.org/1999/xlink" viewBox="0 0 1087.1 241.68"><defs><linearGradient id="e" x1="0" y1="141.29" x2="1041.65" y2="141.29" gradientUnits="userSpaceOnUse"><stop offset=".21" stop-color="#a9acf1" stop-opacity="0"/><stop offset=".26" stop-color="#9ea3ef" stop-opacity=".04"/><stop offset=".36" stop-color="#828aea" stop-opacity=".15"/><stop offset=".46" stop-color="#5d6be4" stop-opacity=".3"/><stop offset=".48" stop-color="#4c5ce1" stop-opacity=".42"/><stop offset=".53" stop-color="#2238da" stop-opacity=".74"/><stop offset=".57" stop-color="#001ad5"/><stop offset=".87" stop-color="#3742ba"/><stop offset=".99" stop-color="#131e95"/></linearGradient><linearGradient id="f" x1="583.45" y1="34.85" x2="683.06" y2="34.85" gradientUnits="userSpaceOnUse"><stop offset="0" stop-color="#a9acf1" stop-opacity="0"/><stop offset=".06" stop-color="#a1a5ef" stop-opacity=".04"/><stop offset=".15" stop-color="#8d94ec" stop-opacity=".16"/><stop offset=".26" stop-color="#6c77e6" stop-opacity=".36"/><stop offset=".4" stop-color="#3e50df" stop-opacity=".63"/><stop offset=".55" stop-color="#041ed5" stop-opacity=".97"/><stop offset=".57" stop-color="#001ad5"/><stop offset=".87" stop-color="#3742ba"/><stop offset=".99" stop-color="#131e95"/></linearGradient><linearGradient id="h" x1="845.91" y1="151.75" x2="854.76" y2="151.75" xlink:href="#f"/></defs><g id="c"><rect x="7.1" width="1080" height="238" rx="15" ry="15" fill="#141c23" stroke-width="0"/><g id="d"><path d="m911.83,31.7c0,1.76-1.5,3.19-3.35,3.19s-3.37-1.43-3.37-3.19,1.51-3.18,3.37-3.18,3.35,1.42,3.35,3.18Z" fill="#f2d9d1" stroke-width="0"/><g opacity=".7"><polyline points="0 186.84 130.04 186.84 130.04 167.88 231.95 167.88 231.95 142.6 389.58 142.6 389.58 98.36 409.02 98.36 409.02 146.81 431.23 146.81 431.23 166.82 560 166.82 560 186.84 753.68 186.84 753.68 146.81 1041.65 146.81 1041.65 144.2 750.92 144.2 750.92 184.22 562.75 184.22 562.75 164.21 433.98 164.21 433.98 144.2 411.78 144.2 411.78 95.74 386.83 95.74 386.83 139.98 229.19 139.98 229.19 165.26 193.28 165.26" fill="url(#e)" stroke-width="0"/></g><path d="m285.34,75.81h16.48v7.61c0,6.47-2.41,11.99-7.23,16.56-4.82,4.57-10.61,6.86-17.37,6.86h-24.95v11.79h-16.57v-58.55h49.63v15.72h-33.06v15.31h24.95c2.23,0,4.14-.75,5.73-2.26,1.59-1.51,2.38-3.32,2.38-5.44v-7.61Z" fill="#eaf1f9" stroke-width="0"/><path d="m334.08,75.81h-6.44v27.1h6.44v15.72h-29.44v-15.72h6.44v-27.1h-6.44v-15.72h29.44v15.72Z" fill="#eaf1f9" stroke-width="0"/><path d="m369.43,101.74h18.16l14.28,16.9h-20.98l-12.87-15.22-11.81,15.22h-20.45l32.17-41.65h-17.89l-14.28-16.9h20.98l12.69,14.97,11.46-14.97h20.98l-32.44,41.65Z" fill="#eaf1f9" stroke-width="0"/><path d="m471.16,75.81h-49.54v5.69h33.06v15.72h-33.06v5.69h49.54v15.72h-66.11v-58.55h66.11v15.72Z" fill="#eaf1f9" stroke-width="0"/><path d="m493.19,102.91h49.54v15.72h-66.11v-58.55h16.57v42.82Z" fill="#eaf1f9" stroke-width="0"/><path d="m640.58,60.08v34.71c0,6.58-2.46,12.2-7.36,16.85-4.91,4.66-10.83,6.98-17.76,6.98h-24.42v-58.55h-16.57v42.82h40.99c2.35,0,4.38-.79,6.08-2.38,1.7-1.59,2.56-3.5,2.56-5.73v-34.71h16.48Z" fill="#eaf1f9" stroke-width="0"/><path d="m662.53,99.81l24.77-16.23v19.32l-24.77,15.72h-16.57v-34.71c0-6.58,2.45-12.2,7.36-16.85,4.91-4.66,10.83-6.98,17.76-6.98h24.5v15.72h-24.5c-2.35,0-4.36.79-6.04,2.38-1.67,1.59-2.51,3.5-2.51,5.73v15.89Zm33.06-24.01h16.48v42.82h-24.77v-15.72h8.29v-27.1Z" fill="#eaf1f9" stroke-width="0"/><path d="m766.46,60.08h16.48v27.18c0,5.63-1.47,10.86-4.41,15.68-2.94,4.82-6.95,8.64-12.03,11.46-5.08,2.82-10.61,4.22-16.57,4.22s-11.49-1.41-16.57-4.22c-5.08-2.81-9.11-6.63-12.08-11.46-2.97-4.82-4.45-10.05-4.45-15.68v-27.18h16.57v27.18c0,4.29,1.62,7.97,4.85,11.04,3.23,3.07,7.11,4.6,11.64,4.6s8.42-1.53,11.68-4.6c3.26-3.07,4.89-6.75,4.89-11.04v-27.18Z" fill="#eaf1f9" stroke-width="0"/><path d="m805.24,102.91h49.54v15.72h-66.11v-58.55h16.57v42.82Z" fill="#eaf1f9" stroke-width="0"/><path d="m848.61,60.08h66.11v15.72h-24.77v42.82h-16.57v-42.82h-24.77v-15.72Z" fill="#eaf1f9" stroke-width="0"/><rect x="583.45" y="30.12" width="99.6" height="9.45" fill="url(#f)" stroke-width="0"/><g id="g" opacity=".1"><path d="m164.94,212.67c-.86.66-1.97,1.09-3.08,1.09-3.42,0-4.02-3.93-4.02-6.44,0-2.36.58-6.49,3.88-6.49,1.49,0,2.59.87,3.32,2.02l-1.17.68c-.48-.81-1.17-1.51-2.23-1.51-2.21,0-2.41,3.85-2.41,5.34,0,4.32,1.33,5.21,2.65,5.21.56,0,1.27-.23,1.73-.58v-3.79h-2.49v-1.13h3.82v5.61Z" fill="#fff" stroke-width="0"/><path d="m171.55,210.91l-.98,2.93-1.31-.45,3.26-9.63h1.71l3.26,9.63-1.31.45-.96-2.93h-3.68Zm1.83-5.68l-1.47,4.55h2.94l-1.47-4.55Z" fill="#fff" stroke-width="0"/><path d="m182.99,205.63h-.04l-.26,7.96h-1.41l.42-9.83h1.75l1.87,4.27,1.87-4.27h1.75l.42,9.83h-1.41l-.26-7.96h-.04l-2.33,5.19-2.33-5.19Z" fill="#fff" stroke-width="0"/><path d="m195.12,212.46h1.45v-7.57h-1.45v-1.13h4.26v1.13h-1.47v7.57h1.47v1.13h-4.26v-1.13Z" fill="#fff" stroke-width="0"/><path d="m205.73,203.76h1.65l4.02,8.29.04-.04-.12-2.55v-5.7h1.33v9.83h-1.65l-4.02-8.29-.04.04.12,2.57v5.68h-1.33v-9.83Z" fill="#fff" stroke-width="0"/><path d="m224.63,212.69c-.86.64-2.13,1.08-3.18,1.08-3.04,0-3.92-2.68-3.92-5.1s.92-5.08,3.88-5.08c1.39,0,2.61.77,3.32,1.89l-1.13.7c-.5-.79-1.25-1.4-2.27-1.4-2.05,0-2.41,2.43-2.41,3.93s.36,3.87,2.45,3.87c.68,0,1.35-.17,1.93-.51v-2.59h-2.49v-1.13h3.82v4.34Z" fill="#fff" stroke-width="0"/><path d="m248.72,211.71c-.78,1.19-1.93,2.06-3.44,2.06-3.46,0-3.98-3.96-3.98-6.46s.52-6.47,3.98-6.47c1.51,0,2.55.83,3.24,2.04l-1.13.64c-.42-.79-1.09-1.49-2.11-1.49-2.43,0-2.59,3.62-2.59,5.29s.16,5.27,2.59,5.27c1.03,0,1.85-.81,2.35-1.58l1.09.72Z" fill="#fff" stroke-width="0"/><path d="m260.62,208.69c0,.79-.06,5.08-3.68,5.08-1.67,0-3.68-1.13-3.68-5.08s1.97-5.1,3.68-5.1,3.68,1.13,3.68,5.1Zm-5.97,0c0,1.43.28,3.89,2.29,3.89s2.29-2.45,2.29-3.89-.28-3.91-2.29-3.91-2.29,2.45-2.29,3.91Z" fill="#fff" stroke-width="0"/><path d="m266.29,203.76h1.33v8.7h5.43v1.13h-6.77v-9.83Z" fill="#fff" stroke-width="0"/><path d="m278.23,203.76h1.33v8.7h5.43v1.13h-6.77v-9.83Z" fill="#fff" stroke-width="0"/><path d="m289.91,203.76h6.47v1.13h-5.13v2.94h4.24v1.13h-4.24v3.49h5.13v1.13h-6.47v-9.83Z" fill="#fff" stroke-width="0"/><path d="m308.41,211.71c-.84,1.25-1.83,2.06-3.44,2.06-3.02,0-3.98-2.64-3.98-5.08,0-3.93,2.19-5.1,3.86-5.1s2.55.79,3.28,2.1l-1.21.58c-.44-.79-1.03-1.49-2.05-1.49-2.07,0-2.49,2.38-2.49,3.89s.38,3.91,2.49,3.91c1.21,0,1.83-.7,2.45-1.58l1.09.72Z" fill="#fff" stroke-width="0"/><path d="m315.99,204.89h-2.87v-1.13h7v1.13h-2.81v8.7h-1.33v-8.7Z" fill="#fff" stroke-width="0"/><path d="m326.44,212.46h1.45v-7.57h-1.45v-1.13h4.26v1.13h-1.47v7.57h1.47v1.13h-4.26v-1.13Z" fill="#fff" stroke-width="0"/><path d="m344.18,208.69c0,.79-.06,5.08-3.68,5.08-1.67,0-3.68-1.13-3.68-5.08s1.97-5.1,3.68-5.1,3.68,1.13,3.68,5.1Zm-5.97,0c0,1.43.28,3.89,2.29,3.89s2.29-2.45,2.29-3.89-.28-3.91-2.29-3.91-2.29,2.45-2.29,3.91Z" fill="#fff" stroke-width="0"/><path d="m348.98,203.76h1.65l4.02,8.29.04-.04-.12-2.55v-5.7h1.33v9.83h-1.65l-4.02-8.29-.04.04.12,2.57v5.68h-1.33v-9.83Z" fill="#fff" stroke-width="0"/><path d="m374.9,213.59h-1.33v-9.83h3.22c2.41,0,3.34,1.25,3.34,2.68,0,2.08-1.55,2.92-3,2.92h-2.23v4.23Zm1.83-5.36c1.31,0,2.01-.57,2.01-1.7,0-1.34-.92-1.64-2.01-1.64h-1.83v3.34h1.83Z" fill="#fff" stroke-width="0"/><path d="m391.94,208.69c0,.79-.06,5.08-3.68,5.08-1.67,0-3.68-1.13-3.68-5.08s1.97-5.1,3.68-5.1,3.68,1.13,3.68,5.1Zm-5.97,0c0,1.43.28,3.89,2.29,3.89s2.29-2.45,2.29-3.89-.28-3.91-2.29-3.91-2.29,2.45-2.29,3.91Z" fill="#fff" stroke-width="0"/><path d="m397.45,203.51l.8,6.91h.04l1.73-4.83h.36l1.73,4.83h.04l.82-6.91,1.35.15-1.49,10.17h-.46l-2.17-6.06-2.17,6.06h-.46l-1.49-10.17,1.37-.15Z" fill="#fff" stroke-width="0"/><path d="m409.28,203.76h6.47v1.13h-5.13v2.94h4.24v1.13h-4.24v3.49h5.13v1.13h-6.47v-9.83Z" fill="#fff" stroke-width="0"/><path d="m421.06,203.76h3.52c1.73,0,3.1.77,3.1,2.68,0,1.21-.86,2.4-2.11,2.76l2.55,3.98-1.15.66-2.65-4.45h-1.93v4.21h-1.33v-9.83Zm3.08,4.49c1.29,0,2.15-.7,2.15-1.81,0-.89-.56-1.55-1.75-1.55h-2.15v3.36h1.75Z" fill="#fff" stroke-width="0"/><path d="m433.16,203.76h6.47v1.13h-5.13v2.94h4.24v1.13h-4.24v3.49h5.13v1.13h-6.47v-9.83Z" fill="#fff" stroke-width="0"/><path d="m444.34,203.76h3.46c2.94,0,4.28,1.15,4.28,4.79,0,3.08-.56,5.04-4.28,5.04h-3.46v-1.13h1.07v-7.57h-1.07v-1.13Zm2.41,8.7h1.41c1.75,0,2.53-.94,2.53-3.77,0-3.02-.92-3.79-2.57-3.79h-1.37v7.57Z" fill="#fff" stroke-width="0"/><path d="m468.28,213.59v-1.13h1.07v-7.57h-1.07v-1.13h3.26c2.63,0,3.76.94,3.76,2.62,0,.85-.38,1.6-1.17,2.02,1.13.34,1.77,1.26,1.77,2.38,0,1.77-1.23,2.81-3.4,2.81h-4.22Zm3.9-5.62c1.15,0,1.73-.7,1.73-1.58,0-1.17-.88-1.49-1.81-1.49h-1.41v3.08h1.49Zm.06,4.49c1.17,0,2.27-.25,2.27-1.58,0-.98-.68-1.77-1.95-1.77h-1.87v3.36h1.55Z" fill="#fff" stroke-width="0"/><path d="m486.52,203.51l1.25.62-3.36,5.66v3.79h-1.33v-3.79l-3.34-5.66,1.25-.62,2.77,5.06,2.77-5.06Z" fill="#fff" stroke-width="0"/><path d="m504.89,201h3.58c1.31,0,2.96,1.08,2.96,3.34,0,1.55-.66,3.02-2.29,3.55l2.75,5.4-1.19.55-2.98-5.85h-1.49v5.61h-1.33v-12.59Zm1.33,5.85h1.95c1.15,0,1.87-.81,1.87-2.51s-.84-2.21-2.19-2.21h-1.63v4.72Z" fill="#fff" stroke-width="0"/><path d="m517.76,209.71l-1.03,4.13-1.31-.34,3.36-12.5h1.59l3.36,12.5-1.31.34-1.03-4.13h-3.62Zm1.83-7.02h-.04l-1.47,5.89h2.99l-1.47-5.89Z" fill="#fff" stroke-width="0"/><path d="m535.64,201l-1.33,12.83h-.58l-2.21-7.61h-.04l-2.21,7.61h-.58l-1.33-12.83,1.33-.25.64,9.46h.04l1.93-6.62h.4l1.93,6.62h.04l.64-9.46,1.33.25Z" fill="#fff" stroke-width="0"/><path d="m546.95,212.67c-.86.66-1.97,1.09-3.08,1.09-3.42,0-4.02-3.93-4.02-6.44,0-2.36.58-6.49,3.88-6.49,1.49,0,2.59.87,3.32,2.02l-1.17.68c-.48-.81-1.17-1.51-2.23-1.51-2.21,0-2.41,3.85-2.41,5.34,0,4.32,1.33,5.21,2.65,5.21.56,0,1.27-.23,1.73-.58v-3.79h-2.49v-1.13h3.82v5.61Z" fill="#fff" stroke-width="0"/><path d="m565.49,210.91l-.97,2.93-1.31-.45,3.26-9.63h1.71l3.26,9.63-1.31.45-.96-2.93h-3.68Zm1.83-5.68l-1.47,4.55h2.94l-1.47-4.55Z" fill="#fff" stroke-width="0"/><path d="m577.84,213.59h-1.33v-9.83h3.22c2.41,0,3.34,1.25,3.34,2.68,0,2.08-1.55,2.92-3,2.92h-2.23v4.23Zm1.83-5.36c1.31,0,2.01-.57,2.01-1.7,0-1.34-.92-1.64-2.01-1.64h-1.83v3.34h1.83Z" fill="#fff" stroke-width="0"/><path d="m589.07,212.46h1.45v-7.57h-1.45v-1.13h4.26v1.13h-1.47v7.57h1.47v1.13h-4.26v-1.13Z" fill="#fff" stroke-width="0"/></g><path d="m854.76,151.74c0,2.33-1.98,4.2-4.42,4.2s-4.42-1.88-4.42-4.2,1.98-4.19,4.42-4.19,4.42,1.88,4.42,4.19Z" fill="url(#h)" opacity=".2" stroke-width="0"/></g><path d="m181.44,119c-5.46,0-9.9-4.05-9.9-9.02v-6.7h-3.87v6.7c0,4.97-4.44,9.02-9.9,9.02s-9.9-4.05-9.9-9.02v-6.7h-6.85c-5.46,0-9.9-4.05-9.9-9.02s4.44-9.02,9.9-9.02h6.85v-3.53h-6.85c-5.46,0-9.9-4.05-9.9-9.02s4.44-9.02,9.9-9.02h6.85v-6.7c0-4.97,4.44-9.02,9.9-9.02s9.9,4.05,9.9,9.02v6.7h3.87v-6.7c0-4.97,4.44-9.02,9.9-9.02s9.9,4.05,9.9,9.02v6.7h7.86c5.46,0,9.9,4.05,9.9,9.02s-4.44,9.02-9.9,9.02h-7.86v3.53h7.86c5.46,0,9.9,4.05,9.9,9.02s-4.44,9.02-9.9,9.02h-7.86v6.7c0,4.97-4.44,9.02-9.9,9.02Zm-17.33-18.95h10.98v9.68c0,3.02,2.42,5.72,5.72,6.01,3.79.34,6.98-2.38,6.98-5.75v-9.93h11.13c3.31,0,6.28-2.2,6.6-5.21.37-3.45-2.61-6.36-6.32-6.36h-11.41v-10h11.13c3.31,0,6.28-2.2,6.6-5.21.37-3.45-2.61-6.36-6.32-6.36h-11.41v-9.68c0-3.02-2.42-5.72-5.72-6.01-3.78-.34-6.98,2.38-6.98,5.75v9.93h-10.98v-9.68c0-3.02-2.42-5.72-5.72-6.01-3.78-.34-6.98,2.38-6.98,5.75v9.93h-13.42c-6.43,5.07-2.53,11.57,3.02,11.57h10.41v10h-10.12c-3.31,0-6.28,2.2-6.6,5.21-.37,3.45,2.61,6.36,6.32,6.36h10.41v9.68c0,3.02,2.42,5.72,5.72,6.01,3.78.34,6.98-2.38,6.98-5.75v-9.93Zm10.98-11.57h-10.98v-10h10.98v10Zm-7.42-3.24h3.87v-3.53h-3.87v3.53Z" fill="aqua" stroke-width="0"/></g></svg>