<?xml version="1.0" encoding="UTF-8"?><svg id="b" xmlns="http://www.w3.org/2000/svg" xmlns:xlink="http://www.w3.org/1999/xlink" viewBox="0 0 1080 1920"><defs><clipPath id="r"><path d="m842.27,229H237.73c-12.78,12.78-19.95,19.95-32.73,32.73v834.55c12.78,12.78,19.95,19.95,32.73,32.73h604.55c12.78-12.78,19.95-19.95,32.73-32.73V261.73l-32.73-32.73Z" fill="none" stroke-width="0"/></clipPath></defs><g id="c" isolation="isolate"><g id="d"><rect width="1080" height="1920" fill="#161414" stroke-width="0"/></g><g id="e"><g id="f"><path d="m386.77,154L129,438.67v1328.33h528.37l293.63-325.93V154H386.77Zm563.23,1286.61l-293.05,325.28H173.06c-16.82-18.57-26.25-28.98-43.06-47.56V439.13L387.18,155.1h520.18c16.65,18.39,25.98,28.7,42.63,47.08v1238.42Z" fill="#f3f3f3" stroke-width="0"/></g><g id="g"><path d="m132.91,156.5c-3.56,0-6.44,2.87-6.44,6.41s2.88,6.41,6.44,6.41,6.44-2.87,6.44-6.41-2.88-6.41-6.44-6.41Zm0,96.18c-3.56,0-6.44,2.87-6.44,6.41s2.88,6.41,6.44,6.41,6.44-2.87,6.44-6.41-2.88-6.41-6.44-6.41Zm101.11-96.18c-3.56,0-6.44,2.87-6.44,6.41s2.88,6.41,6.44,6.41,6.44-2.87,6.44-6.41-2.88-6.41-6.44-6.41Z" fill="#f3f3f3" stroke-width="0"/></g><g id="h"><image id="i" width="237" height="237" transform="translate(693 1478)" xlink:href="../../../../../../AppData/Local/Temp/AI_27_8/Adobe/AISVG/2/Asset 1/Asset 11.png"/><g id="j"><rect x="788.95" y="1512.94" width="45.11" height="62.82" fill="#282828" stroke-width="0"/><rect x="788.95" y="1617.23" width="45.11" height="62.82" fill="#282828" stroke-width="0"/><rect x="834.05" y="1575.77" width="68.35" height="41.46" fill="#282828" stroke-width="0"/><rect x="720.6" y="1575.77" width="68.35" height="41.46" fill="#282828" stroke-width="0"/></g></g><g id="k"><polygon points="875 1183.83 872.18 1181 828.98 1224.33 828.98 1181.76 825 1181.76 825 1231 874.08 1231 874.08 1227 831.96 1227 875 1183.83" fill="#f3f3f3" stroke-width="0"/></g><g id="l"><polygon points="917.75 1767.08 950.75 1767.08 950.75 1734.07 917.75 1767.08" fill="#f3f3f3" stroke-width="0"/></g><g id="m"><path d="m204,1705h13v-13h-13v13Zm30,0h13v-13h-13v13Zm28-13v13h13v-13h-13Z" fill="#f3f3f3" stroke-width="0"/></g><g id="n"><polygon points="533.15 1577.13 533.15 1602.53 545.85 1589.83 533.15 1577.13" fill="#f3f3f3" stroke-width="0"/></g><g id="o"><rect x="203" y="1418" width="58.79" height="58.99" fill="#f3f3f3" stroke-width="0"/></g></g><g id="p"><g id="q"><g clip-path="url(#r)"><g id="s" isolation="isolate"><g id="t"><image id="u" width="1080" height="1920" xlink:href="../../../../../../AppData/Local/Temp/AI_27_8/Adobe/AISVG/2/Asset 1/Asset 12.png"/><image width="393" height="102" transform="translate(214.37 259.09) scale(1.68 1.75)" xlink:href="M:\WebDev\envato elements\graphic templates\futuristic-game-ui-with-hud-2023-07-18-22-24-15-utc\Main\transparent png files\spaceship_select_button_SELECTED.png"/></g><image width="190" height="212" transform="translate(230.88 372.98) scale(3.25 2.77)" xlink:href="M:\WebDev\envato elements\graphic templates\futuristic-game-ui-with-hud-2023-07-18-22-24-15-utc\Main\transparent png files\play_button_normal.png"/></g><image width="506" height="127" transform="translate(280.25 890.04) scale(1.05 1.53)" xlink:href="M:\WebDev\envato elements\graphic templates\futuristic-game-ui-with-hud-2023-07-18-22-24-15-utc\Main\transparent png files\lower_lines_pause_screen.png"/></g></g></g><g id="v"><g id="w"><path d="m203.7,1604.62c.07-.63.29-.95.68-.95h5.37c.24,0,.43.17.55.52.12.35.15.71.08,1.09-.17.89-.26,1.81-.26,2.76,0,.89.09,1.77.26,2.66.07.38.03.75-.1,1.09-.14.35-.31.52-.52.52h-5.37c-.38,0-.61-.35-.68-1.05-.1-1.08-.16-2.15-.16-3.23,0-1.14.05-2.28.16-3.42Zm-.16,41.07c0-.32.07-.6.21-.86.14-.25.29-.38.47-.38h32.85c.24,0,.43.22.57.67.14.44.12.86-.05,1.24-.97,2.66-2.25,4.77-3.83,6.32-1.58,1.55-3.28,2.33-5.08,2.33h-24.45c-.17,0-.33-.11-.47-.33-.14-.22-.21-.52-.21-.9v-8.08Zm1.3-28.33c-.14-.44-.14-.86,0-1.24.14-.38.33-.57.57-.57,2.47,0,6.29.02,11.47.05,5.18.03,9.11.05,11.78.05,1.32,0,2.59.43,3.81,1.28,1.22.86,2.3,2.04,3.26,3.57.96,1.52,1.73,3.26,2.32,5.23.14.44.15.86.03,1.24-.12.38-.32.57-.6.57h-24.4c-1.77-.38-3.38-1.47-4.82-3.28-1.44-1.81-2.58-4.1-3.42-6.89Zm9.49-28.99h24.45c.17,0,.33.13.47.38.14.25.21.54.21.86v9.51c0,.38-.07.68-.21.9-.14.22-.3.33-.47.33-3.68,0-9.24.02-16.66.05-7.42.03-12.97.05-16.66.05-.28,0-.48-.21-.6-.62-.12-.41-.11-.81.03-1.19.9-3.1,2.2-5.59,3.88-7.46,1.69-1.87,3.54-2.8,5.55-2.8Zm18.25,44.11c-.07-.38-.04-.76.08-1.14.12-.38.3-.57.55-.57h5.42c.38,0,.61.35.68,1.05.1,1.2.16,2.38.16,3.52,0,1.71-.12,3.39-.37,5.04-.07.57-.28.86-.63.86h-5.63c-.24,0-.44-.21-.57-.62-.14-.41-.14-.81,0-1.19.42-1.27.63-2.63.63-4.09,0-.95-.1-1.9-.31-2.85Z" fill="#f6f6f6" stroke-width="0"/><path d="m255.1,1589.6c0-.25.03-.48.08-.67.05-.19.13-.33.23-.43.1-.1.23-.14.36-.14h5.16c.21,0,.37.13.5.38.12.25.18.54.18.86v9.6c0,.19-.03.38-.08.57-.05.19-.13.35-.23.47-.1.13-.23.19-.36.19h-5.16c-.17,0-.33-.13-.47-.38-.14-.25-.21-.54-.21-.86v-9.6Zm0,15.21c0-.32.07-.58.21-.81.14-.22.29-.33.47-.33h5.16c.21,0,.37.11.5.33.12.22.18.49.18.81v6.27c0,.32-.06.6-.18.86-.12.25-.29.38-.5.38h-5.16c-.14,0-.26-.06-.36-.19-.1-.13-.18-.29-.23-.47-.05-.19-.08-.38-.08-.57v-6.27Zm0,11.98c0-.38.07-.68.21-.9.14-.22.29-.33.47-.33h5.16c.14,0,.26.05.36.14.1.09.18.24.23.43s.08.41.08.67v9.6c0,.19-.03.38-.08.57s-.13.33-.23.43c-.1.09-.23.14-.36.14h-5.16c-.17,0-.33-.11-.47-.33-.14-.22-.21-.49-.21-.81v-9.6Zm0,15.21c0-.32.07-.6.21-.86.14-.25.29-.38.47-.38h5.16c.21,0,.37.13.5.38.12.25.18.54.18.86v7.99c0,.38-.06.68-.18.9-.12.22-.29.33-.5.33h-5.16c-.14,0-.26-.05-.36-.14-.1-.1-.18-.24-.23-.43-.05-.19-.08-.41-.08-.67v-7.99Zm0,13.69c0-.32.07-.6.21-.86.14-.25.29-.38.47-.38h5.16c.21,0,.37.13.5.38.12.25.18.54.18.86v8.08c0,.38-.06.68-.18.9-.12.22-.29.33-.5.33h-5.16c-.14,0-.26-.05-.36-.14-.1-.09-.18-.24-.23-.43-.05-.19-.08-.41-.08-.67v-8.08Z" fill="#f6f6f6" stroke-width="0"/><path d="m312.51,1600.34c-3.82,0-9.58.02-17.28.05-7.7.03-13.46.05-17.28.05-.17,0-.33-.13-.47-.38-.14-.25-.21-.54-.21-.86v-9.6c0-.32.07-.6.21-.86.14-.25.29-.38.47-.38h34.57c.21,0,.37.13.5.38.12.25.18.54.18.86v9.51c0,.38-.06.68-.18.9-.12.22-.29.33-.5.33Zm-28.73,10.74c0,.32-.06.6-.18.86-.12.25-.29.38-.5.38h-5.16c-.14,0-.26-.06-.36-.19-.1-.13-.18-.29-.23-.47-.05-.19-.08-.38-.08-.57v-6.27c0-.32.07-.58.21-.81.14-.22.29-.33.47-.33h5.16c.21,0,.37.11.5.33.12.22.18.49.18.81v6.27Zm-6.52,11.03v-5.32c0-.38.07-.68.21-.9.14-.22.29-.33.47-.33h5.16c.21,0,.37.11.5.33.12.22.18.52.18.9v5.23c0,1.39.07,2.76.21,4.09.07.38.03.71-.1,1-.14.29-.31.43-.52.43h-5.27c-.38,0-.61-.35-.68-1.05-.1-1.39-.16-2.85-.16-4.37Zm.89,10.27c-.07-.38-.04-.74.1-1.09.14-.35.33-.52.57-.52h5.63c.28,0,.47.22.57.67.87,3.04,2.07,5.58,3.6,7.61.24.32.32.76.23,1.33-.09.57-.3.86-.65.86h-7.19c-.24,0-.44-.16-.57-.48-.97-2.6-1.74-5.39-2.29-8.37Zm5.16,14.16c-.24-.32-.3-.74-.18-1.28.12-.54.34-.81.65-.81h28.73c.21,0,.37.13.5.38.12.25.18.54.18.86v7.99c0,.32-.06.6-.18.86-.12.25-.29.38-.5.38h-17.26c-4.55,0-8.53-2.79-11.94-8.37Zm29.88-20.15c0,.32-.06.59-.18.81-.12.22-.29.33-.5.33h-21.53c-.17,0-.33-.13-.47-.38-.14-.25-.21-.54-.21-.86v-9.51c0-.19.03-.38.1-.57.07-.19.16-.33.26-.43.1-.09.21-.14.31-.14h21.53c.21,0,.37.11.5.33.12.22.18.49.18.81v9.6Zm0,13.59c0,.38-.06.68-.18.9-.12.22-.29.33-.5.33h-5.16c-.17,0-.33-.11-.47-.33-.14-.22-.21-.52-.21-.9v-7.99c0-.32.07-.6.21-.86.14-.25.29-.38.47-.38h5.16c.14,0,.26.06.37.19.1.13.18.29.23.48.05.19.08.38.08.57v7.99Z" fill="#f6f6f6" stroke-width="0"/><path d="m328.83,1589.6c0-.32.07-.6.21-.86.14-.25.29-.38.47-.38h27.69c1.77,0,3.34,1,4.69,2.99s2.24,4.52,2.66,7.56c.07.38.03.73-.1,1.04-.14.32-.31.48-.52.48h-34.41c-.17,0-.33-.13-.47-.38-.14-.25-.21-.54-.21-.86v-9.6Zm0,15.21c0-.32.07-.58.21-.81.14-.22.29-.33.47-.33h5.16c.21,0,.37.11.5.33.12.22.18.49.18.81v6.27c0,.25-.03.46-.08.62-.05.16-.13.3-.23.43-.1.13-.23.19-.36.19h-5.16c-.14,0-.26-.06-.36-.19-.1-.13-.18-.29-.23-.47-.05-.19-.08-.38-.08-.57v-6.27Zm0,11.98c0-.38.07-.68.21-.9.14-.22.29-.33.47-.33h5.16c.14,0,.26.05.36.14.1.09.18.24.23.43s.08.41.08.67v9.6c0,.19-.03.38-.08.57s-.13.33-.23.43c-.1.09-.23.14-.36.14h-5.16c-.17,0-.33-.11-.47-.33-.14-.22-.21-.49-.21-.81v-9.6Zm0,15.21c0-.19.03-.38.08-.57s.13-.35.23-.48c.1-.13.23-.19.36-.19h5.16c.21,0,.37.13.5.38.12.25.18.54.18.86v7.99c0,.38-.06.68-.18.9-.12.22-.29.33-.5.33h-5.16c-.17,0-.33-.11-.47-.33-.14-.22-.21-.52-.21-.9v-7.99Zm0,13.69c0-.32.07-.6.21-.86.14-.25.29-.38.47-.38h5.16c.21,0,.37.13.5.38.12.25.18.54.18.86v7.7c0,.82-.23,1.24-.68,1.24h-5.16c-.17,0-.33-.13-.47-.38-.14-.25-.21-.54-.21-.86v-7.7Zm29.41-40.88c0-.32.07-.58.21-.81.14-.22.29-.33.47-.33h5.16c.21,0,.37.11.5.33.12.22.18.49.18.81v6.27c0,.25-.03.46-.08.62-.05.16-.13.3-.23.43-.1.13-.23.19-.37.19h-5.16c-.17,0-.33-.13-.47-.38-.14-.25-.21-.54-.21-.86v-6.27Zm0,11.98c0-.38.07-.68.21-.9.14-.22.29-.33.47-.33h5.16c.21,0,.37.11.5.33.12.22.18.52.18.9v9.6c0,.32-.06.59-.18.81-.12.22-.29.33-.5.33h-5.16c-.17,0-.33-.11-.47-.33-.14-.22-.21-.49-.21-.81v-9.6Zm0,15.21c0-.19.03-.38.08-.57.05-.19.13-.35.23-.48.1-.13.23-.19.36-.19h5.16c.14,0,.26.06.37.19.1.13.18.29.23.48.05.19.08.38.08.57v7.99c0,.38-.06.68-.18.9-.12.22-.29.33-.5.33h-5.16c-.14,0-.26-.05-.36-.14-.1-.1-.18-.24-.23-.43-.05-.19-.08-.41-.08-.67v-7.99Zm0,13.69c0-.32.07-.6.21-.86.14-.25.29-.38.47-.38h5.16c.21,0,.37.13.5.38.12.25.18.54.18.86v7.7c0,.32-.06.6-.18.86-.12.25-.29.38-.5.38h-5.16c-.17,0-.33-.13-.47-.38-.14-.25-.21-.54-.21-.86v-7.7Z" fill="#f6f6f6" stroke-width="0"/><path d="m411.1,1599.2v-9.6c0-.32.07-.6.21-.86.14-.25.29-.38.47-.38h5.16c.21,0,.37.13.5.38.12.25.18.54.18.86v9.6c0,.19-.03.38-.08.57-.05.19-.13.35-.23.47-.1.13-.23.19-.36.19h-5.16c-.17,0-.33-.13-.47-.38-.14-.25-.21-.54-.21-.86Zm0,5.61c0-.32.07-.58.21-.81.14-.22.29-.33.47-.33h5.16c.21,0,.37.11.5.33.12.22.18.49.18.81v6.27c0,.25-.03.46-.08.62-.05.16-.13.3-.23.43-.1.13-.23.19-.36.19h-5.16c-.17,0-.33-.13-.47-.38-.14-.25-.21-.54-.21-.86v-6.27Zm0,11.98c0-.38.07-.68.21-.9.14-.22.29-.33.47-.33h5.16c.21,0,.37.11.5.33.12.22.18.52.18.9v5.23c0,1.39.07,2.76.21,4.09.07.38.03.71-.1,1-.14.29-.31.43-.52.43h-5.27c-.38,0-.61-.35-.68-1.05-.1-1.46-.16-2.91-.16-4.37v-5.32Zm.89,15.59c-.07-.38-.04-.74.1-1.09.14-.35.33-.52.57-.52h5.63c.28,0,.47.22.57.67.87,3.04,2.07,5.58,3.6,7.61.24.32.32.76.23,1.33-.09.57-.3.86-.65.86h-7.19c-.24,0-.44-.16-.57-.48-.97-2.6-1.74-5.39-2.29-8.37Zm5.16,14.16c-.24-.32-.3-.74-.18-1.28.12-.54.34-.81.65-.81h28.73c.21,0,.37.13.5.38.12.25.18.54.18.86v7.99c0,.32-.06.6-.18.86-.12.25-.29.38-.5.38h-17.26c-4.55,0-8.53-2.79-11.94-8.37Zm29.88-47.34c0,.32-.06.6-.18.86-.12.25-.29.38-.5.38h-5.16c-.17,0-.33-.13-.47-.38-.14-.25-.21-.54-.21-.86v-9.6c0-.32.07-.6.21-.86.14-.25.29-.38.47-.38h5.16c.21,0,.37.13.5.38.12.25.18.54.18.86v9.6Zm0,11.88c0,.32-.06.6-.18.86-.12.25-.29.38-.5.38h-5.16c-.17,0-.33-.13-.47-.38-.14-.25-.21-.54-.21-.86v-6.27c0-.32.07-.58.21-.81.14-.22.29-.33.47-.33h5.16c.21,0,.37.11.5.33.12.22.18.49.18.81v6.27Zm0,15.3c0,.32-.06.59-.18.81-.12.22-.29.33-.5.33h-5.16c-.17,0-.33-.11-.47-.33-.14-.22-.21-.49-.21-.81v-9.6c0-.38.07-.68.21-.9.14-.22.29-.33.47-.33h5.16c.21,0,.37.11.5.33.12.22.18.52.18.9v9.6Zm0,13.59c0,.38-.06.68-.18.9-.12.22-.29.33-.5.33h-5.16c-.14,0-.26-.05-.36-.14-.1-.1-.18-.24-.23-.43-.05-.19-.08-.41-.08-.67v-7.99c0-.32.07-.6.21-.86.14-.25.29-.38.47-.38h5.16c.14,0,.26.06.37.19.1.13.18.29.23.48.05.19.08.38.08.57v7.99Z" fill="#f6f6f6" stroke-width="0"/><path d="m462.66,1591.41v-1.81c0-.32.07-.6.21-.86.14-.25.29-.38.47-.38h23.67c2.22,0,4.15.94,5.79,2.8,1.63,1.87,2.9,4.36,3.81,7.46.1.38.09.78-.05,1.19-.14.41-.33.62-.57.62h-32.64c-.17,0-.33-.13-.47-.38-.14-.25-.21-.54-.21-.86v-7.79Zm0,13.4c0-.32.07-.58.21-.81.14-.22.29-.33.47-.33h5.16c.21,0,.37.11.5.33.12.22.18.49.18.81v6.27c0,.32-.06.6-.18.86-.12.25-.29.38-.5.38h-5.16c-.14,0-.26-.06-.36-.19-.1-.13-.18-.29-.23-.47-.05-.19-.08-.38-.08-.57v-6.27Zm0,11.98c0-.38.07-.68.21-.9.14-.22.29-.33.47-.33h32.9c.24,0,.43.19.57.57.14.38.14.76,0,1.14-.8,3.11-2.03,5.59-3.7,7.46-1.67,1.87-3.7,2.8-6.1,2.8h-23.67c-.17,0-.33-.11-.47-.33-.14-.22-.21-.49-.21-.81v-9.6Zm0,15.21c0-.19.03-.38.08-.57s.13-.35.23-.48c.1-.13.23-.19.36-.19h5.16c.14,0,.26.06.36.19.1.13.18.29.23.48s.08.38.08.57v7.99c0,.19-.02.37-.05.52-.03.16-.08.29-.13.38-.05.09-.12.17-.21.24-.09.06-.18.1-.29.1h-5.16c-.14,0-.26-.05-.36-.14-.1-.1-.18-.24-.23-.43-.05-.19-.08-.41-.08-.67v-7.99Zm0,13.69c0-.32.07-.6.21-.86.14-.25.29-.38.47-.38h5.16c.21,0,.37.13.5.38.12.25.18.54.18.86v8.08c0,.38-.06.68-.18.9-.12.22-.29.33-.5.33h-5.16c-.17,0-.33-.11-.47-.33-.14-.22-.21-.52-.21-.9v-8.08Zm28.1-40.4c-.07-.44-.04-.82.1-1.14.14-.32.31-.48.52-.48h5.63c.38,0,.61.32.68.95.21,2.22.24,4.44.1,6.65-.04.7-.26,1.05-.68,1.05h-5.68c-.24,0-.43-.17-.55-.52-.12-.35-.15-.71-.08-1.09.31-1.84.29-3.64-.05-5.42Z" fill="#f6f6f6" stroke-width="0"/></g><g id="x"><path d="m204.09,1186.52c0-.28.11-.53.33-.75.22-.22.47-.33.75-.33h44.12c2.83,0,5.32.87,7.48,2.62,2.16,1.75,3.57,3.95,4.24,6.61.11.33.05.64-.17.91-.22.28-.5.42-.83.42h-54.84c-.28,0-.53-.11-.75-.33-.22-.22-.33-.47-.33-.75v-8.39Zm0,13.29c0-.28.11-.51.33-.71.22-.19.47-.29.75-.29h8.23c.33,0,.59.1.79.29.19.19.29.43.29.71v5.48c0,.22-.04.4-.12.54-.08.14-.21.26-.37.37-.17.11-.36.17-.58.17h-8.23c-.22,0-.42-.05-.58-.17-.17-.11-.29-.25-.37-.42s-.12-.33-.12-.5v-5.48Zm0,10.47c0-.33.11-.59.33-.79.22-.19.47-.29.75-.29h8.23c.22,0,.42.04.58.12s.29.21.37.37.12.36.12.58v8.39c0,.17-.04.33-.12.5s-.21.29-.37.37-.36.12-.58.12h-8.23c-.28,0-.53-.1-.75-.29-.22-.19-.33-.43-.33-.71v-8.39Zm0,13.29c0-.17.04-.33.12-.5s.21-.3.37-.42c.17-.11.36-.17.58-.17h8.23c.33,0,.59.11.79.33.19.22.29.47.29.75v6.98c0,.33-.1.6-.29.79-.19.19-.46.29-.79.29h-8.23c-.28,0-.53-.1-.75-.29-.22-.19-.33-.46-.33-.79v-6.98Zm0,11.97c0-.28.11-.53.33-.75s.47-.33.75-.33h8.23c.33,0,.59.11.79.33.19.22.29.47.29.75v6.73c0,.72-.36,1.08-1.08,1.08h-8.23c-.28,0-.53-.11-.75-.33-.22-.22-.33-.47-.33-.75v-6.73Zm46.86-35.73c0-.28.11-.51.33-.71.22-.19.47-.29.75-.29h8.23c.33,0,.59.1.79.29.19.19.29.43.29.71v5.48c0,.22-.04.4-.12.54-.08.14-.21.26-.37.37-.17.11-.36.17-.58.17h-8.23c-.28,0-.53-.11-.75-.33-.22-.22-.33-.47-.33-.75v-5.48Zm0,10.47c0-.33.11-.59.33-.79.22-.19.47-.29.75-.29h8.23c.33,0,.59.1.79.29.19.2.29.46.29.79v8.39c0,.28-.1.51-.29.71-.19.19-.46.29-.79.29h-8.23c-.28,0-.53-.1-.75-.29-.22-.19-.33-.43-.33-.71v-8.39Zm0,13.29c0-.17.04-.33.12-.5.08-.17.21-.3.37-.42.17-.11.36-.17.58-.17h8.23c.22,0,.42.06.58.17.17.11.29.25.37.42.08.17.12.33.12.5v6.98c0,.33-.1.6-.29.79-.19.19-.46.29-.79.29h-8.23c-.22,0-.42-.04-.58-.12-.17-.08-.29-.21-.37-.37-.08-.17-.12-.36-.12-.58v-6.98Zm0,11.97c0-.28.11-.53.33-.75.22-.22.47-.33.75-.33h8.23c.33,0,.59.11.79.33.19.22.29.47.29.75v6.73c0,.28-.1.53-.29.75-.19.22-.46.33-.79.33h-8.23c-.28,0-.53-.11-.75-.33-.22-.22-.33-.47-.33-.75v-6.73Z" fill="#f6f6f6" stroke-width="0"/><path d="m269.65,1186.86v-.33c0-.28.11-.53.33-.75.22-.22.47-.33.75-.33h55.09c.33,0,.59.11.79.33.19.22.29.47.29.75v8.23c0,.33-.1.6-.29.79-.19.19-.46.29-.79.29-6.15,0-15.34.03-27.59.08-12.24.06-21.41.08-27.5.08-.28,0-.53-.11-.75-.33-.22-.22-.33-.47-.33-.75v-8.06Zm0,12.96c0-.28.11-.51.33-.71.22-.19.47-.29.75-.29h8.23c.33,0,.59.1.79.29.19.19.29.43.29.71v5.48c0,.28-.1.53-.29.75-.19.22-.46.33-.79.33h-8.23c-.22,0-.42-.05-.58-.17-.17-.11-.29-.25-.37-.42s-.12-.33-.12-.5v-5.48Zm0,10.47c0-.33.11-.59.33-.79.22-.19.47-.29.75-.29h39.05c.17,0,.33.04.5.12.17.08.3.21.42.37.11.17.17.36.17.58v6.31c0,.17-.03.32-.08.46-.06.14-.14.25-.25.33-.11.08-.22.15-.33.21-.11.06-.25.08-.42.08h-28.25c-.33,0-.6.14-.79.42-.19.28-.26.58-.21.91.05.22.11.44.17.66h-9.72c-.61,0-.97-.3-1.08-.91-.17-1.22-.25-2.49-.25-3.82v-4.65Zm1.41,13.63c-.11-.33-.06-.65.17-.96.22-.3.53-.46.91-.46h8.97c.44,0,.75.2.91.58,1.38,2.66,3.29,4.88,5.73,6.65.44.28.58.66.42,1.16-.17.5-.53.75-1.08.75h-11.47c-.39,0-.69-.14-.91-.42-1.55-2.27-2.77-4.71-3.66-7.31Zm8.23,12.38c-.39-.28-.49-.65-.29-1.12.19-.47.54-.71,1.04-.71h45.78c.33,0,.59.11.79.33.19.22.29.47.29.75v6.98c0,.28-.1.53-.29.75-.19.22-.46.33-.79.33h-27.5c-7.26,0-13.6-2.44-19.03-7.31Z" fill="#f6f6f6" stroke-width="0"/><path d="m336.29,1196c-.28,0-.53-.11-.75-.33-.22-.22-.33-.47-.33-.75v-8.39c0-.28.11-.53.33-.75.22-.22.47-.33.75-.33h8.23c.33,0,.59.11.79.33.19.22.29.47.29.75v8.39c0,.28-.1.53-.29.75-.19.22-.46.33-.79.33h-8.23Zm0,10.39c-.22,0-.42-.05-.58-.17-.17-.11-.29-.25-.37-.42s-.12-.33-.12-.5v-5.48c0-.28.11-.51.33-.71.22-.19.47-.29.75-.29h8.23c.33,0,.59.1.79.29.19.19.29.43.29.71v5.48c0,.28-.1.53-.29.75-.19.22-.46.33-.79.33h-8.23Zm0,13.29c-.28,0-.53-.1-.75-.29-.22-.19-.33-.43-.33-.71v-8.39c0-.33.11-.59.33-.79.22-.19.47-.29.75-.29h8.23c.33,0,.59.1.79.29.19.2.29.46.29.79v8.39c0,.28-.1.51-.29.71-.19.19-.46.29-.79.29h-8.23Zm0,11.97c-.28,0-.53-.1-.75-.29-.22-.19-.33-.46-.33-.79v-6.98c0-.28.11-.53.33-.75s.47-.33.75-.33h8.23c.22,0,.42.06.58.17.17.11.29.25.37.42s.12.33.12.5v6.98c0,.33-.1.6-.29.79-.19.19-.46.29-.79.29h-8.23Zm60.24,3.28c.22.3.25.65.08,1.04-.89,2.27-2.34,4.11-4.36,5.53-2.02,1.41-4.28,2.12-6.77,2.12h-49.19c-.28,0-.53-.11-.75-.33-.22-.22-.33-.47-.33-.75v-6.98c0-.28.11-.53.33-.75s.47-.33.75-.33h59.41c.33,0,.61.15.83.46Zm-35.4-40.01v-8.39c0-.28.11-.53.33-.75.22-.22.47-.33.75-.33h8.31c.28,0,.51.11.71.33.19.22.29.47.29.75v8.39c0,.28-.1.53-.29.75-.19.22-.43.33-.71.33h-8.31c-.28,0-.53-.11-.75-.33-.22-.22-.33-.47-.33-.75Zm1.08,11.47c-.28,0-.53-.11-.75-.33-.22-.22-.33-.47-.33-.75v-5.48c0-.28.11-.51.33-.71.22-.19.47-.29.75-.29h8.31c.28,0,.51.1.71.29.19.19.29.43.29.71v5.48c0,.28-.1.53-.29.75-.19.22-.43.33-.71.33h-8.31Zm0,13.29c-.28,0-.53-.1-.75-.29-.22-.19-.33-.43-.33-.71v-8.39c0-.33.11-.59.33-.79.22-.19.47-.29.75-.29h8.31c.28,0,.51.1.71.29.19.2.29.46.29.79v8.39c0,.28-.1.51-.29.71-.19.19-.43.29-.71.29h-8.31Zm0,11.97c-.28,0-.53-.1-.75-.29-.22-.19-.33-.46-.33-.79v-6.98c0-.28.11-.53.33-.75.22-.22.47-.33.75-.33h8.31c.17,0,.33.06.5.17.17.11.29.25.37.42s.12.33.12.5v6.98c0,.33-.1.6-.29.79-.19.19-.43.29-.71.29h-8.31Zm34.23-46.2c.28,0,.53.11.75.33.22.22.33.47.33.75v8.39c0,.28-.11.53-.33.75s-.47.33-.75.33h-8.31c-.28,0-.51-.11-.71-.33-.19-.22-.29-.47-.29-.75v-8.39c0-.28.1-.53.29-.75.19-.22.43-.33.71-.33h8.31Zm0,13.38c.17,0,.33.04.5.12.17.08.3.21.42.37.11.17.17.33.17.5v5.48c0,.28-.11.53-.33.75-.22.22-.47.33-.75.33h-8.31c-.28,0-.51-.11-.71-.33-.19-.22-.29-.47-.29-.75v-5.48c0-.28.1-.51.29-.71.19-.19.43-.29.71-.29h8.31Zm0,10.39c.28,0,.53.1.75.29.22.2.33.46.33.79v8.39c0,.28-.11.51-.33.71-.22.19-.47.29-.75.29h-8.31c-.28,0-.51-.1-.71-.29-.19-.19-.29-.43-.29-.71v-8.39c0-.33.1-.59.29-.79.19-.19.43-.29.71-.29h8.31Zm0,13.29c.28,0,.53.11.75.33.22.22.33.47.33.75v6.98c0,.33-.11.6-.33.79-.22.19-.47.29-.75.29h-8.31c-.28,0-.51-.1-.71-.29-.19-.19-.29-.46-.29-.79v-6.98c0-.28.1-.53.29-.75.19-.22.43-.33.71-.33h8.31Z" fill="#f6f6f6" stroke-width="0"/><path d="m253.28,1293.88c.33.33.4.72.21,1.16-.19.44-.54.67-1.04.67h-47.28c-.28,0-.53-.11-.75-.33-.22-.22-.33-.47-.33-.75v-8.39c0-.28.11-.53.33-.75.22-.22.47-.33.75-.33h27.59c3.93,0,7.67.76,11.22,2.29,3.54,1.52,6.65,3.67,9.31,6.44Zm-49.19,5.65c0-.28.11-.51.33-.71.22-.19.47-.29.75-.29h8.23c.33,0,.59.1.79.29.19.19.29.43.29.71v5.48c0,.28-.1.53-.29.75-.19.22-.46.33-.79.33h-8.23c-.28,0-.53-.11-.75-.33-.22-.22-.33-.47-.33-.75v-5.48Zm57.25,18.86c0,.28-.1.51-.29.71-.19.19-.46.29-.79.29h-55.09c-.28,0-.53-.1-.75-.29-.22-.19-.33-.43-.33-.71v-8.39c0-.33.11-.59.33-.79.22-.19.47-.29.75-.29h54.84c.61,0,.97.3,1.08.91.17,1.33.25,2.66.25,3.99v4.57Zm-57.25,4.9c0-.17.04-.33.12-.5s.21-.3.37-.42c.17-.11.36-.17.58-.17h8.23c.22,0,.42.06.58.17.17.11.29.25.37.42s.12.33.12.5v6.98c0,.33-.1.6-.29.79-.19.19-.46.29-.79.29h-8.23c-.28,0-.53-.1-.75-.29-.22-.19-.33-.46-.33-.79v-6.98Zm0,11.97c0-.28.11-.53.33-.75s.47-.33.75-.33h8.23c.33,0,.59.11.79.33.19.22.29.47.29.75v6.98c0,.28-.1.53-.29.75-.19.22-.46.33-.79.33h-8.23c-.28,0-.53-.11-.75-.33-.22-.22-.33-.47-.33-.75v-6.98Zm55.75-30.58c.11.33.07.65-.12.96-.19.3-.49.46-.87.46h-8.97c-.44,0-.78-.19-1-.58-1-1.94-2.33-3.66-3.99-5.15-.33-.33-.42-.72-.25-1.16.17-.44.5-.66,1-.66h10.64c.44,0,.75.17.91.5,1.11,1.77,1.99,3.66,2.66,5.65Zm1.5,25.59c0,.22-.04.42-.12.58-.08.17-.21.29-.37.37-.17.08-.36.12-.58.12h-8.23c-.28,0-.53-.1-.75-.29-.22-.19-.33-.46-.33-.79v-6.98c0-.28.11-.53.33-.75.22-.22.47-.33.75-.33h8.23c.22,0,.42.06.58.17.17.11.29.25.37.42.08.17.12.33.12.5v6.98Zm0,4.99v6.98c0,.28-.1.53-.29.75-.19.22-.46.33-.79.33h-8.23c-.28,0-.53-.11-.75-.33-.22-.22-.33-.47-.33-.75v-6.98c0-.28.11-.53.33-.75.22-.22.47-.33.75-.33h8.23c.33,0,.59.11.79.33.19.22.29.47.29.75Z" fill="#f6f6f6" stroke-width="0"/><path d="m269.65,1287.81v-1.58c0-.28.11-.53.33-.75.22-.22.47-.33.75-.33h39.05c3.16,0,6.08.82,8.77,2.45,2.69,1.63,4.78,3.81,6.27,6.52.17.33.15.68-.04,1.04-.19.36-.49.54-.87.54h-53.18c-.28,0-.53-.11-.75-.33-.22-.22-.33-.47-.33-.75v-6.81Zm0,11.72c0-.28.11-.51.33-.71.22-.19.47-.29.75-.29h8.23c.33,0,.59.1.79.29.19.19.29.43.29.71v5.48c0,.22-.04.4-.12.54-.08.14-.21.26-.37.37-.17.11-.36.17-.58.17h-8.23c-.22,0-.42-.05-.58-.17-.17-.11-.29-.25-.37-.42s-.12-.33-.12-.5v-5.48Zm0,10.47c0-.33.11-.59.33-.79.22-.19.47-.29.75-.29h53.1c.44,0,.76.18.96.54.19.36.18.71-.04,1.04-.55,1-1.25,1.97-2.08,2.91-.39.44-.39.91,0,1.41.83.94,1.55,1.97,2.16,3.07.17.33.15.66-.04,1-.19.33-.51.5-.96.5h-53.1c-.28,0-.53-.1-.75-.29-.22-.19-.33-.43-.33-.71v-8.39Zm0,13.29c0-.17.04-.33.12-.5s.21-.3.37-.42c.17-.11.36-.17.58-.17h8.39c.28,0,.51.11.71.33.19.22.29.47.29.75v6.98c0,.33-.1.6-.29.79-.19.19-.43.29-.71.29h-8.39c-.28,0-.53-.1-.75-.29-.22-.19-.33-.46-.33-.79v-6.98Zm0,11.97c0-.28.11-.53.33-.75s.47-.33.75-.33h8.39c.28,0,.51.11.71.33.19.22.29.47.29.75v7.06c0,.22-.04.42-.12.58-.08.17-.21.29-.37.37-.17.08-.33.12-.5.12h-8.39c-.28,0-.53-.1-.75-.29-.22-.19-.33-.46-.33-.79v-7.06Zm46.36-11.55c-.11-.33-.07-.67.12-1,.19-.33.48-.5.87-.5h8.56c.61,0,.97.31,1.08.91.17,1.05.25,2.08.25,3.07v4.07c0,.33-.1.6-.29.79-.19.19-.46.29-.79.29h-8.23c-.28,0-.53-.1-.75-.29-.22-.19-.33-.46-.33-.79v-4.07c0-.83-.17-1.66-.5-2.49Zm.08-23.76c-.17-.33-.14-.65.08-.96.22-.3.53-.46.91-.46h8.56c.55,0,.89.28,1,.83.17,1,.25,1.99.25,2.99,0,.94-.08,1.88-.25,2.83-.11.61-.44.91-1,.91h-8.56c-.33,0-.61-.15-.83-.46-.22-.3-.28-.62-.17-.96.28-.78.42-1.55.42-2.33,0-.83-.14-1.63-.42-2.41Zm.42,35.31c0-.22.04-.4.12-.54.08-.14.21-.26.37-.37.17-.11.36-.17.58-.17h8.23c.33,0,.59.11.79.33.19.22.29.47.29.75v7.06c0,.33-.1.6-.29.79-.19.2-.46.29-.79.29h-8.23c-.28,0-.53-.1-.75-.29-.22-.19-.33-.46-.33-.79v-7.06Z" fill="#f6f6f6" stroke-width="0"/><path d="m335.21,1287.81v-1.58c0-.28.11-.53.33-.75.22-.22.47-.33.75-.33h39.05c3.16,0,6.08.82,8.77,2.45,2.69,1.63,4.78,3.81,6.27,6.52.17.33.15.68-.04,1.04-.19.36-.49.54-.87.54h-53.18c-.28,0-.53-.11-.75-.33-.22-.22-.33-.47-.33-.75v-6.81Zm0,11.72c0-.28.11-.51.33-.71.22-.19.47-.29.75-.29h8.23c.33,0,.59.1.79.29.19.19.29.43.29.71v5.48c0,.22-.04.4-.12.54-.08.14-.21.26-.37.37-.17.11-.36.17-.58.17h-8.23c-.22,0-.42-.05-.58-.17-.17-.11-.29-.25-.37-.42s-.12-.33-.12-.5v-5.48Zm0,10.47c0-.33.11-.59.33-.79.22-.19.47-.29.75-.29h53.1c.44,0,.76.18.96.54.19.36.18.71-.04,1.04-.55,1-1.25,1.97-2.08,2.91-.39.44-.39.91,0,1.41.83.94,1.55,1.97,2.16,3.07.17.33.15.66-.04,1-.19.33-.51.5-.96.5h-53.1c-.28,0-.53-.1-.75-.29-.22-.19-.33-.43-.33-.71v-8.39Zm0,13.29c0-.17.04-.33.12-.5s.21-.3.37-.42c.17-.11.36-.17.58-.17h8.39c.28,0,.51.11.71.33.19.22.29.47.29.75v6.98c0,.33-.1.6-.29.79-.19.19-.43.29-.71.29h-8.39c-.28,0-.53-.1-.75-.29-.22-.19-.33-.46-.33-.79v-6.98Zm0,11.97c0-.28.11-.53.33-.75s.47-.33.75-.33h8.39c.28,0,.51.11.71.33.19.22.29.47.29.75v7.06c0,.22-.04.42-.12.58-.08.17-.21.29-.37.37-.17.08-.33.12-.5.12h-8.39c-.28,0-.53-.1-.75-.29-.22-.19-.33-.46-.33-.79v-7.06Zm46.36-11.55c-.11-.33-.07-.67.12-1,.19-.33.48-.5.87-.5h8.56c.61,0,.97.31,1.08.91.17,1.05.25,2.08.25,3.07v4.07c0,.33-.1.6-.29.79-.19.19-.46.29-.79.29h-8.23c-.28,0-.53-.1-.75-.29-.22-.19-.33-.46-.33-.79v-4.07c0-.83-.17-1.66-.5-2.49Zm.08-23.76c-.17-.33-.14-.65.08-.96.22-.3.53-.46.91-.46h8.56c.55,0,.89.28,1,.83.17,1,.25,1.99.25,2.99,0,.94-.08,1.88-.25,2.83-.11.61-.44.91-1,.91h-8.56c-.33,0-.61-.15-.83-.46-.22-.3-.28-.62-.17-.96.28-.78.42-1.55.42-2.33,0-.83-.14-1.63-.42-2.41Zm.42,35.31c0-.22.04-.4.12-.54.08-.14.21-.26.37-.37.17-.11.36-.17.58-.17h8.23c.33,0,.59.11.79.33.19.22.29.47.29.75v7.06c0,.33-.1.6-.29.79-.19.2-.46.29-.79.29h-8.23c-.28,0-.53-.1-.75-.29-.22-.19-.33-.46-.33-.79v-7.06Z" fill="#f6f6f6" stroke-width="0"/><path d="m400.76,1286.23c0-.22.04-.42.12-.58.08-.17.21-.29.37-.37.17-.08.36-.12.58-.12h8.23c.33,0,.59.11.79.33.19.22.29.47.29.75v8.39c0,.17-.04.33-.12.5s-.21.31-.37.42c-.17.11-.36.17-.58.17h-8.23c-.28,0-.53-.11-.75-.33-.22-.22-.33-.47-.33-.75v-8.39Zm0,13.29c0-.28.11-.51.33-.71.22-.19.47-.29.75-.29h8.23c.33,0,.59.1.79.29.19.19.29.43.29.71v5.48c0,.28-.1.53-.29.75-.19.22-.46.33-.79.33h-8.23c-.22,0-.42-.05-.58-.17-.17-.11-.29-.25-.37-.42s-.12-.33-.12-.5v-5.48Zm0,10.47c0-.33.11-.59.33-.79.22-.19.47-.29.75-.29h8.23c.22,0,.42.04.58.12s.29.21.37.37.12.36.12.58v8.39c0,.17-.04.33-.12.5s-.21.29-.37.37-.36.12-.58.12h-8.23c-.28,0-.53-.1-.75-.29-.22-.19-.33-.43-.33-.71v-8.39Zm0,13.29c0-.28.11-.53.33-.75s.47-.33.75-.33h8.23c.33,0,.59.11.79.33.19.22.29.47.29.75v6.98c0,.33-.1.6-.29.79-.19.19-.46.29-.79.29h-8.23c-.22,0-.42-.04-.58-.12-.17-.08-.29-.21-.37-.37s-.12-.36-.12-.58v-6.98Zm0,11.97c0-.28.11-.53.33-.75s.47-.33.75-.33h8.23c.33,0,.59.11.79.33.19.22.29.47.29.75v7.06c0,.33-.1.6-.29.79-.19.2-.46.29-.79.29h-8.23c-.22,0-.42-.04-.58-.12-.17-.08-.29-.21-.37-.37-.08-.17-.12-.36-.12-.58v-7.06Z" fill="#f6f6f6" stroke-width="0"/><path d="m419.46,1294.63v-8.39c0-.28.11-.53.33-.75.22-.22.47-.33.75-.33h8.23c.33,0,.59.11.79.33.19.22.29.47.29.75v8.39c0,.28-.1.53-.29.75-.19.22-.46.33-.79.33h-8.23c-.28,0-.53-.11-.75-.33-.22-.22-.33-.47-.33-.75Zm1.08,11.47c-.28,0-.53-.11-.75-.33-.22-.22-.33-.47-.33-.75v-5.48c0-.28.11-.51.33-.71.22-.19.47-.29.75-.29h8.23c.33,0,.59.1.79.29.19.19.29.43.29.71v5.48c0,.28-.1.53-.29.75-.19.22-.46.33-.79.33h-8.23Zm0,13.29c-.28,0-.53-.1-.75-.29-.22-.19-.33-.43-.33-.71v-8.39c0-.33.11-.59.33-.79.22-.19.47-.29.75-.29h8.23c.33,0,.59.1.79.29.19.2.29.46.29.79v8.39c0,.28-.1.51-.29.71-.19.19-.46.29-.79.29h-8.23Zm0,11.97c-.22,0-.42-.04-.58-.12-.17-.08-.29-.21-.37-.37s-.12-.36-.12-.58v-6.98c0-.28.11-.53.33-.75s.47-.33.75-.33h8.23c.33,0,.59.11.79.33.19.22.29.47.29.75v6.98c0,.33-.1.6-.29.79-.19.19-.46.29-.79.29h-8.23Zm46.86,3.53c.17.47.05.84-.33,1.12-5.43,4.88-11.74,7.31-18.94,7.31h-27.59c-.28,0-.53-.11-.75-.33-.22-.22-.33-.47-.33-.75v-6.98c0-.28.11-.53.33-.75s.47-.33.75-.33h45.87c.5,0,.83.24,1,.71Zm7.73-12.21c.22.31.28.62.17.96-.89,2.6-2.11,5.04-3.66,7.31-.22.28-.53.42-.91.42h-11.47c-.55,0-.9-.25-1.04-.75-.14-.5-.01-.89.37-1.16,2.44-1.77,4.35-3.99,5.73-6.65.22-.39.53-.58.91-.58h9.06c.33,0,.61.15.83.46Zm.5-13.75c.33,0,.59.1.79.29.19.2.29.46.29.79v4.65c0,1.33-.08,2.6-.25,3.82-.06.61-.42.91-1.08.91h-8.39c-.33,0-.6-.12-.79-.37-.19-.25-.26-.54-.21-.87.22-1.16.33-2.35.33-3.57v-4.57c0-.33.11-.59.33-.79.22-.19.47-.29.75-.29h8.23Zm1.08-22.68v8.39c0,.28-.1.53-.29.75-.19.22-.46.33-.79.33h-8.23c-.28,0-.53-.11-.75-.33-.22-.22-.33-.47-.33-.75v-8.39c0-.28.11-.53.33-.75.22-.22.47-.33.75-.33h8.23c.33,0,.59.11.79.33.19.22.29.47.29.75Zm-1.08,12.3c.33,0,.59.1.79.29.19.19.29.43.29.71v5.48c0,.28-.1.53-.29.75-.19.22-.46.33-.79.33h-8.23c-.28,0-.53-.11-.75-.33-.22-.22-.33-.47-.33-.75v-5.48c0-.28.11-.51.33-.71.22-.19.47-.29.75-.29h8.23Z" fill="#f6f6f6" stroke-width="0"/><path d="m534.21,1293.88c.33.33.4.72.21,1.16-.19.44-.54.67-1.04.67h-47.28c-.28,0-.53-.11-.75-.33-.22-.22-.33-.47-.33-.75v-8.39c0-.28.11-.53.33-.75.22-.22.47-.33.75-.33h27.59c3.93,0,7.67.76,11.22,2.29,3.54,1.52,6.65,3.67,9.31,6.44Zm-49.19,5.65c0-.28.11-.51.33-.71.22-.19.47-.29.75-.29h8.23c.33,0,.59.1.79.29.19.19.29.43.29.71v5.48c0,.28-.1.53-.29.75-.19.22-.46.33-.79.33h-8.23c-.28,0-.53-.11-.75-.33-.22-.22-.33-.47-.33-.75v-5.48Zm57.25,18.86c0,.28-.1.51-.29.71-.2.19-.46.29-.79.29h-55.09c-.28,0-.53-.1-.75-.29-.22-.19-.33-.43-.33-.71v-8.39c0-.33.11-.59.33-.79.22-.19.47-.29.75-.29h54.84c.61,0,.97.3,1.08.91.17,1.33.25,2.66.25,3.99v4.57Zm-57.25,4.9c0-.17.04-.33.12-.5s.21-.3.37-.42c.17-.11.36-.17.58-.17h8.23c.22,0,.42.06.58.17.17.11.29.25.37.42s.12.33.12.5v6.98c0,.33-.1.6-.29.79-.19.19-.46.29-.79.29h-8.23c-.28,0-.53-.1-.75-.29-.22-.19-.33-.46-.33-.79v-6.98Zm0,11.97c0-.28.11-.53.33-.75s.47-.33.75-.33h8.23c.33,0,.59.11.79.33.19.22.29.47.29.75v6.98c0,.28-.1.53-.29.75-.19.22-.46.33-.79.33h-8.23c-.28,0-.53-.11-.75-.33-.22-.22-.33-.47-.33-.75v-6.98Zm55.75-30.58c.11.33.07.65-.12.96-.19.3-.49.46-.87.46h-8.97c-.44,0-.78-.19-1-.58-1-1.94-2.33-3.66-3.99-5.15-.33-.33-.42-.72-.25-1.16.17-.44.5-.66,1-.66h10.64c.44,0,.75.17.91.5,1.11,1.77,1.99,3.66,2.66,5.65Zm1.5,25.59c0,.22-.04.42-.12.58s-.21.29-.37.37-.36.12-.58.12h-8.23c-.28,0-.53-.1-.75-.29-.22-.19-.33-.46-.33-.79v-6.98c0-.28.11-.53.33-.75.22-.22.47-.33.75-.33h8.23c.22,0,.42.06.58.17.17.11.29.25.37.42s.12.33.12.5v6.98Zm0,4.99v6.98c0,.28-.1.53-.29.75-.2.22-.46.33-.79.33h-8.23c-.28,0-.53-.11-.75-.33-.22-.22-.33-.47-.33-.75v-6.98c0-.28.11-.53.33-.75.22-.22.47-.33.75-.33h8.23c.33,0,.59.11.79.33.19.22.29.47.29.75Z" fill="#f6f6f6" stroke-width="0"/><path d="m550.57,1294.63v-8.39c0-.28.11-.53.33-.75s.47-.33.75-.33h8.23c.33,0,.59.11.79.33.19.22.29.47.29.75v8.39c0,.17-.04.33-.12.5s-.21.31-.37.42c-.17.11-.36.17-.58.17h-8.23c-.28,0-.53-.11-.75-.33-.22-.22-.33-.47-.33-.75Zm0,4.9c0-.28.11-.51.33-.71.22-.19.47-.29.75-.29h8.23c.33,0,.59.1.79.29.19.19.29.43.29.71v5.48c0,.28-.1.53-.29.75-.19.22-.46.33-.79.33h-8.23c-.22,0-.42-.05-.58-.17-.17-.11-.29-.25-.37-.42s-.12-.33-.12-.5v-5.48Zm0,10.47c0-.22.04-.42.12-.58s.21-.29.37-.37.36-.12.58-.12h8.23c.33,0,.59.1.79.29.19.2.29.46.29.79v4.57c0,1.22.11,2.41.33,3.57.11.33.05.62-.17.87-.22.25-.5.37-.83.37h-8.39c-.61,0-.97-.3-1.08-.91-.17-1.22-.25-2.49-.25-3.82v-4.65Zm1.41,13.63c-.11-.33-.06-.65.17-.96.22-.3.53-.46.91-.46h8.97c.44,0,.75.2.91.58,1.38,2.66,3.29,4.88,5.73,6.65.39.28.51.66.37,1.16-.14.5-.49.75-1.04.75h-11.47c-.39,0-.69-.14-.91-.42-1.55-2.27-2.77-4.71-3.66-7.31Zm8.23,12.38c-.39-.28-.49-.65-.29-1.12.19-.47.54-.71,1.04-.71h45.78c.33,0,.59.11.79.33.19.22.29.47.29.75v6.98c0,.28-.1.53-.29.75-.2.22-.46.33-.79.33h-27.5c-7.26,0-13.6-2.44-19.03-7.31Z" fill="#f6f6f6" stroke-width="0"/></g></g></g></svg>