<?xml version="1.0" encoding="utf-8"?>
<!-- Generator: Adobe Illustrator 27.8.1, SVG Export Plug-In . SVG Version: 6.00 Build 0)  -->
<svg version="1.1" id="Layer_1" xmlns="http://www.w3.org/2000/svg" xmlns:xlink="http://www.w3.org/1999/xlink" x="0px" y="0px"
	 viewBox="0 0 1366 768" style="enable-background:new 0 0 1366 768;" xml:space="preserve">
<style type="text/css">
	.st0{fill:#231F20;}
	.st1{fill:#17D8E2;}
	.st2{fill:none;}
	.st3{font-family:'AutogateSans';}
	.st4{font-size:16px;}
	.st5{letter-spacing:3;}
</style>
<g id="XMLID_14094_">
	<g id="XMLID_14097_">
		<path id="XMLID_189_" class="st0" d="M727.48,405.54h-89.4c-0.54,0-1.03-0.29-1.3-0.75c-0.27-0.46-0.27-1.04,0-1.5l40.28-69.76
			c0.27-0.46,0.76-0.75,1.3-0.75c0.54,0,1.03,0.29,1.3,0.75l4.42,7.66c0.27,0.46,0.27,1.04,0,1.5l-30.13,52.19h77.95
			c0.54,0,1.03,0.29,1.3,0.75c0.27,0.46,0.27,1.04,0,1.5l-4.42,7.66C728.51,405.26,728.01,405.54,727.48,405.54z M640.68,402.54
			h85.93l2.69-4.66h-77.95c-0.54,0-1.03-0.29-1.3-0.75c-0.27-0.46-0.27-1.04,0-1.5l31-53.69l-2.69-4.66L640.68,402.54z"/>
	</g>
	<g id="XMLID_14096_">
		<path id="XMLID_186_" class="st0" d="M731.9,397.88h-80.55c-0.54,0-1.03-0.29-1.3-0.75c-0.27-0.46-0.27-1.04,0-1.5l4.42-7.66
			c0.27-0.46,0.76-0.75,1.3-0.75h60.27l-38.98-67.51c-0.27-0.46-0.27-1.04,0-1.5c0.27-0.46,0.76-0.75,1.3-0.75h8.84
			c0.54,0,1.03,0.29,1.3,0.75l44.7,77.42c0.27,0.46,0.27,1.04,0,1.5C732.93,397.6,732.43,397.88,731.9,397.88z M653.94,394.88h75.36
			l-42.97-74.42h-5.38l38.98,67.51c0.27,0.46,0.27,1.04,0,1.5c-0.27,0.46-0.76,0.75-1.3,0.75h-62L653.94,394.88z"/>
	</g>
	<g id="XMLID_14095_">
		<polygon id="XMLID_185_" class="st1" points="718.63,388.72 678.36,318.96 633.66,396.38 638.08,404.04 678.36,334.28 
			709.79,388.72 		"/>
		<path id="XMLID_182_" class="st0" d="M638.08,405.54L638.08,405.54c-0.54,0-1.03-0.29-1.3-0.75l-4.42-7.66
			c-0.27-0.46-0.27-1.04,0-1.5l44.7-77.42c0.27-0.46,0.76-0.75,1.3-0.75c0.54,0,1.03,0.29,1.3,0.75l40.28,69.76
			c0.27,0.46,0.27,1.04,0,1.5c-0.27,0.46-0.76,0.75-1.3,0.75h-8.84c-0.54,0-1.03-0.29-1.3-0.75l-30.13-52.19l-38.98,67.51
			C639.11,405.26,638.62,405.54,638.08,405.54z M635.39,396.38l2.69,4.66l38.98-67.51c0.27-0.46,0.76-0.75,1.3-0.75
			c0.54,0,1.03,0.29,1.3,0.75l31,53.69h5.38l-37.68-65.26L635.39,396.38z"/>
	</g>
</g>
<rect id="XMLID_00000080888930454609501420000003003738363683324582_" x="602.28" y="419.59" class="st2" width="160.99" height="22"/>
<text id="XMLID_272_" transform="matrix(1 0 0 1 641.562 431.3364)" class="st0 st3 st4 st5">Final ARc</text>
<rect id="XMLID_00000070798779786496772820000000765868872062311297_" x="611.28" y="437.26" class="st2" width="143" height="12.33"/>
</svg>
